<svg version="1.1" xmlns="http://www.w3.org/2000/svg" viewBox="0 0 996.8966467572993 1250.9432391008843" width="996.8966467572993" height="1250.9432391008843">
  <!-- svg-source:excalidraw -->
  
  <defs>
    <style class="style-fonts">
      @font-face {
        font-family: "Virgil";
        src: url("https://excalidraw.com/Virgil.woff2");
      }
      @font-face {
        font-family: "Cascadia";
        src: url("https://excalidraw.com/Cascadia.woff2");
      }
    </style>
  </defs>
  <rect x="0" y="0" width="996.8966467572993" height="1250.9432391008843" fill="#ffffff"></rect><g stroke-linecap="round" transform="translate(181.6082294171813 10) rotate(0 91.60003662109375 31.199996948242188)"><path d="M15.6 0 M15.6 0 C56.69 0, 97.79 0, 167.6 0 M15.6 0 C52.04 0, 88.49 0, 167.6 0 M167.6 0 C178 0, 183.2 5.2, 183.2 15.6 M167.6 0 C178 0, 183.2 5.2, 183.2 15.6 M183.2 15.6 C183.2 27.36, 183.2 39.12, 183.2 46.8 M183.2 15.6 C183.2 25.35, 183.2 35.1, 183.2 46.8 M183.2 46.8 C183.2 57.2, 178 62.4, 167.6 62.4 M183.2 46.8 C183.2 57.2, 178 62.4, 167.6 62.4 M167.6 62.4 C136.88 62.4, 106.16 62.4, 15.6 62.4 M167.6 62.4 C125.05 62.4, 82.5 62.4, 15.6 62.4 M15.6 62.4 C5.2 62.4, 0 57.2, 0 46.8 M15.6 62.4 C5.2 62.4, 0 57.2, 0 46.8 M0 46.8 C0 34.74, 0 22.67, 0 15.6 M0 46.8 C0 39.41, 0 32.02, 0 15.6 M0 15.6 C0 5.2, 5.2 0, 15.6 0 M0 15.6 C0 5.2, 5.2 0, 15.6 0" stroke="#000000" stroke-width="1" fill="none"></path></g><g transform="translate(242.70826603827504 29.199996948242188) rotate(0 30.5 12)"><text x="30.5" y="19" font-family="Cascadia, Segoe UI Emoji" font-size="20px" fill="#000000" text-anchor="middle" style="white-space: pre;" direction="ltr">Start</text></g><g stroke-linecap="round" transform="translate(86.00825383124379 111.60002136230469) rotate(0 208.5 33.5)"><path d="M0 0 C126.32 0, 252.64 0, 417 0 M0 0 C117.02 0, 234.04 0, 417 0 M417 0 C417 23.92, 417 47.83, 417 67 M417 0 C417 22.74, 417 45.49, 417 67 M417 67 C266.16 67, 115.32 67, 0 67 M417 67 C302.84 67, 188.68 67, 0 67 M0 67 C0 48.69, 0 30.38, 0 0 M0 67 C0 48.03, 0 29.07, 0 0" stroke="#000000" stroke-width="1" fill="none"></path></g><g transform="translate(129.5082538312438 133.1000213623047) rotate(0 165 12)"><text x="165" y="19" font-family="Cascadia, Segoe UI Emoji" font-size="20px" fill="#000000" text-anchor="middle" style="white-space: pre;" direction="ltr">parseSeconds(String strTime)</text></g><g stroke-linecap="round" transform="translate(87.20826603827504 222.74618737817036) rotate(0 207.5 53)"><path d="M0 0 C100.44 0, 200.88 0, 415 0 M0 0 C95.73 0, 191.46 0, 415 0 M415 0 C415 27.26, 415 54.52, 415 106 M415 0 C415 30.59, 415 61.18, 415 106 M415 106 C313.89 106, 212.77 106, 0 106 M415 106 C265.28 106, 115.56 106, 0 106 M0 106 C0 73.81, 0 41.62, 0 0 M0 106 C0 67.53, 0 29.07, 0 0" stroke="#000000" stroke-width="1" fill="none"></path></g><g transform="translate(95.20826603827504 239.74618737817036) rotate(0 199.5 36)"><text x="199.5" y="19" font-family="Cascadia, Segoe UI Emoji" font-size="20px" fill="#000000" text-anchor="middle" style="white-space: pre;" direction="ltr">Pattern p = </text><text x="199.5" y="43" font-family="Cascadia, Segoe UI Emoji" font-size="20px" fill="#000000" text-anchor="middle" style="white-space: pre;" direction="ltr">Pattern.compile("(\\d+):([0-5]?\\d</text><text x="199.5" y="67" font-family="Cascadia, Segoe UI Emoji" font-size="20px" fill="#000000" text-anchor="middle" style="white-space: pre;" direction="ltr">):([0-5]?\\d)");</text></g><g stroke-linecap="round" transform="translate(87.20820500311879 360.34996032714844) rotate(0 208 38)"><path d="M0 0 C128.16 0, 256.32 0, 416 0 M0 0 C139.57 0, 279.14 0, 416 0 M416 0 C416 21.84, 416 43.68, 416 76 M416 0 C416 17.47, 416 34.94, 416 76 M416 76 C286.03 76, 156.06 76, 0 76 M416 76 C320.01 76, 224.02 76, 0 76 M0 76 C0 47.22, 0 18.44, 0 0 M0 76 C0 46.93, 0 17.86, 0 0" stroke="#000000" stroke-width="1" fill="none"></path></g><g transform="translate(112.70820500311879 386.34996032714844) rotate(0 182.5 12)"><text x="182.5" y="19" font-family="Cascadia, Segoe UI Emoji" font-size="20px" fill="#000000" text-anchor="middle" style="white-space: pre;" direction="ltr">Matcher m = p.matcher(strTime);</text></g><g stroke-linecap="round" transform="translate(189.8083026593688 507.75001525878906) rotate(0 94.5 94.40005493164062)"><path d="M95 0 C127.58 32.93, 160.17 65.86, 189 95 M95 0 C114.7 19.91, 134.4 39.82, 189 95 M189 95 C165.62 118.33, 142.24 141.66, 95 188.8 M189 95 C156.71 127.22, 124.43 159.43, 95 188.8 M95 188.8 C63.88 158.08, 32.77 127.36, 0 95 M95 188.8 C68.02 162.16, 41.04 135.52, 0 95 M0 95 C24.41 70.59, 48.82 46.18, 95 0 M0 95 C25.25 69.75, 50.5 44.5, 95 0" stroke="#000000" stroke-width="1" fill="none"></path></g><g transform="translate(212.8083026593688 590.1500701904297) rotate(0 71.5 12)"><text x="71.5" y="19" font-family="Cascadia, Segoe UI Emoji" font-size="20px" fill="#000000" text-anchor="middle" style="white-space: pre;" direction="ltr">!m.matches()</text></g><g stroke-linecap="round" transform="translate(458.1082294171813 553.6001586914062) rotate(0 211.5 44)"><path d="M0 0 C165.29 0, 330.58 0, 423 0 M0 0 C121.86 0, 243.72 0, 423 0 M423 0 C423 31.61, 423 63.23, 423 88 M423 0 C423 19.91, 423 39.83, 423 88 M423 88 C298.61 88, 174.21 88, 0 88 M423 88 C296.18 88, 169.36 88, 0 88 M0 88 C0 58.59, 0 29.18, 0 0 M0 88 C0 57.19, 0 26.39, 0 0" stroke="#000000" stroke-width="1" fill="none"></path></g><g transform="translate(470.1082294171813 573.6001586914062) rotate(0 199.5 24)"><text x="199.5" y="19" font-family="Cascadia, Segoe UI Emoji" font-size="20px" fill="#000000" text-anchor="middle" style="white-space: pre;" direction="ltr">throw new ParseException("Invalid </text><text x="199.5" y="43" font-family="Cascadia, Segoe UI Emoji" font-size="20px" fill="#000000" text-anchor="middle" style="white-space: pre;" direction="ltr">seconds-string", 0);</text></g><g stroke-linecap="round" transform="translate(93.40821721015004 726.4000549316406) rotate(0 206.5 36)"><path d="M0 0 C123.82 0, 247.64 0, 413 0 M0 0 C138.02 0, 276.03 0, 413 0 M413 0 C413 25.2, 413 50.41, 413 72 M413 0 C413 17.32, 413 34.64, 413 72 M413 72 C328.01 72, 243.02 72, 0 72 M413 72 C319 72, 224.99 72, 0 72 M0 72 C0 46.67, 0 21.35, 0 0 M0 72 C0 43.62, 0 15.24, 0 0" stroke="#000000" stroke-width="1" fill="none"></path></g><g transform="translate(97.90821721015004 738.4000549316406) rotate(0 202 24)"><text x="202" y="19" font-family="Cascadia, Segoe UI Emoji" font-size="20px" fill="#000000" text-anchor="middle" style="white-space: pre;" direction="ltr">int hours = </text><text x="202" y="43" font-family="Cascadia, Segoe UI Emoji" font-size="20px" fill="#000000" text-anchor="middle" style="white-space: pre;" direction="ltr">Integer.parseInt(m.group(1));</text></g><g stroke-linecap="round" transform="translate(92.75825383124379 833.0499572753906) rotate(0 205 33)"><path d="M0 0 C134.07 0, 268.14 0, 410 0 M0 0 C158.99 0, 317.99 0, 410 0 M410 0 C410 15.32, 410 30.65, 410 66 M410 0 C410 19.6, 410 39.21, 410 66 M410 66 C256.29 66, 102.57 66, 0 66 M410 66 C325.01 66, 240.02 66, 0 66 M0 66 C0 44.4, 0 22.81, 0 0 M0 66 C0 41.53, 0 17.05, 0 0" stroke="#000000" stroke-width="1" fill="none"></path></g><g transform="translate(97.25825383124379 842.0499572753906) rotate(0 200.5 24)"><text x="200.5" y="19" font-family="Cascadia, Segoe UI Emoji" font-size="20px" fill="#000000" text-anchor="middle" style="white-space: pre;" direction="ltr">int minutes = </text><text x="200.5" y="43" font-family="Cascadia, Segoe UI Emoji" font-size="20px" fill="#000000" text-anchor="middle" style="white-space: pre;" direction="ltr">Integer.parseInt(m.group(2));</text></g><g stroke-linecap="round" transform="translate(90.35822941718129 935.0500183105469) rotate(0 208 33)"><path d="M0 0 C103.57 0, 207.15 0, 416 0 M0 0 C112 0, 224 0, 416 0 M416 0 C416 17.98, 416 35.96, 416 66 M416 0 C416 18.38, 416 36.77, 416 66 M416 66 C315.89 66, 215.77 66, 0 66 M416 66 C285.66 66, 155.32 66, 0 66 M0 66 C0 42.19, 0 18.38, 0 0 M0 66 C0 44.95, 0 23.89, 0 0" stroke="#000000" stroke-width="1" fill="none"></path></g><g transform="translate(94.85822941718129 944.0500183105469) rotate(0 203.5 24)"><text x="203.5" y="19" font-family="Cascadia, Segoe UI Emoji" font-size="20px" fill="#000000" text-anchor="middle" style="white-space: pre;" direction="ltr">int seconds = </text><text x="203.5" y="43" font-family="Cascadia, Segoe UI Emoji" font-size="20px" fill="#000000" text-anchor="middle" style="white-space: pre;" direction="ltr">Integer.parseInt(m.group(3));</text></g><g stroke-linecap="round" transform="translate(90.35822941718129 1048.7000427246094) rotate(0 207.5 37.5)"><path d="M0 0 C94.51 0, 189.02 0, 415 0 M0 0 C153.55 0, 307.11 0, 415 0 M415 0 C415 24.04, 415 48.08, 415 75 M415 0 C415 19.84, 415 39.68, 415 75 M415 75 C253.43 75, 91.86 75, 0 75 M415 75 C255.79 75, 96.58 75, 0 75 M0 75 C0 53.72, 0 32.45, 0 0 M0 75 C0 46.96, 0 18.91, 0 0" stroke="#000000" stroke-width="1" fill="none"></path></g><g transform="translate(94.85822941718129 1062.2000427246094) rotate(0 203 24)"><text x="203" y="19" font-family="Cascadia, Segoe UI Emoji" font-size="20px" fill="#000000" text-anchor="middle" style="white-space: pre;" direction="ltr">return (hours * 3600 + minutes * </text><text x="203" y="43" font-family="Cascadia, Segoe UI Emoji" font-size="20px" fill="#000000" text-anchor="middle" style="white-space: pre;" direction="ltr">60 + seconds);</text></g><g stroke-linecap="round"><g transform="translate(275.15821761559596 73.9500122070313) rotate(0 -1.0249220849800622e-7 17.20000457763669)"><path d="M0 0 C0 5.73, 0 28.67, 0 34.4 M0 0 C0 5.73, 0 28.67, 0 34.4" stroke="#000000" stroke-width="1" fill="none"></path></g><g transform="translate(275.15821761559596 73.9500122070313) rotate(0 -1.0249220849800622e-7 17.20000457763669)"><path d="M0 34.4 L-6.34 20.81 L6.34 20.81 L0 34.4" stroke="none" stroke-width="0" fill="#000000" fill-rule="evenodd"></path><path d="M0 34.4 C-2.52 29, -5.04 23.6, -6.34 20.81 M0 34.4 C-1.61 30.94, -3.23 27.47, -6.34 20.81 M-6.34 20.81 C-1.47 20.81, 3.4 20.81, 6.34 20.81 M-6.34 20.81 C-2.66 20.81, 1.01 20.81, 6.34 20.81 M6.34 20.81 C4.73 24.27, 3.11 27.73, 0 34.4 M6.34 20.81 C4.3 25.17, 2.27 29.54, 0 34.4 M0 34.4 C0 34.4, 0 34.4, 0 34.4 M0 34.4 C0 34.4, 0 34.4, 0 34.4" stroke="#000000" stroke-width="1" fill="none"></path></g></g><g stroke-linecap="round"><g transform="translate(276.7582538312438 179.8470801858341) rotate(0 0 20.826024184403423)"><path d="M0 0 C0 6.94, 0 34.71, 0 41.65 M0 0 C0 6.94, 0 34.71, 0 41.65" stroke="#000000" stroke-width="1" fill="none"></path></g><g transform="translate(276.7582538312438 179.8470801858341) rotate(0 0 20.826024184403423)"><path d="M0 41.65 L-6.34 28.06 L6.34 28.06 L0 41.65" stroke="none" stroke-width="0" fill="#000000" fill-rule="evenodd"></path><path d="M0 41.65 C-1.42 38.61, -2.83 35.58, -6.34 28.06 M0 41.65 C-2.31 36.7, -4.62 31.75, -6.34 28.06 M-6.34 28.06 C-3.21 28.06, -0.09 28.06, 6.34 28.06 M-6.34 28.06 C-2.7 28.06, 0.95 28.06, 6.34 28.06 M6.34 28.06 C3.82 33.47, 1.29 38.88, 0 41.65 M6.34 28.06 C4.85 31.26, 3.36 34.45, 0 41.65 M0 41.65 C0 41.65, 0 41.65, 0 41.65 M0 41.65 C0 41.65, 0 41.65, 0 41.65" stroke="#000000" stroke-width="1" fill="none"></path></g></g><g stroke-linecap="round"><g transform="translate(283.15821721015004 329.9932462016998) rotate(0 0 14.554827650959623)"><path d="M0 0 C0 4.85, 0 24.26, 0 29.11 M0 0 C0 4.85, 0 24.26, 0 29.11" stroke="#000000" stroke-width="1" fill="none"></path></g><g transform="translate(283.15821721015004 329.9932462016998) rotate(0 0 14.554827650959623)"><path d="M0 29.11 L-6.15 15.92 L6.15 15.92 L0 29.11" stroke="none" stroke-width="0" fill="#000000" fill-rule="evenodd"></path><path d="M0 29.11 C-1.77 25.32, -3.54 21.53, -6.15 15.92 M0 29.11 C-2.45 23.86, -4.9 18.61, -6.15 15.92 M-6.15 15.92 C-3.26 15.92, -0.36 15.92, 6.15 15.92 M-6.15 15.92 C-2.03 15.92, 2.1 15.92, 6.15 15.92 M6.15 15.92 C4.79 18.84, 3.43 21.76, 0 29.11 M6.15 15.92 C4.52 19.42, 2.88 22.93, 0 29.11 M0 29.11 C0 29.11, 0 29.11, 0 29.11 M0 29.11 C0 29.11, 0 29.11, 0 29.11" stroke="#000000" stroke-width="1" fill="none"></path></g></g><g stroke-linecap="round"><g transform="translate(283.95826603827504 437.34996032714844) rotate(0 0 34.73165945776117)"><path d="M0 0 C0 11.58, 0 57.89, 0 69.46 M0 0 C0 11.58, 0 57.89, 0 69.46" stroke="#000000" stroke-width="1" fill="none"></path></g><g transform="translate(283.95826603827504 437.34996032714844) rotate(0 0 34.73165945776117)"><path d="M0 69.46 L-6.34 55.87 L6.34 55.87 L0 69.46" stroke="none" stroke-width="0" fill="#000000" fill-rule="evenodd"></path><path d="M0 69.46 C-1.7 65.82, -3.4 62.17, -6.34 55.87 M0 69.46 C-2.13 64.9, -4.25 60.34, -6.34 55.87 M-6.34 55.87 C-1.39 55.87, 3.56 55.87, 6.34 55.87 M-6.34 55.87 C-3.5 55.87, -0.67 55.87, 6.34 55.87 M6.34 55.87 C3.96 60.97, 1.58 66.07, 0 69.46 M6.34 55.87 C4.05 60.78, 1.76 65.69, 0 69.46 M0 69.46 C0 69.46, 0 69.46, 0 69.46 M0 69.46 C0 69.46, 0 69.46, 0 69.46" stroke="#000000" stroke-width="1" fill="none"></path></g></g><g stroke-linecap="round"><g transform="translate(379.15821721015004 604.4500427246094) rotate(0 38.975006103515625 0)"><path d="M0 0 C12.99 0, 64.96 0, 77.95 0 M0 0 C12.99 0, 64.96 0, 77.95 0" stroke="#000000" stroke-width="1" fill="none"></path></g><g transform="translate(379.15821721015004 604.4500427246094) rotate(0 38.975006103515625 0)"><path d="M77.95 0 L64.36 6.34 L64.36 -6.34 L77.95 0" stroke="none" stroke-width="0" fill="#000000" fill-rule="evenodd"></path><path d="M77.95 0 C74.64 1.54, 71.34 3.08, 64.36 6.34 M77.95 0 C73.11 2.26, 68.27 4.52, 64.36 6.34 M64.36 6.34 C64.36 2.82, 64.36 -0.7, 64.36 -6.34 M64.36 6.34 C64.36 3.12, 64.36 -0.09, 64.36 -6.34 M64.36 -6.34 C67.92 -4.68, 71.48 -3.02, 77.95 0 M64.36 -6.34 C67.7 -4.78, 71.04 -3.22, 77.95 0 M77.95 0 C77.95 0, 77.95 0, 77.95 0 M77.95 0 C77.95 0, 77.95 0, 77.95 0" stroke="#000000" stroke-width="1" fill="none"></path></g></g><g stroke-linecap="round"><g transform="translate(283.95826603827504 696.5000305175781) rotate(0 0 14.399993896484375)"><path d="M0 0 C0 4.8, 0 24, 0 28.8 M0 0 C0 4.8, 0 24, 0 28.8" stroke="#000000" stroke-width="1" fill="none"></path></g><g transform="translate(283.95826603827504 696.5000305175781) rotate(0 0 14.399993896484375)"><path d="M0 28.8 L-6.09 15.75 L6.09 15.75 L0 28.8" stroke="none" stroke-width="0" fill="#000000" fill-rule="evenodd"></path><path d="M0 28.8 C-1.6 25.36, -3.21 21.92, -6.09 15.75 M0 28.8 C-1.46 25.66, -2.92 22.53, -6.09 15.75 M-6.09 15.75 C-1.43 15.75, 3.23 15.75, 6.09 15.75 M-6.09 15.75 C-3.01 15.75, 0.06 15.75, 6.09 15.75 M6.09 15.75 C4.73 18.65, 3.38 21.54, 0 28.8 M6.09 15.75 C4.2 19.79, 2.32 23.83, 0 28.8 M0 28.8 C0 28.8, 0 28.8, 0 28.8 M0 28.8 C0 28.8, 0 28.8, 0 28.8" stroke="#000000" stroke-width="1" fill="none"></path></g></g><g stroke-linecap="round"><g transform="translate(287.95826603827504 798.9000854492188) rotate(0 0 16)"><path d="M0 0 C0 5.33, 0 26.67, 0 32 M0 0 C0 5.33, 0 26.67, 0 32" stroke="#000000" stroke-width="1" fill="none"></path></g><g transform="translate(287.95826603827504 798.9000854492188) rotate(0 0 16)"><path d="M0 32 L-6.34 18.41 L6.34 18.41 L0 32" stroke="none" stroke-width="0" fill="#000000" fill-rule="evenodd"></path><path d="M0 32 C-1.6 28.56, -3.21 25.13, -6.34 18.41 M0 32 C-2.37 26.91, -4.74 21.83, -6.34 18.41 M-6.34 18.41 C-2.61 18.41, 1.12 18.41, 6.34 18.41 M-6.34 18.41 C-3.61 18.41, -0.87 18.41, 6.34 18.41 M6.34 18.41 C4.59 22.16, 2.84 25.91, 0 32 M6.34 18.41 C4.56 22.23, 2.78 26.05, 0 32 M0 32 C0 32, 0 32, 0 32 M0 32 C0 32, 0 32, 0 32" stroke="#000000" stroke-width="1" fill="none"></path></g></g><g stroke-linecap="round"><g transform="translate(288.7582538312438 900.5000305175781) rotate(0 0 16.79998779296875)"><path d="M0 0 C0 5.6, 0 28, 0 33.6 M0 0 C0 5.6, 0 28, 0 33.6" stroke="#000000" stroke-width="1" fill="none"></path></g><g transform="translate(288.7582538312438 900.5000305175781) rotate(0 0 16.79998779296875)"><path d="M0 33.6 L-6.34 20.01 L6.34 20.01 L0 33.6" stroke="none" stroke-width="0" fill="#000000" fill-rule="evenodd"></path><path d="M0 33.6 C-2.34 28.58, -4.68 23.56, -6.34 20.01 M0 33.6 C-1.94 29.43, -3.88 25.27, -6.34 20.01 M-6.34 20.01 C-2.62 20.01, 1.1 20.01, 6.34 20.01 M-6.34 20.01 C-2.9 20.01, 0.53 20.01, 6.34 20.01 M6.34 20.01 C4.07 24.86, 1.81 29.72, 0 33.6 M6.34 20.01 C4.29 24.39, 2.25 28.77, 0 33.6 M0 33.6 C0 33.6, 0 33.6, 0 33.6 M0 33.6 C0 33.6, 0 33.6, 0 33.6" stroke="#000000" stroke-width="1" fill="none"></path></g></g><g stroke-linecap="round"><g transform="translate(291.15821721015004 1003.0500183105469) rotate(0 0 22)"><path d="M0 0 C0 7.33, 0 36.67, 0 44 M0 0 C0 7.33, 0 36.67, 0 44" stroke="#000000" stroke-width="1" fill="none"></path></g><g transform="translate(291.15821721015004 1003.0500183105469) rotate(0 0 22)"><path d="M0 44 L-6.34 30.41 L6.34 30.41 L0 44" stroke="none" stroke-width="0" fill="#000000" fill-rule="evenodd"></path><path d="M0 44 C-2.23 39.21, -4.47 34.42, -6.34 30.41 M0 44 C-1.79 40.16, -3.58 36.32, -6.34 30.41 M-6.34 30.41 C-3.31 30.41, -0.28 30.41, 6.34 30.41 M-6.34 30.41 C-3.57 30.41, -0.79 30.41, 6.34 30.41 M6.34 30.41 C4.32 34.73, 2.31 39.05, 0 44 M6.34 30.41 C4.39 34.59, 2.43 38.78, 0 44 M0 44 C0 44, 0 44, 0 44 M0 44 C0 44, 0 44, 0 44" stroke="#000000" stroke-width="1" fill="none"></path></g></g><g transform="translate(532.6408877866845 107.18408266377543) rotate(0 100 36)"><text x="0" y="19" font-family="Cascadia, Segoe UI Emoji" font-size="20px" fill="#c92a2a" text-anchor="start" style="white-space: pre;" direction="ltr">def = { strTime }</text><text x="0" y="43" font-family="Cascadia, Segoe UI Emoji" font-size="20px" fill="#c92a2a" text-anchor="start" style="white-space: pre;" direction="ltr">p-use = { }</text><text x="0" y="67" font-family="Cascadia, Segoe UI Emoji" font-size="20px" fill="#c92a2a" text-anchor="start" style="white-space: pre;" direction="ltr">c-use= { }</text></g><g transform="translate(533.5565932705988 227.25127389060503) rotate(0 65 36)"><text x="0" y="19" font-family="Cascadia, Segoe UI Emoji" font-size="20px" fill="#c92a2a" text-anchor="start" style="white-space: pre;" direction="ltr">def = { p }</text><text x="0" y="43" font-family="Cascadia, Segoe UI Emoji" font-size="20px" fill="#c92a2a" text-anchor="start" style="white-space: pre;" direction="ltr">p-use = { }</text><text x="0" y="67" font-family="Cascadia, Segoe UI Emoji" font-size="20px" fill="#c92a2a" text-anchor="start" style="white-space: pre;" direction="ltr">c-use= { }</text></g><g transform="translate(543.7504249245469 365.9886749675037) rotate(0 118 36)"><text x="0" y="19" font-family="Cascadia, Segoe UI Emoji" font-size="20px" fill="#c92a2a" text-anchor="start" style="white-space: pre;" direction="ltr">def = { m }</text><text x="0" y="43" font-family="Cascadia, Segoe UI Emoji" font-size="20px" fill="#c92a2a" text-anchor="start" style="white-space: pre;" direction="ltr">p-use = { }</text><text x="0" y="67" font-family="Cascadia, Segoe UI Emoji" font-size="20px" fill="#c92a2a" text-anchor="start" style="white-space: pre;" direction="ltr">c-use= { p,strTime }</text></g><g transform="translate(84.54754143425316 491.44503576078466) rotate(0 76.5 36)"><text x="0" y="19" font-family="Cascadia, Segoe UI Emoji" font-size="20px" fill="#c92a2a" text-anchor="start" style="white-space: pre;" direction="ltr">def = { }</text><text x="0" y="43" font-family="Cascadia, Segoe UI Emoji" font-size="20px" fill="#c92a2a" text-anchor="start" style="white-space: pre;" direction="ltr">p-use = { m }</text><text x="0" y="67" font-family="Cascadia, Segoe UI Emoji" font-size="20px" fill="#c92a2a" text-anchor="start" style="white-space: pre;" direction="ltr">c-use= { }</text></g><g transform="translate(777.6861448645413 467.536516917368) rotate(0 65 36)"><text x="0" y="19" font-family="Cascadia, Segoe UI Emoji" font-size="20px" fill="#c92a2a" text-anchor="start" style="white-space: pre;" direction="ltr">def = { }</text><text x="0" y="43" font-family="Cascadia, Segoe UI Emoji" font-size="20px" fill="#c92a2a" text-anchor="start" style="white-space: pre;" direction="ltr">p-use = { }</text><text x="0" y="67" font-family="Cascadia, Segoe UI Emoji" font-size="20px" fill="#c92a2a" text-anchor="start" style="white-space: pre;" direction="ltr">c-use= { }</text></g><g transform="translate(530.4468179349515 727.08598014964) rotate(0 88.5 35.99999999999994)"><text x="0" y="19" font-family="Cascadia, Segoe UI Emoji" font-size="20px" fill="#c92a2a" text-anchor="start" style="white-space: pre;" direction="ltr">def = { hours }</text><text x="0" y="43" font-family="Cascadia, Segoe UI Emoji" font-size="20px" fill="#c92a2a" text-anchor="start" style="white-space: pre;" direction="ltr">p-use = { }</text><text x="0" y="67" font-family="Cascadia, Segoe UI Emoji" font-size="20px" fill="#c92a2a" text-anchor="start" style="white-space: pre;" direction="ltr">c-use= { m }</text></g><g transform="translate(531.3106871491748 828.6770050149371) rotate(0 100 36)"><text x="0" y="19" font-family="Cascadia, Segoe UI Emoji" font-size="20px" fill="#c92a2a" text-anchor="start" style="white-space: pre;" direction="ltr">def = { minutes }</text><text x="0" y="43" font-family="Cascadia, Segoe UI Emoji" font-size="20px" fill="#c92a2a" text-anchor="start" style="white-space: pre;" direction="ltr">p-use = { }</text><text x="0" y="67" font-family="Cascadia, Segoe UI Emoji" font-size="20px" fill="#c92a2a" text-anchor="start" style="white-space: pre;" direction="ltr">c-use= { m }</text></g><g transform="translate(534.4207006826066 932.9460297169658) rotate(0 100 36)"><text x="0" y="19" font-family="Cascadia, Segoe UI Emoji" font-size="20px" fill="#c92a2a" text-anchor="start" style="white-space: pre;" direction="ltr">def = { seconds }</text><text x="0" y="43" font-family="Cascadia, Segoe UI Emoji" font-size="20px" fill="#c92a2a" text-anchor="start" style="white-space: pre;" direction="ltr">p-use = { }</text><text x="0" y="67" font-family="Cascadia, Segoe UI Emoji" font-size="20px" fill="#c92a2a" text-anchor="start" style="white-space: pre;" direction="ltr">c-use= { m }</text></g><g transform="translate(536.321065319999 1050.9505960157019) rotate(0 141 48)"><text x="0" y="19" font-family="Cascadia, Segoe UI Emoji" font-size="20px" fill="#c92a2a" text-anchor="start" style="white-space: pre;" direction="ltr">def = { }</text><text x="0" y="43" font-family="Cascadia, Segoe UI Emoji" font-size="20px" fill="#c92a2a" text-anchor="start" style="white-space: pre;" direction="ltr">p-use = { }</text><text x="0" y="67" font-family="Cascadia, Segoe UI Emoji" font-size="20px" fill="#c92a2a" text-anchor="start" style="white-space: pre;" direction="ltr">c-use= { hours, minutes,</text><text x="0" y="91" font-family="Cascadia, Segoe UI Emoji" font-size="20px" fill="#c92a2a" text-anchor="start" style="white-space: pre;" direction="ltr">         seconds }</text></g><g stroke-linecap="round" transform="translate(11.727725246847967 117.73908943049054) rotate(0 27.298259260496934 27.298259260496934)"><path d="M0 0 C17 0, 34 0, 54.6 0 M54.6 0 C54.6 20.39, 54.6 40.78, 54.6 54.6 M54.6 54.6 C36.33 54.6, 18.07 54.6, 0 54.6 M0 54.6 C0 41.24, 0 27.88, 0 0" stroke="#000000" stroke-width="1.5" fill="none" stroke-dasharray="8 9"></path></g><g transform="translate(32.0259845073449 133.03734869098747) rotate(0 7 12)"><text x="7" y="19" font-family="Cascadia, Segoe UI Emoji" font-size="20px" fill="#000000" text-anchor="middle" style="white-space: pre;" direction="ltr">1</text></g><g stroke-linecap="round" transform="translate(10 231.42423056852135) rotate(0 27.298259260496934 27.298259260496934)"><path d="M0 0 C21.45 0, 42.89 0, 54.6 0 M54.6 0 C54.6 15.22, 54.6 30.45, 54.6 54.6 M54.6 54.6 C36.42 54.6, 18.25 54.6, 0 54.6 M0 54.6 C0 43.31, 0 32.02, 0 0" stroke="#000000" stroke-width="1.5" fill="none" stroke-dasharray="8 9"></path></g><g transform="translate(30.298259260496707 246.7224898290183) rotate(0 7 12)"><text x="7" y="19" font-family="Cascadia, Segoe UI Emoji" font-size="20px" fill="#000000" text-anchor="middle" style="white-space: pre;" direction="ltr">2</text></g><g stroke-linecap="round" transform="translate(13.455476856892801 370.3344160335431) rotate(0 27.298259260496934 27.298259260496934)"><path d="M0 0 C21.52 0, 43.04 0, 54.6 0 M54.6 0 C54.6 17.64, 54.6 35.27, 54.6 54.6 M54.6 54.6 C39.03 54.6, 23.47 54.6, 0 54.6 M0 54.6 C0 39.28, 0 23.96, 0 0" stroke="#000000" stroke-width="1.5" fill="none" stroke-dasharray="8 9"></path></g><g transform="translate(33.75373611738996 385.63267529404004) rotate(0 7 12)"><text x="7" y="19" font-family="Cascadia, Segoe UI Emoji" font-size="20px" fill="#000000" text-anchor="middle" style="white-space: pre;" direction="ltr">3</text></g><g stroke-linecap="round" transform="translate(124.89457912850025 575.7625573569538) rotate(0 27.298259260496934 27.298259260496934)"><path d="M0 0 C21.52 0, 43.04 0, 54.6 0 M54.6 0 C54.6 12.98, 54.6 25.96, 54.6 54.6 M54.6 54.6 C33.32 54.6, 12.05 54.6, 0 54.6 M0 54.6 C0 35.88, 0 17.17, 0 0" stroke="#000000" stroke-width="1.5" fill="none" stroke-dasharray="8 9"></path></g><g transform="translate(145.19283838899696 591.0608166174508) rotate(0 7 12)"><text x="7" y="19" font-family="Cascadia, Segoe UI Emoji" font-size="20px" fill="#000000" text-anchor="middle" style="white-space: pre;" direction="ltr">4</text></g><g stroke-linecap="round" transform="translate(932.3001282363055 566.4328067518169) rotate(0 27.298259260496934 27.298259260496934)"><path d="M0 0 C19.62 0, 39.24 0, 54.6 0 M54.6 0 C54.6 15.52, 54.6 31.03, 54.6 54.6 M54.6 54.6 C35.97 54.6, 17.35 54.6, 0 54.6 M0 54.6 C0 43.51, 0 32.42, 0 0" stroke="#000000" stroke-width="1.5" fill="none" stroke-dasharray="8 9"></path></g><g transform="translate(952.5983874968026 581.7310660123138) rotate(0 7 12)"><text x="7" y="19" font-family="Cascadia, Segoe UI Emoji" font-size="20px" fill="#000000" text-anchor="middle" style="white-space: pre;" direction="ltr">5</text></g><g stroke-linecap="round" transform="translate(21.748573859682892 733.5482376990005) rotate(0 27.298259260496934 27.298259260496934)"><path d="M0 0 C16.06 0, 32.11 0, 54.6 0 M54.6 0 C54.6 18.4, 54.6 36.79, 54.6 54.6 M54.6 54.6 C39.98 54.6, 25.37 54.6, 0 54.6 M0 54.6 C0 38.65, 0 22.71, 0 0" stroke="#000000" stroke-width="1.5" fill="none" stroke-dasharray="8 9"></path></g><g transform="translate(42.046833120180054 748.8464969594975) rotate(0 7 12)"><text x="7" y="19" font-family="Cascadia, Segoe UI Emoji" font-size="20px" fill="#000000" text-anchor="middle" style="white-space: pre;" direction="ltr">6</text></g><g stroke-linecap="round" transform="translate(18.941051639850457 836.348674191571) rotate(0 27.298259260496934 27.298259260496934)"><path d="M0 0 C19.13 0, 38.26 0, 54.6 0 M54.6 0 C54.6 16.09, 54.6 32.18, 54.6 54.6 M54.6 54.6 C39.27 54.6, 23.93 54.6, 0 54.6 M0 54.6 C0 39.6, 0 24.6, 0 0" stroke="#000000" stroke-width="1.5" fill="none" stroke-dasharray="8 9"></path></g><g transform="translate(39.239310900347164 851.646933452068) rotate(0 7 12)"><text x="7" y="19" font-family="Cascadia, Segoe UI Emoji" font-size="20px" fill="#000000" text-anchor="middle" style="white-space: pre;" direction="ltr">7</text></g><g stroke-linecap="round" transform="translate(17.040528823280738 939.6242545698822) rotate(0 27.298259260496934 27.298259260496934)"><path d="M0 0 C15.42 0, 30.84 0, 54.6 0 M54.6 0 C54.6 12.1, 54.6 24.2, 54.6 54.6 M54.6 54.6 C41.34 54.6, 28.08 54.6, 0 54.6 M0 54.6 C0 39.35, 0 24.1, 0 0" stroke="#000000" stroke-width="1.5" fill="none" stroke-dasharray="8 9"></path></g><g transform="translate(37.338788083777445 954.9225138303791) rotate(0 7 12)"><text x="7" y="19" font-family="Cascadia, Segoe UI Emoji" font-size="20px" fill="#000000" text-anchor="middle" style="white-space: pre;" direction="ltr">8</text></g><g stroke-linecap="round" transform="translate(17.904398037503597 1057.4991930327312) rotate(0 27.298259260496934 27.298259260496934)"><path d="M0 0 C16.5 0, 32.99 0, 54.6 0 M54.6 0 C54.6 18.33, 54.6 36.65, 54.6 54.6 M54.6 54.6 C39.08 54.6, 23.56 54.6, 0 54.6 M0 54.6 C0 38.72, 0 22.83, 0 0" stroke="#000000" stroke-width="1.5" fill="none" stroke-dasharray="8 9"></path></g><g transform="translate(38.20265729800076 1072.7974522932282) rotate(0 7 12)"><text x="7" y="19" font-family="Cascadia, Segoe UI Emoji" font-size="20px" fill="#000000" text-anchor="middle" style="white-space: pre;" direction="ltr">9</text></g><g transform="translate(331.6643646312791 516.1421895009561) rotate(0 118 12)"><text x="0" y="19" font-family="Cascadia, Segoe UI Emoji" font-size="20px" fill="#000000" text-anchor="start" style="white-space: pre;" direction="ltr">!m.matches() == true</text></g><g transform="translate(321.40804360383345 683.2386603267142) rotate(0 124 12)"><text x="0" y="19" font-family="Cascadia, Segoe UI Emoji" font-size="20px" fill="#000000" text-anchor="start" style="white-space: pre;" direction="ltr">!m.matches() == false</text></g><g stroke-linecap="round" transform="translate(191.80394409932046 1178.5432452044) rotate(0 91.60003662109375 31.199996948242188)"><path d="M15.6 0 M15.6 0 C74.57 0, 133.54 0, 167.6 0 M15.6 0 C50.63 0, 85.65 0, 167.6 0 M167.6 0 C178 0, 183.2 5.2, 183.2 15.6 M167.6 0 C178 0, 183.2 5.2, 183.2 15.6 M183.2 15.6 C183.2 26.29, 183.2 36.98, 183.2 46.8 M183.2 15.6 C183.2 26.26, 183.2 36.92, 183.2 46.8 M183.2 46.8 C183.2 57.2, 178 62.4, 167.6 62.4 M183.2 46.8 C183.2 57.2, 178 62.4, 167.6 62.4 M167.6 62.4 C113.5 62.4, 59.4 62.4, 15.6 62.4 M167.6 62.4 C120.67 62.4, 73.74 62.4, 15.6 62.4 M15.6 62.4 C5.2 62.4, 0 57.2, 0 46.8 M15.6 62.4 C5.2 62.4, 0 57.2, 0 46.8 M0 46.8 C0 38.78, 0 30.75, 0 15.6 M0 46.8 C0 39.76, 0 32.73, 0 15.6 M0 15.6 C0 5.2, 5.2 0, 15.6 0 M0 15.6 C0 5.2, 5.2 0, 15.6 0" stroke="#000000" stroke-width="1" fill="none"></path></g><g transform="translate(264.9039807204142 1197.743242152642) rotate(0 18.5 12)"><text x="18.5" y="19" font-family="Cascadia, Segoe UI Emoji" font-size="20px" fill="#000000" text-anchor="middle" style="white-space: pre;" direction="ltr">End</text></g><g stroke-linecap="round"><g transform="translate(290.3680440540461 1126.0602395333376) rotate(0 -4.436401468410622e-9 25.74150283553115)"><path d="M0 0 C0 8.58, 0 42.9, 0 51.48 M0 0 C0 8.58, 0 42.9, 0 51.48" stroke="#000000" stroke-width="1" fill="none"></path></g><g transform="translate(290.3680440540461 1126.0602395333376) rotate(0 -4.436401468410622e-9 25.74150283553115)"><path d="M0 51.48 L-6.34 37.89 L6.34 37.89 L0 51.48" stroke="none" stroke-width="0" fill="#000000" fill-rule="evenodd"></path><path d="M0 51.48 C-2.52 46.07, -5.05 40.66, -6.34 37.89 M0 51.48 C-2.19 46.79, -4.38 42.1, -6.34 37.89 M-6.34 37.89 C-3.7 37.89, -1.05 37.89, 6.34 37.89 M-6.34 37.89 C-3.6 37.89, -0.86 37.89, 6.34 37.89 M6.34 37.89 C4 42.91, 1.66 47.93, 0 51.48 M6.34 37.89 C4.16 42.56, 1.98 47.24, 0 51.48 M0 51.48 C0 51.48, 0 51.48, 0 51.48 M0 51.48 C0 51.48, 0 51.48, 0 51.48" stroke="#000000" stroke-width="1" fill="none"></path></g></g><g stroke-linecap="round"><g transform="translate(862.9509237460916 642.6001586914062) rotate(0 -243.6463602559213 285.8077980976557)"><path d="M0 0 C0 171.29, 0 342.58, 0 571.62 M0 0 C0 195.49, 0 390.98, 0 571.62 M0 571.62 C-103.94 571.62, -207.89 571.62, -487.29 571.62 M0 571.62 C-172.12 571.62, -344.25 571.62, -487.29 571.62" stroke="#000000" stroke-width="1" fill="none"></path></g><g transform="translate(862.9509237460916 642.6001586914062) rotate(0 -243.6463602559213 285.8077980976557)"><path d="M-487.29 571.62 L-473.7 565.28 L-473.7 577.95 L-487.29 571.62" stroke="none" stroke-width="0" fill="#000000" fill-rule="evenodd"></path><path d="M-487.29 571.62 C-483.22 569.72, -479.15 567.82, -473.7 565.28 M-487.29 571.62 C-482.64 569.45, -477.99 567.28, -473.7 565.28 M-473.7 565.28 C-473.7 567.98, -473.7 570.69, -473.7 577.95 M-473.7 565.28 C-473.7 569.75, -473.7 574.23, -473.7 577.95 M-473.7 577.95 C-477.59 576.14, -481.48 574.33, -487.29 571.62 M-473.7 577.95 C-479.06 575.46, -484.42 572.96, -487.29 571.62 M-487.29 571.62 C-487.29 571.62, -487.29 571.62, -487.29 571.62 M-487.29 571.62 C-487.29 571.62, -487.29 571.62, -487.29 571.62" stroke="#000000" stroke-width="1" fill="none"></path></g></g></svg>