<svg version="1.1" xmlns="http://www.w3.org/2000/svg" viewBox="0 0 1289.5381669221415 1448.8261451788585" width="1289.5381669221415" height="1448.8261451788585">
  <!-- svg-source:excalidraw -->
  
  <defs>
    <style class="style-fonts">
      @font-face {
        font-family: "Virgil";
        src: url("https://excalidraw.com/Virgil.woff2");
      }
      @font-face {
        font-family: "Cascadia";
        src: url("https://excalidraw.com/Cascadia.woff2");
      }
    </style>
  </defs>
  <rect x="0" y="0" width="1289.5381669221415" height="1448.8261451788585" fill="#ffffff"></rect><g stroke-linecap="round" transform="translate(207.9190530292576 10) rotate(0 91.60003662109375 31.199996948242188)"><path d="M15.6 0 M15.6 0 C67.01 0, 118.41 0, 167.6 0 M15.6 0 C62.89 0, 110.18 0, 167.6 0 M167.6 0 C178 0, 183.2 5.2, 183.2 15.6 M167.6 0 C178 0, 183.2 5.2, 183.2 15.6 M183.2 15.6 C183.2 27.82, 183.2 40.04, 183.2 46.8 M183.2 15.6 C183.2 26.8, 183.2 38, 183.2 46.8 M183.2 46.8 C183.2 57.2, 178 62.4, 167.6 62.4 M183.2 46.8 C183.2 57.2, 178 62.4, 167.6 62.4 M167.6 62.4 C127.98 62.4, 88.36 62.4, 15.6 62.4 M167.6 62.4 C118.03 62.4, 68.45 62.4, 15.6 62.4 M15.6 62.4 C5.2 62.4, 0 57.2, 0 46.8 M15.6 62.4 C5.2 62.4, 0 57.2, 0 46.8 M0 46.8 C0 39.79, 0 32.78, 0 15.6 M0 46.8 C0 37.22, 0 27.63, 0 15.6 M0 15.6 C0 5.2, 5.2 0, 15.6 0 M0 15.6 C0 5.2, 5.2 0, 15.6 0" stroke="#000000" stroke-width="1" fill="none"></path></g><g transform="translate(269.01908965035136 29.199996948242188) rotate(0 30.5 12)"><text x="30.5" y="19" font-family="Cascadia, Segoe UI Emoji" font-size="20px" fill="#000000" text-anchor="middle" style="white-space: pre;" direction="ltr">Start</text></g><g stroke-linecap="round" transform="translate(95.20950958431649 126.88752270082477) rotate(0 207.5 53)"><path d="M0 0 C135.41 0, 270.81 0, 415 0 M0 0 C164.36 0, 328.73 0, 415 0 M415 0 C415 27.91, 415 55.81, 415 106 M415 0 C415 25.9, 415 51.8, 415 106 M415 106 C251.82 106, 88.65 106, 0 106 M415 106 C250.26 106, 85.53 106, 0 106 M0 106 C0 76.81, 0 47.62, 0 0 M0 106 C0 74.76, 0 43.52, 0 0" stroke="#000000" stroke-width="1" fill="none"></path></g><g transform="translate(103.20950958431649 143.88752270082477) rotate(0 199.5 36)"><text x="199.5" y="19" font-family="Cascadia, Segoe UI Emoji" font-size="20px" fill="#000000" text-anchor="middle" style="white-space: pre;" direction="ltr">addXmlElement(TransformerHandler </text><text x="199.5" y="43" font-family="Cascadia, Segoe UI Emoji" font-size="20px" fill="#000000" text-anchor="middle" style="white-space: pre;" direction="ltr">hd, String element, AttributesImpl</text><text x="199.5" y="67" font-family="Cascadia, Segoe UI Emoji" font-size="20px" fill="#000000" text-anchor="middle" style="white-space: pre;" direction="ltr">atts, Object data)</text></g><g stroke-linecap="round"><g transform="translate(301.388391354169 73.55936453420361) rotate(0 0.32505210067074586 26.164079083310583)"><path d="M0 0 C0.2 16.06, 0.4 32.12, 0.65 52.33 M0 0 C0.14 11.12, 0.28 22.25, 0.65 52.33" stroke="#000000" stroke-width="1" fill="none"></path></g><g transform="translate(301.388391354169 73.55936453420361) rotate(0 0.32505210067074586 26.164079083310583)"><path d="M0.65 52.33 L-5.86 38.81 L6.82 38.66 L0.65 52.33" stroke="none" stroke-width="0" fill="#000000" fill-rule="evenodd"></path><path d="M0.65 52.33 C-1.35 48.18, -3.34 44.03, -5.86 38.81 M0.65 52.33 C-0.73 49.46, -2.12 46.58, -5.86 38.81 M-5.86 38.81 C-0.97 38.75, 3.93 38.69, 6.82 38.66 M-5.86 38.81 C-2.87 38.78, 0.11 38.74, 6.82 38.66 M6.82 38.66 C5.33 41.97, 3.83 45.28, 0.65 52.33 M6.82 38.66 C4.8 43.13, 2.78 47.61, 0.65 52.33 M0.65 52.33 C0.65 52.33, 0.65 52.33, 0.65 52.33 M0.65 52.33 C0.65 52.33, 0.65 52.33, 0.65 52.33" stroke="#000000" stroke-width="1" fill="none"></path></g></g><g stroke-linecap="round" transform="translate(206.43531274106317 326.4011839598786) rotate(0 94.5 94.40005493164062)"><path d="M95 0 C116.94 22.17, 138.87 44.34, 189 95 M95 0 C120.31 25.58, 145.62 51.16, 189 95 M189 95 C162.74 121.21, 136.48 147.41, 95 188.8 M189 95 C162.54 121.4, 136.08 147.81, 95 188.8 M95 188.8 C65.65 159.82, 36.3 130.84, 0 95 M95 188.8 C62.94 157.14, 30.88 125.49, 0 95 M0 95 C34.67 60.33, 69.34 25.66, 95 0 M0 95 C19.67 75.33, 39.34 55.66, 95 0" stroke="#000000" stroke-width="1" fill="none"></path></g><g transform="translate(229.43531274106317 408.80123889151923) rotate(0 71.5 12)"><text x="71.5" y="19" font-family="Cascadia, Segoe UI Emoji" font-size="20px" fill="#000000" text-anchor="middle" style="white-space: pre;" direction="ltr">atts == null</text></g><g stroke-linecap="round"><g transform="translate(301.09479275345575 233.88752270082477) rotate(0 0 45.76323005070651)"><path d="M0 0 C0 31.28, 0 62.56, 0 91.53 M0 0 C0 23.22, 0 46.43, 0 91.53" stroke="#000000" stroke-width="1" fill="none"></path></g><g transform="translate(301.09479275345575 233.88752270082477) rotate(0 0 45.76323005070651)"><path d="M0 91.53 L-6.34 77.93 L6.34 77.93 L0 91.53" stroke="none" stroke-width="0" fill="#000000" fill-rule="evenodd"></path><path d="M0 91.53 C-2.17 86.88, -4.33 82.23, -6.34 77.93 M0 91.53 C-1.61 88.08, -3.22 84.63, -6.34 77.93 M-6.34 77.93 C-2.96 77.93, 0.43 77.93, 6.34 77.93 M-6.34 77.93 C-1.79 77.93, 2.75 77.93, 6.34 77.93 M6.34 77.93 C4.39 82.12, 2.44 86.3, 0 91.53 M6.34 77.93 C3.92 83.11, 1.51 88.29, 0 91.53 M0 91.53 C0 91.53, 0 91.53, 0 91.53 M0 91.53 C0 91.53, 0 91.53, 0 91.53" stroke="#000000" stroke-width="1" fill="none"></path></g></g><g stroke-linecap="round" transform="translate(633.7204304015168 377.8064236719906) rotate(0 211.5 44)"><path d="M0 0 C102.09 0, 204.19 0, 423 0 M0 0 C155.54 0, 311.08 0, 423 0 M423 0 C423 21.83, 423 43.66, 423 88 M423 0 C423 22.5, 423 45.01, 423 88 M423 88 C254.55 88, 86.1 88, 0 88 M423 88 C337.72 88, 252.45 88, 0 88 M0 88 C0 58.07, 0 28.14, 0 0 M0 88 C0 55.23, 0 22.45, 0 0" stroke="#000000" stroke-width="1" fill="none"></path></g><g transform="translate(680.2204304015168 409.8064236719906) rotate(0 165 12)"><text x="165" y="19" font-family="Cascadia, Segoe UI Emoji" font-size="20px" fill="#000000" text-anchor="middle" style="white-space: pre;" direction="ltr">atts = new AttributesImpl();</text></g><g stroke-linecap="round"><g transform="translate(394.7506734411222 421.3634118514135) rotate(0 119.29846031434727 0)"><path d="M0 0 C72.87 0, 145.74 0, 238.6 0 M0 0 C83.58 0, 167.16 0, 238.6 0" stroke="#000000" stroke-width="1" fill="none"></path></g><g transform="translate(394.7506734411222 421.3634118514135) rotate(0 119.29846031434727 0)"><path d="M238.6 0 L225 6.34 L225 -6.34 L238.6 0" stroke="none" stroke-width="0" fill="#000000" fill-rule="evenodd"></path><path d="M238.6 0 C234.44 1.94, 230.29 3.87, 225 6.34 M238.6 0 C233.83 2.22, 229.07 4.44, 225 6.34 M225 6.34 C225 1.77, 225 -2.8, 225 -6.34 M225 6.34 C225 1.63, 225 -3.09, 225 -6.34 M225 -6.34 C228.52 -4.7, 232.04 -3.06, 238.6 0 M225 -6.34 C229.09 -4.43, 233.17 -2.53, 238.6 0 M238.6 0 C238.6 0, 238.6 0, 238.6 0 M238.6 0 C238.6 0, 238.6 0, 238.6 0" stroke="#000000" stroke-width="1" fill="none"></path></g></g><g stroke-linecap="round" transform="translate(95.52864183629572 595.316905778604) rotate(0 206.5 36)"><path d="M0 0 C112.58 0, 225.16 0, 413 0 M0 0 C125.74 0, 251.48 0, 413 0 M413 0 C413 22.78, 413 45.56, 413 72 M413 0 C413 17.66, 413 35.33, 413 72 M413 72 C274.28 72, 135.57 72, 0 72 M413 72 C301.95 72, 190.9 72, 0 72 M0 72 C0 57.41, 0 42.81, 0 0 M0 72 C0 54.44, 0 36.89, 0 0" stroke="#000000" stroke-width="1" fill="none"></path></g><g transform="translate(108.02864183629572 607.316905778604) rotate(0 194 24)"><text x="194" y="19" font-family="Cascadia, Segoe UI Emoji" font-size="20px" fill="#000000" text-anchor="middle" style="white-space: pre;" direction="ltr">hd.startElement("", "", element, </text><text x="194" y="43" font-family="Cascadia, Segoe UI Emoji" font-size="20px" fill="#000000" text-anchor="middle" style="white-space: pre;" direction="ltr">atts);</text></g><g stroke-linecap="round"><g transform="translate(300.7736819881752 515.0451822457317) rotate(0 0 38.97868701036725)"><path d="M0 0 C0 18.13, 0 36.26, 0 77.96 M0 0 C0 21.18, 0 42.36, 0 77.96" stroke="#000000" stroke-width="1" fill="none"></path></g><g transform="translate(300.7736819881752 515.0451822457317) rotate(0 0 38.97868701036725)"><path d="M0 77.96 L-6.34 64.36 L6.34 64.36 L0 77.96" stroke="none" stroke-width="0" fill="#000000" fill-rule="evenodd"></path><path d="M0 77.96 C-1.47 74.8, -2.95 71.63, -6.34 64.36 M0 77.96 C-1.72 74.26, -3.44 70.57, -6.34 64.36 M-6.34 64.36 C-1.66 64.36, 3.02 64.36, 6.34 64.36 M-6.34 64.36 C-2.73 64.36, 0.88 64.36, 6.34 64.36 M6.34 64.36 C4.29 68.76, 2.24 73.16, 0 77.96 M6.34 64.36 C4.04 69.29, 1.74 74.22, 0 77.96 M0 77.96 C0 77.96, 0 77.96, 0 77.96 M0 77.96 C0 77.96, 0 77.96, 0 77.96" stroke="#000000" stroke-width="1" fill="none"></path></g></g><g stroke-linecap="round"><g transform="translate(860.280309044233 466.61707833501896) rotate(0 -277.57556258090267 40.159886651990064)"><path d="M0 0 C0 22.05, 0 44.09, 0 80.32 M0 0 C0 30.59, 0 61.17, 0 80.32 M0 80.32 C-151.85 80.32, -303.71 80.32, -555.15 80.32 M0 80.32 C-183.41 80.32, -366.81 80.32, -555.15 80.32" stroke="#000000" stroke-width="1" fill="none"></path></g><g transform="translate(860.280309044233 466.61707833501896) rotate(0 -277.57556258090267 40.159886651990064)"><path d="M-555.15 80.32 L-541.56 73.98 L-541.56 86.66 L-555.15 80.32" stroke="none" stroke-width="0" fill="#000000" fill-rule="evenodd"></path><path d="M-555.15 80.32 C-551.42 78.58, -547.69 76.84, -541.56 73.98 M-555.15 80.32 C-549.97 77.91, -544.8 75.49, -541.56 73.98 M-541.56 73.98 C-541.56 77.45, -541.56 80.92, -541.56 86.66 M-541.56 73.98 C-541.56 78.17, -541.56 82.36, -541.56 86.66 M-541.56 86.66 C-545.17 84.97, -548.79 83.29, -555.15 80.32 M-541.56 86.66 C-546.84 84.2, -552.11 81.74, -555.15 80.32 M-555.15 80.32 C-555.15 80.32, -555.15 80.32, -555.15 80.32 M-555.15 80.32 C-555.15 80.32, -555.15 80.32, -555.15 80.32" stroke="#000000" stroke-width="1" fill="none"></path></g></g><g stroke-linecap="round" transform="translate(205.9782806969124 735.2061391198772) rotate(0 94.5 94.40005493164062)"><path d="M95 0 C130.63 36.01, 166.26 72.02, 189 95 M95 0 C129.29 34.65, 163.58 69.31, 189 95 M189 95 C155.56 128.37, 122.11 161.75, 95 188.8 M189 95 C163.19 120.76, 137.37 146.52, 95 188.8 M95 188.8 C71.88 165.97, 48.76 143.15, 0 95 M95 188.8 C71.31 165.41, 47.62 142.02, 0 95 M0 95 C24.99 70.01, 49.98 45.02, 95 0 M0 95 C27.48 67.52, 54.97 40.03, 95 0" stroke="#000000" stroke-width="1" fill="none"></path></g><g transform="translate(228.9782806969124 817.6061940515178) rotate(0 71.5 12)"><text x="71.5" y="19" font-family="Cascadia, Segoe UI Emoji" font-size="20px" fill="#000000" text-anchor="middle" style="white-space: pre;" direction="ltr">data != null</text></g><g stroke-linecap="round"><g transform="translate(300.4782806969124 668.316905778604) rotate(0 0 32.954795634028414)"><path d="M0 0 C0 20.46, 0 40.92, 0 65.91 M0 0 C0 15.37, 0 30.74, 0 65.91" stroke="#000000" stroke-width="1" fill="none"></path></g><g transform="translate(300.4782806969124 668.316905778604) rotate(0 0 32.954795634028414)"><path d="M0 65.91 L-6.34 52.31 L6.34 52.31 L0 65.91" stroke="none" stroke-width="0" fill="#000000" fill-rule="evenodd"></path><path d="M0 65.91 C-1.97 61.69, -3.94 57.47, -6.34 52.31 M0 65.91 C-1.48 62.74, -2.96 59.57, -6.34 52.31 M-6.34 52.31 C-1.47 52.31, 3.4 52.31, 6.34 52.31 M-6.34 52.31 C-1.5 52.31, 3.35 52.31, 6.34 52.31 M6.34 52.31 C4.39 56.49, 2.44 60.67, 0 65.91 M6.34 52.31 C4.04 57.24, 1.74 62.17, 0 65.91 M0 65.91 C0 65.91, 0 65.91, 0 65.91 M0 65.91 C0 65.91, 0 65.91, 0 65.91" stroke="#000000" stroke-width="1" fill="none"></path></g></g><g stroke-linecap="round" transform="translate(634.606273810034 786.196861459568) rotate(0 211.5 44)"><path d="M0 0 C156.73 0, 313.46 0, 423 0 M0 0 C154.56 0, 309.13 0, 423 0 M423 0 C423 20.8, 423 41.61, 423 88 M423 0 C423 29.1, 423 58.2, 423 88 M423 88 C312.36 88, 201.72 88, 0 88 M423 88 C282.64 88, 142.28 88, 0 88 M0 88 C0 65.43, 0 42.87, 0 0 M0 88 C0 60.3, 0 32.6, 0 0" stroke="#000000" stroke-width="1" fill="none"></path></g><g transform="translate(651.606273810034 818.196861459568) rotate(0 194.5 12)"><text x="194.5" y="19" font-family="Cascadia, Segoe UI Emoji" font-size="20px" fill="#000000" text-anchor="middle" style="white-space: pre;" direction="ltr">String strData = data.toString();</text></g><g stroke-linecap="round"><g transform="translate(394.6029727954897 830.9350492806136) rotate(0 119.889037606079 0)"><path d="M0 0 C92.35 0, 184.71 0, 239.78 0 M0 0 C59.03 0, 118.07 0, 239.78 0" stroke="#000000" stroke-width="1" fill="none"></path></g><g transform="translate(394.6029727954897 830.9350492806136) rotate(0 119.889037606079 0)"><path d="M239.78 0 L226.18 6.34 L226.18 -6.34 L239.78 0" stroke="none" stroke-width="0" fill="#000000" fill-rule="evenodd"></path><path d="M239.78 0 C234.54 2.44, 229.31 4.88, 226.18 6.34 M239.78 0 C236.43 1.56, 233.08 3.12, 226.18 6.34 M226.18 6.34 C226.18 2.54, 226.18 -1.27, 226.18 -6.34 M226.18 6.34 C226.18 2.44, 226.18 -1.45, 226.18 -6.34 M226.18 -6.34 C230.9 -4.14, 235.61 -1.94, 239.78 0 M226.18 -6.34 C229.1 -4.98, 232.02 -3.62, 239.78 0 M239.78 0 C239.78 0, 239.78 0, 239.78 0 M239.78 0 C239.78 0, 239.78 0, 239.78 0" stroke="#000000" stroke-width="1" fill="none"></path></g></g><g stroke-linecap="round" transform="translate(634.3847678997454 1016.5827996235121) rotate(0 211.5 44)"><path d="M0 0 C97.45 0, 194.89 0, 423 0 M0 0 C134.07 0, 268.14 0, 423 0 M423 0 C423 34.15, 423 68.3, 423 88 M423 0 C423 23.83, 423 47.66, 423 88 M423 88 C269.92 88, 116.83 88, 0 88 M423 88 C297.25 88, 171.5 88, 0 88 M0 88 C0 68.19, 0 48.38, 0 0 M0 88 C0 58.2, 0 28.4, 0 0" stroke="#000000" stroke-width="1" fill="none"></path></g><g transform="translate(640.3847678997454 1036.582799623512) rotate(0 205.5 24)"><text x="205.5" y="19" font-family="Cascadia, Segoe UI Emoji" font-size="20px" fill="#000000" text-anchor="middle" style="white-space: pre;" direction="ltr">hd.characters(strData.toCharArray()</text><text x="205.5" y="43" font-family="Cascadia, Segoe UI Emoji" font-size="20px" fill="#000000" text-anchor="middle" style="white-space: pre;" direction="ltr">, 0, strData.length());</text></g><g stroke-linecap="round"><g transform="translate(863.6023570006537 874.1216276559194) rotate(0 0 70.67762559388927)"><path d="M0 0 C0 28.28, 0 56.57, 0 141.36 M0 0 C0 43.71, 0 87.42, 0 141.36" stroke="#000000" stroke-width="1" fill="none"></path></g><g transform="translate(863.6023570006537 874.1216276559194) rotate(0 0 70.67762559388927)"><path d="M0 141.36 L-6.34 127.76 L6.34 127.76 L0 141.36" stroke="none" stroke-width="0" fill="#000000" fill-rule="evenodd"></path><path d="M0 141.36 C-1.27 138.64, -2.54 135.92, -6.34 127.76 M0 141.36 C-1.96 137.15, -3.92 132.95, -6.34 127.76 M-6.34 127.76 C-3.26 127.76, -0.18 127.76, 6.34 127.76 M-6.34 127.76 C-2.03 127.76, 2.27 127.76, 6.34 127.76 M6.34 127.76 C4.46 131.79, 2.59 135.81, 0 141.36 M6.34 127.76 C4.24 132.26, 2.14 136.76, 0 141.36 M0 141.36 C0 141.36, 0 141.36, 0 141.36 M0 141.36 C0 141.36, 0 141.36, 0 141.36" stroke="#000000" stroke-width="1" fill="none"></path></g></g><g stroke-linecap="round" transform="translate(95.15943528037587 1229.3686633962718) rotate(0 206.5 36)"><path d="M0 0 C138.25 0, 276.51 0, 413 0 M0 0 C106.31 0, 212.62 0, 413 0 M413 0 C413 26.42, 413 52.84, 413 72 M413 0 C413 26.68, 413 53.36, 413 72 M413 72 C270.76 72, 128.53 72, 0 72 M413 72 C328.74 72, 244.48 72, 0 72 M0 72 C0 56.07, 0 40.14, 0 0 M0 72 C0 57.58, 0 43.16, 0 0" stroke="#000000" stroke-width="1" fill="none"></path></g><g transform="translate(119.15943528037587 1253.3686633962718) rotate(0 182.5 12)"><text x="182.5" y="19" font-family="Cascadia, Segoe UI Emoji" font-size="20px" fill="#000000" text-anchor="middle" style="white-space: pre;" direction="ltr">hd.endElement("", "", element);</text></g><g stroke-linecap="round"><g transform="translate(300.18296952196624 926.5670713495633) rotate(0 0 150.4651271775739)"><path d="M0 0 C0 63.45, 0 126.89, 0 300.93 M0 0 C0 100.07, 0 200.13, 0 300.93" stroke="#000000" stroke-width="1" fill="none"></path></g><g transform="translate(300.18296952196624 926.5670713495633) rotate(0 0 150.4651271775739)"><path d="M0 300.93 L-6.34 287.34 L6.34 287.34 L0 300.93" stroke="none" stroke-width="0" fill="#000000" fill-rule="evenodd"></path><path d="M0 300.93 C-1.34 298.06, -2.67 295.2, -6.34 287.34 M0 300.93 C-2.11 296.41, -4.22 291.89, -6.34 287.34 M-6.34 287.34 C-2.05 287.34, 2.23 287.34, 6.34 287.34 M-6.34 287.34 C-2.06 287.34, 2.22 287.34, 6.34 287.34 M6.34 287.34 C4.22 291.89, 2.1 296.44, 0 300.93 M6.34 287.34 C4.38 291.55, 2.41 295.76, 0 300.93 M0 300.93 C0 300.93, 0 300.93, 0 300.93 M0 300.93 C0 300.93, 0 300.93, 0 300.93" stroke="#000000" stroke-width="1" fill="none"></path></g></g><g stroke-linecap="round"><g transform="translate(863.6023570006537 1105.582799623512) rotate(0 -280.528494097721 33.19972480577292)"><path d="M0 0 C0 23.98, 0 47.97, 0 66.4 M0 0 C0 15.34, 0 30.68, 0 66.4 M0 66.4 C-126.63 66.4, -253.25 66.4, -561.06 66.4 M0 66.4 C-200.85 66.4, -401.7 66.4, -561.06 66.4" stroke="#000000" stroke-width="1" fill="none"></path></g><g transform="translate(863.6023570006537 1105.582799623512) rotate(0 -280.528494097721 33.19972480577292)"><path d="M-561.06 66.4 L-547.46 60.06 L-547.46 72.74 L-561.06 66.4" stroke="none" stroke-width="0" fill="#000000" fill-rule="evenodd"></path><path d="M-561.06 66.4 C-556.15 64.11, -551.24 61.82, -547.46 60.06 M-561.06 66.4 C-557.92 64.93, -554.77 63.47, -547.46 60.06 M-547.46 60.06 C-547.46 62.92, -547.46 65.78, -547.46 72.74 M-547.46 60.06 C-547.46 64.6, -547.46 69.14, -547.46 72.74 M-547.46 72.74 C-551.89 70.67, -556.32 68.61, -561.06 66.4 M-547.46 72.74 C-552.43 70.42, -557.39 68.11, -561.06 66.4 M-561.06 66.4 C-561.06 66.4, -561.06 66.4, -561.06 66.4 M-561.06 66.4 C-561.06 66.4, -561.06 66.4, -561.06 66.4" stroke="#000000" stroke-width="1" fill="none"></path></g></g><g stroke-linecap="round" transform="translate(209.321255896396 1376.4261512823741) rotate(0 91.60003662109375 31.199996948242188)"><path d="M15.6 0 M15.6 0 C53.53 0, 91.46 0, 167.6 0 M15.6 0 C56.31 0, 97.03 0, 167.6 0 M167.6 0 C178 0, 183.2 5.2, 183.2 15.6 M167.6 0 C178 0, 183.2 5.2, 183.2 15.6 M183.2 15.6 C183.2 27.29, 183.2 38.97, 183.2 46.8 M183.2 15.6 C183.2 27.96, 183.2 40.31, 183.2 46.8 M183.2 46.8 C183.2 57.2, 178 62.4, 167.6 62.4 M183.2 46.8 C183.2 57.2, 178 62.4, 167.6 62.4 M167.6 62.4 C113.99 62.4, 60.37 62.4, 15.6 62.4 M167.6 62.4 C112.76 62.4, 57.93 62.4, 15.6 62.4 M15.6 62.4 C5.2 62.4, 0 57.2, 0 46.8 M15.6 62.4 C5.2 62.4, 0 57.2, 0 46.8 M0 46.8 C0 37.15, 0 27.49, 0 15.6 M0 46.8 C0 36.36, 0 25.93, 0 15.6 M0 15.6 C0 5.2, 5.2 0, 15.6 0 M0 15.6 C0 5.2, 5.2 0, 15.6 0" stroke="#000000" stroke-width="1" fill="none"></path></g><g transform="translate(282.4212925174902 1395.6261482306163) rotate(0 18.5 12)"><text x="18.5" y="19" font-family="Cascadia, Segoe UI Emoji" font-size="20px" fill="#000000" text-anchor="middle" style="white-space: pre;" direction="ltr">End</text></g><g stroke-linecap="round"><g transform="translate(299.7400478177083 1303.0923905585182) rotate(0 0 36.616332785280974)"><path d="M0 0 C0 14.69, 0 29.37, 0 73.23 M0 0 C0 25.3, 0 50.61, 0 73.23" stroke="#000000" stroke-width="1" fill="none"></path></g><g transform="translate(299.7400478177083 1303.0923905585182) rotate(0 0 36.616332785280974)"><path d="M0 73.23 L-6.34 59.64 L6.34 59.64 L0 73.23" stroke="none" stroke-width="0" fill="#000000" fill-rule="evenodd"></path><path d="M0 73.23 C-1.27 70.51, -2.54 67.78, -6.34 59.64 M0 73.23 C-2.19 68.54, -4.38 63.84, -6.34 59.64 M-6.34 59.64 C-3.17 59.64, 0.01 59.64, 6.34 59.64 M-6.34 59.64 C-2.74 59.64, 0.87 59.64, 6.34 59.64 M6.34 59.64 C4.11 64.41, 1.89 69.18, 0 73.23 M6.34 59.64 C4.32 63.98, 2.29 68.31, 0 73.23 M0 73.23 C0 73.23, 0 73.23, 0 73.23 M0 73.23 C0 73.23, 0 73.23, 0 73.23" stroke="#000000" stroke-width="1" fill="none"></path></g></g><g stroke-linecap="round" transform="translate(10 149.11342798222574) rotate(0 27.298259260496934 27.298259260496934)"><path d="M0 0 C12.54 0, 25.08 0, 54.6 0 M54.6 0 C54.6 19.62, 54.6 39.23, 54.6 54.6 M54.6 54.6 C32.95 54.6, 11.31 54.6, 0 54.6 M0 54.6 C0 37.68, 0 20.76, 0 0" stroke="#000000" stroke-width="1.5" fill="none" stroke-dasharray="8 9"></path></g><g transform="translate(30.298259260496707 164.41168724272268) rotate(0 7 12)"><text x="7" y="19" font-family="Cascadia, Segoe UI Emoji" font-size="20px" fill="#000000" text-anchor="middle" style="white-space: pre;" direction="ltr">1</text></g><g stroke-linecap="round" transform="translate(129.15071461055595 394.80338547012116) rotate(0 27.298259260496934 27.298259260496934)"><path d="M0 0 C17.47 0, 34.93 0, 54.6 0 M54.6 0 C54.6 13.85, 54.6 27.7, 54.6 54.6 M54.6 54.6 C36.07 54.6, 17.55 54.6, 0 54.6 M0 54.6 C0 43.46, 0 32.33, 0 0" stroke="#000000" stroke-width="1.5" fill="none" stroke-dasharray="8 9"></path></g><g transform="translate(149.44897387105357 410.1016447306181) rotate(0 7 12)"><text x="7" y="19" font-family="Cascadia, Segoe UI Emoji" font-size="20px" fill="#000000" text-anchor="middle" style="white-space: pre;" direction="ltr">2</text></g><g stroke-linecap="round" transform="translate(1085.8268109112864 392.4411213613532) rotate(0 27.298259260496934 27.298259260496934)"><path d="M0 0 C20.1 0, 40.2 0, 54.6 0 M54.6 0 C54.6 18.08, 54.6 36.15, 54.6 54.6 M54.6 54.6 C41.19 54.6, 27.77 54.6, 0 54.6 M0 54.6 C0 40.5, 0 26.4, 0 0" stroke="#000000" stroke-width="1.5" fill="none" stroke-dasharray="8 9"></path></g><g transform="translate(1106.125070171784 407.73938062185016) rotate(0 7 12)"><text x="7" y="19" font-family="Cascadia, Segoe UI Emoji" font-size="20px" fill="#000000" text-anchor="middle" style="white-space: pre;" direction="ltr">3</text></g><g stroke-linecap="round" transform="translate(17.751355115327897 603.7232902850028) rotate(0 27.298259260496934 27.298259260496934)"><path d="M0 0 C10.98 0, 21.95 0, 54.6 0 M54.6 0 C54.6 15.79, 54.6 31.58, 54.6 54.6 M54.6 54.6 C43.55 54.6, 32.5 54.6, 0 54.6 M0 54.6 C0 40.23, 0 25.86, 0 0" stroke="#000000" stroke-width="1.5" fill="none" stroke-dasharray="8 9"></path></g><g transform="translate(38.04961437582551 619.0215495454997) rotate(0 7 12)"><text x="7" y="19" font-family="Cascadia, Segoe UI Emoji" font-size="20px" fill="#000000" text-anchor="middle" style="white-space: pre;" direction="ltr">4</text></g><g stroke-linecap="round" transform="translate(123.17113642858203 803.0461676702257) rotate(0 27.298259260496934 27.298259260496934)"><path d="M0 0 C20.15 0, 40.3 0, 54.6 0 M54.6 0 C54.6 12.15, 54.6 24.31, 54.6 54.6 M54.6 54.6 C39.87 54.6, 25.15 54.6, 0 54.6 M0 54.6 C0 42.72, 0 30.84, 0 0" stroke="#000000" stroke-width="1.5" fill="none" stroke-dasharray="8 9"></path></g><g transform="translate(143.46939568907874 818.3444269307224) rotate(0 7 12)"><text x="7" y="19" font-family="Cascadia, Segoe UI Emoji" font-size="20px" fill="#000000" text-anchor="middle" style="white-space: pre;" direction="ltr">5</text></g><g stroke-linecap="round" transform="translate(1088.6321318987907 801.5697019118165) rotate(0 27.298259260496934 27.298259260496934)"><path d="M0 0 C15.85 0, 31.7 0, 54.6 0 M54.6 0 C54.6 12.39, 54.6 24.78, 54.6 54.6 M54.6 54.6 C42.02 54.6, 29.45 54.6, 0 54.6 M0 54.6 C0 43.22, 0 31.84, 0 0" stroke="#000000" stroke-width="1.5" fill="none" stroke-dasharray="8 9"></path></g><g transform="translate(1108.9303911592883 816.8679611723135) rotate(0 7 12)"><text x="7" y="19" font-family="Cascadia, Segoe UI Emoji" font-size="20px" fill="#000000" text-anchor="middle" style="white-space: pre;" direction="ltr">6</text></g><g stroke-linecap="round" transform="translate(1086.2696424992268 1032.989319304389) rotate(0 27.298259260496934 27.298259260496934)"><path d="M0 0 C11.58 0, 23.17 0, 54.6 0 M54.6 0 C54.6 15.63, 54.6 31.25, 54.6 54.6 M54.6 54.6 C41.97 54.6, 29.34 54.6, 0 54.6 M0 54.6 C0 40.48, 0 26.37, 0 0" stroke="#000000" stroke-width="1.5" fill="none" stroke-dasharray="8 9"></path></g><g transform="translate(1106.5679017597245 1048.287578564886) rotate(0 7 12)"><text x="7" y="19" font-family="Cascadia, Segoe UI Emoji" font-size="20px" fill="#000000" text-anchor="middle" style="white-space: pre;" direction="ltr">7</text></g><g stroke-linecap="round" transform="translate(10.516772027074694 1237.8489432836445) rotate(0 27.298259260496934 27.298259260496934)"><path d="M0 0 C21.46 0, 42.91 0, 54.6 0 M54.6 0 C54.6 20.7, 54.6 41.39, 54.6 54.6 M54.6 54.6 C39.05 54.6, 23.51 54.6, 0 54.6 M0 54.6 C0 32.99, 0 11.37, 0 0" stroke="#000000" stroke-width="1.5" fill="none" stroke-dasharray="8 9"></path></g><g transform="translate(30.8150312875714 1253.1472025441415) rotate(0 7 12)"><text x="7" y="19" font-family="Cascadia, Segoe UI Emoji" font-size="20px" fill="#000000" text-anchor="middle" style="white-space: pre;" direction="ltr">9</text></g><g transform="translate(547.7429549816675 143.14311284925202) rotate(0 194 36)"><text x="0" y="19" font-family="Cascadia, Segoe UI Emoji" font-size="20px" fill="#c92a2a" text-anchor="start" style="white-space: pre;" direction="ltr">def = { hd, element, atts, data }</text><text x="0" y="43" font-family="Cascadia, Segoe UI Emoji" font-size="20px" fill="#c92a2a" text-anchor="start" style="white-space: pre;" direction="ltr">p-use = { }</text><text x="0" y="67" font-family="Cascadia, Segoe UI Emoji" font-size="20px" fill="#c92a2a" text-anchor="start" style="white-space: pre;" direction="ltr">c-use= { }</text></g><g transform="translate(41.32749959286048 295.1796337970394) rotate(0 94.5 36.00000000000006)"><text x="0" y="19" font-family="Cascadia, Segoe UI Emoji" font-size="20px" fill="#c92a2a" text-anchor="start" style="white-space: pre;" direction="ltr">def = { }</text><text x="0" y="43" font-family="Cascadia, Segoe UI Emoji" font-size="20px" fill="#c92a2a" text-anchor="start" style="white-space: pre;" direction="ltr">p-use = { atts }</text><text x="0" y="67" font-family="Cascadia, Segoe UI Emoji" font-size="20px" fill="#c92a2a" text-anchor="start" style="white-space: pre;" direction="ltr">c-use= { }</text></g><g transform="translate(1019.8507148517215 288.2857882360181) rotate(0 82.5 36)"><text x="0" y="19" font-family="Cascadia, Segoe UI Emoji" font-size="20px" fill="#c92a2a" text-anchor="start" style="white-space: pre;" direction="ltr">def = { atts }</text><text x="0" y="43" font-family="Cascadia, Segoe UI Emoji" font-size="20px" fill="#c92a2a" text-anchor="start" style="white-space: pre;" direction="ltr">p-use = { }</text><text x="0" y="67" font-family="Cascadia, Segoe UI Emoji" font-size="20px" fill="#c92a2a" text-anchor="start" style="white-space: pre;" direction="ltr">c-use= { }</text></g><g transform="translate(552.1062904946771 594.7999985770518) rotate(0 165 36)"><text x="0" y="19" font-family="Cascadia, Segoe UI Emoji" font-size="20px" fill="#c92a2a" text-anchor="start" style="white-space: pre;" direction="ltr">def = { }</text><text x="0" y="43" font-family="Cascadia, Segoe UI Emoji" font-size="20px" fill="#c92a2a" text-anchor="start" style="white-space: pre;" direction="ltr">p-use = { }</text><text x="0" y="67" font-family="Cascadia, Segoe UI Emoji" font-size="20px" fill="#c92a2a" text-anchor="start" style="white-space: pre;" direction="ltr">c-use= { hd, element, atts }</text></g><g transform="translate(37.92952472639354 712.1790714287315) rotate(0 94.5 36)"><text x="0" y="19" font-family="Cascadia, Segoe UI Emoji" font-size="20px" fill="#c92a2a" text-anchor="start" style="white-space: pre;" direction="ltr">def = { }</text><text x="0" y="43" font-family="Cascadia, Segoe UI Emoji" font-size="20px" fill="#c92a2a" text-anchor="start" style="white-space: pre;" direction="ltr">p-use = { data }</text><text x="0" y="67" font-family="Cascadia, Segoe UI Emoji" font-size="20px" fill="#c92a2a" text-anchor="start" style="white-space: pre;" direction="ltr">c-use= { }</text></g><g transform="translate(1020.5150523499519 695.9380832607089) rotate(0 100 36)"><text x="0" y="19" font-family="Cascadia, Segoe UI Emoji" font-size="20px" fill="#c92a2a" text-anchor="start" style="white-space: pre;" direction="ltr">def = { strData }</text><text x="0" y="43" font-family="Cascadia, Segoe UI Emoji" font-size="20px" fill="#c92a2a" text-anchor="start" style="white-space: pre;" direction="ltr">p-use = { }</text><text x="0" y="67" font-family="Cascadia, Segoe UI Emoji" font-size="20px" fill="#c92a2a" text-anchor="start" style="white-space: pre;" direction="ltr">c-use= { data }</text></g><g transform="translate(1019.5381669221415 924.2453549171855) rotate(0 130 36)"><text x="0" y="19" font-family="Cascadia, Segoe UI Emoji" font-size="20px" fill="#c92a2a" text-anchor="start" style="white-space: pre;" direction="ltr">def = { }</text><text x="0" y="43" font-family="Cascadia, Segoe UI Emoji" font-size="20px" fill="#c92a2a" text-anchor="start" style="white-space: pre;" direction="ltr">p-use = { }</text><text x="0" y="67" font-family="Cascadia, Segoe UI Emoji" font-size="20px" fill="#c92a2a" text-anchor="start" style="white-space: pre;" direction="ltr">c-use= { hd, strData }</text></g><g transform="translate(541.7710301858147 1229.9592406880038) rotate(0 130 36)"><text x="0" y="19" font-family="Cascadia, Segoe UI Emoji" font-size="20px" fill="#c92a2a" text-anchor="start" style="white-space: pre;" direction="ltr">def = { }</text><text x="0" y="43" font-family="Cascadia, Segoe UI Emoji" font-size="20px" fill="#c92a2a" text-anchor="start" style="white-space: pre;" direction="ltr">p-use = { }</text><text x="0" y="67" font-family="Cascadia, Segoe UI Emoji" font-size="20px" fill="#c92a2a" text-anchor="start" style="white-space: pre;" direction="ltr">c-use= { hd, element }</text></g><g transform="translate(396.77275349461524 346.7042123742408) rotate(0 71.5 12)"><text x="0" y="19" font-family="Cascadia, Segoe UI Emoji" font-size="20px" fill="#000000" text-anchor="start" style="white-space: pre;" direction="ltr">atts == null</text></g><g transform="translate(440.5498275017494 382.6091623554787) rotate(0 24.5 12)"><text x="0" y="19" font-family="Cascadia, Segoe UI Emoji" font-size="20px" fill="#000000" text-anchor="start" style="white-space: pre;" direction="ltr">true</text></g><g transform="translate(119.63903748305529 511.4768080449853) rotate(0 71.5 12)"><text x="0" y="19" font-family="Cascadia, Segoe UI Emoji" font-size="20px" fill="#000000" text-anchor="start" style="white-space: pre;" direction="ltr">atts != null</text></g><g transform="translate(170.01715429272554 550.1364123092296) rotate(0 30.5 12)"><text x="0" y="19" font-family="Cascadia, Segoe UI Emoji" font-size="20px" fill="#000000" text-anchor="start" style="white-space: pre;" direction="ltr">false</text></g><g transform="translate(416.8113730218479 745.7502585956181) rotate(0 71.5 12)"><text x="0" y="19" font-family="Cascadia, Segoe UI Emoji" font-size="20px" fill="#000000" text-anchor="start" style="white-space: pre;" direction="ltr">data != null</text></g><g transform="translate(460.5884470289816 781.6552085768562) rotate(0 24.5 12)"><text x="0" y="19" font-family="Cascadia, Segoe UI Emoji" font-size="20px" fill="#000000" text-anchor="start" style="white-space: pre;" direction="ltr">true</text></g><g transform="translate(127.42719346569129 946.930390202785) rotate(0 71.5 12)"><text x="0" y="19" font-family="Cascadia, Segoe UI Emoji" font-size="20px" fill="#000000" text-anchor="start" style="white-space: pre;" direction="ltr">data == null</text></g><g transform="translate(171.2042674728259 982.8353401840227) rotate(0 30.5 12)"><text x="0" y="19" font-family="Cascadia, Segoe UI Emoji" font-size="20px" fill="#000000" text-anchor="start" style="white-space: pre;" direction="ltr">false</text></g></svg>