<svg version="1.1" xmlns="http://www.w3.org/2000/svg" viewBox="0 0 1291.489902540592 1353.8474469911698" width="1291.489902540592" height="1353.8474469911698">
  <!-- svg-source:excalidraw -->
  
  <defs>
    <style class="style-fonts">
      @font-face {
        font-family: "Virgil";
        src: url("https://excalidraw.com/Virgil.woff2");
      }
      @font-face {
        font-family: "Cascadia";
        src: url("https://excalidraw.com/Cascadia.woff2");
      }
    </style>
  </defs>
  <rect x="0" y="0" width="1291.489902540592" height="1353.8474469911698" fill="#ffffff"></rect><g stroke-linecap="round" transform="translate(271.44262694607824 10) rotate(0 91.60003662109375 31.199996948242188)"><path d="M15.6 0 M15.6 0 C52.29 0, 88.98 0, 167.6 0 M15.6 0 C48.53 0, 81.46 0, 167.6 0 M167.6 0 C178 0, 183.2 5.2, 183.2 15.6 M167.6 0 C178 0, 183.2 5.2, 183.2 15.6 M183.2 15.6 C183.2 22.52, 183.2 29.45, 183.2 46.8 M183.2 15.6 C183.2 25.05, 183.2 34.49, 183.2 46.8 M183.2 46.8 C183.2 57.2, 178 62.4, 167.6 62.4 M183.2 46.8 C183.2 57.2, 178 62.4, 167.6 62.4 M167.6 62.4 C107.78 62.4, 47.95 62.4, 15.6 62.4 M167.6 62.4 C117.13 62.4, 66.65 62.4, 15.6 62.4 M15.6 62.4 C5.2 62.4, 0 57.2, 0 46.8 M15.6 62.4 C5.2 62.4, 0 57.2, 0 46.8 M0 46.8 C0 36.36, 0 25.92, 0 15.6 M0 46.8 C0 38.05, 0 29.29, 0 15.6 M0 15.6 C0 5.2, 5.2 0, 15.6 0 M0 15.6 C0 5.2, 5.2 0, 15.6 0" stroke="#000000" stroke-width="1" fill="none"></path></g><g transform="translate(332.542663567172 29.199996948242188) rotate(0 30.5 12)"><text x="30.5" y="19" font-family="Cascadia, Segoe UI Emoji" font-size="20px" fill="#000000" text-anchor="middle" style="white-space: pre;" direction="ltr">Start</text></g><g stroke-linecap="round" transform="translate(165.9321505445596 179.6293405185262) rotate(0 206.5 36)"><path d="M0 0 C89.48 0, 178.96 0, 413 0 M0 0 C111.99 0, 223.97 0, 413 0 M413 0 C413 21.8, 413 43.6, 413 72 M413 0 C413 22.71, 413 45.42, 413 72 M413 72 C275.86 72, 138.72 72, 0 72 M413 72 C326.85 72, 240.7 72, 0 72 M0 72 C0 51.8, 0 31.6, 0 0 M0 72 C0 56.06, 0 40.13, 0 0" stroke="#000000" stroke-width="1" fill="none"></path></g><g transform="translate(236.9321505445596 191.6293405185262) rotate(0 135.5 24)"><text x="135.5" y="19" font-family="Cascadia, Segoe UI Emoji" font-size="20px" fill="#000000" text-anchor="middle" style="white-space: pre;" direction="ltr">adjustSecondsToday(int </text><text x="135.5" y="43" font-family="Cascadia, Segoe UI Emoji" font-size="20px" fill="#000000" text-anchor="middle" style="white-space: pre;" direction="ltr">secondsToday)</text></g><g stroke-linecap="round" transform="translate(247.32583511290068 317.0559271748682) rotate(0 117 116.79056925808828)"><path d="M118 0 C159.12 41.47, 200.24 82.94, 234 117 M118 0 C146.04 28.28, 174.07 56.56, 234 117 M234 117 C195.11 156.09, 156.21 195.18, 118 233.58 M234 117 C201.3 149.86, 168.6 182.72, 118 233.58 M118 233.58 C88.74 204.68, 59.49 175.77, 0 117 M118 233.58 C82.74 198.75, 47.49 163.92, 0 117 M0 117 C26.33 90.9, 52.65 64.79, 118 0 M0 117 C27.53 89.7, 55.06 62.4, 118 0" stroke="#000000" stroke-width="1" fill="none"></path></g><g transform="translate(269.3258351129007 421.84649643295654) rotate(0 95 12)"><text x="95" y="19" font-family="Cascadia, Segoe UI Emoji" font-size="20px" fill="#000000" text-anchor="middle" style="white-space: pre;" direction="ltr">secondsToday &lt; 0</text></g><g stroke-linecap="round" transform="translate(692.5609621767417 402.81241266107133) rotate(0 206.5 36)"><path d="M0 0 C127.07 0, 254.13 0, 413 0 M0 0 C102.26 0, 204.53 0, 413 0 M413 0 C413 27.55, 413 55.09, 413 72 M413 0 C413 18.77, 413 37.54, 413 72 M413 72 C317.39 72, 221.77 72, 0 72 M413 72 C269.47 72, 125.95 72, 0 72 M0 72 C0 43.87, 0 15.74, 0 0 M0 72 C0 45.66, 0 19.31, 0 0" stroke="#000000" stroke-width="1" fill="none"></path></g><g transform="translate(798.5609621767417 426.81241266107133) rotate(0 100.5 12)"><text x="100.5" y="19" font-family="Cascadia, Segoe UI Emoji" font-size="20px" fill="#000000" text-anchor="middle" style="white-space: pre;" direction="ltr">secondsToday = 0;</text></g><g stroke-linecap="round" transform="translate(158.07745388182502 686.9373011113797) rotate(0 206.5 36)"><path d="M0 0 C127.6 0, 255.19 0, 413 0 M0 0 C138.37 0, 276.74 0, 413 0 M413 0 C413 21.46, 413 42.93, 413 72 M413 0 C413 14.67, 413 29.34, 413 72 M413 72 C250.87 72, 88.74 72, 0 72 M413 72 C301.35 72, 189.7 72, 0 72 M0 72 C0 55.4, 0 38.8, 0 0 M0 72 C0 55.83, 0 39.65, 0 0" stroke="#000000" stroke-width="1" fill="none"></path></g><g transform="translate(165.07745388182502 698.9373011113797) rotate(0 199.5 24)"><text x="199.5" y="19" font-family="Cascadia, Segoe UI Emoji" font-size="20px" fill="#000000" text-anchor="middle" style="white-space: pre;" direction="ltr">int secondsDelta = secondsToday - </text><text x="199.5" y="43" font-family="Cascadia, Segoe UI Emoji" font-size="20px" fill="#000000" text-anchor="middle" style="white-space: pre;" direction="ltr">this.secondsToday;</text></g><g stroke-linecap="round" transform="translate(159.52209207258238 878.9720154220757) rotate(0 206.5 36)"><path d="M0 0 C114.45 0, 228.91 0, 413 0 M0 0 C87.45 0, 174.9 0, 413 0 M413 0 C413 28.74, 413 57.48, 413 72 M413 0 C413 26.63, 413 53.26, 413 72 M413 72 C251.74 72, 90.49 72, 0 72 M413 72 C265.45 72, 117.89 72, 0 72 M0 72 C0 52.3, 0 32.6, 0 0 M0 72 C0 48.29, 0 24.58, 0 0" stroke="#000000" stroke-width="1" fill="none"></path></g><g transform="translate(166.52209207258238 890.9720154220757) rotate(0 199.5 24)"><text x="199.5" y="19" font-family="Cascadia, Segoe UI Emoji" font-size="20px" fill="#000000" text-anchor="middle" style="white-space: pre;" direction="ltr">this.setSecondsOverall(this.getSec</text><text x="199.5" y="43" font-family="Cascadia, Segoe UI Emoji" font-size="20px" fill="#000000" text-anchor="middle" style="white-space: pre;" direction="ltr">ondsOverall() + secondsDelta);</text></g><g stroke-linecap="round" transform="translate(156.6328156910713 1088.4319339884169) rotate(0 210.5 35.5)"><path d="M0 0 C125.5 0, 250.99 0, 421 0 M0 0 C85.77 0, 171.54 0, 421 0 M421 0 C421 27.87, 421 55.74, 421 71 M421 0 C421 19.19, 421 38.39, 421 71 M421 71 C323.95 71, 226.89 71, 0 71 M421 71 C326.43 71, 231.87 71, 0 71 M0 71 C0 43.67, 0 16.35, 0 0 M0 71 C0 43.28, 0 15.57, 0 0" stroke="#000000" stroke-width="1" fill="none"></path></g><g transform="translate(161.1328156910713 1111.9319339884169) rotate(0 206 12)"><text x="206" y="19" font-family="Cascadia, Segoe UI Emoji" font-size="20px" fill="#000000" text-anchor="middle" style="white-space: pre;" direction="ltr">this.setSecondsToday(secondsToday);</text></g><g stroke-linecap="round" transform="translate(265.5975337670725 1281.4474530946854) rotate(0 91.60003662109375 31.199996948242188)"><path d="M15.6 0 M15.6 0 C51.33 0, 87.06 0, 167.6 0 M15.6 0 C61.35 0, 107.09 0, 167.6 0 M167.6 0 C178 0, 183.2 5.2, 183.2 15.6 M167.6 0 C178 0, 183.2 5.2, 183.2 15.6 M183.2 15.6 C183.2 24.43, 183.2 33.26, 183.2 46.8 M183.2 15.6 C183.2 22.05, 183.2 28.51, 183.2 46.8 M183.2 46.8 C183.2 57.2, 178 62.4, 167.6 62.4 M183.2 46.8 C183.2 57.2, 178 62.4, 167.6 62.4 M167.6 62.4 C112.15 62.4, 56.69 62.4, 15.6 62.4 M167.6 62.4 C132.91 62.4, 98.22 62.4, 15.6 62.4 M15.6 62.4 C5.2 62.4, 0 57.2, 0 46.8 M15.6 62.4 C5.2 62.4, 0 57.2, 0 46.8 M0 46.8 C0 40.08, 0 33.36, 0 15.6 M0 46.8 C0 36.92, 0 27.04, 0 15.6 M0 15.6 C0 5.2, 5.2 0, 15.6 0 M0 15.6 C0 5.2, 5.2 0, 15.6 0" stroke="#000000" stroke-width="1" fill="none"></path></g><g transform="translate(338.69757038816806 1300.6474500429276) rotate(0 18.5 12)"><text x="18.5" y="19" font-family="Cascadia, Segoe UI Emoji" font-size="20px" fill="#000000" text-anchor="middle" style="white-space: pre;" direction="ltr">End</text></g><g stroke-linecap="round"><g transform="translate(365.66082231447126 73.70237245266264) rotate(0 0 52.72607030776123)"><path d="M0 0 C0 30.76, 0 61.53, 0 105.45 M0 0 C0 31.63, 0 63.26, 0 105.45" stroke="#000000" stroke-width="1" fill="none"></path></g><g transform="translate(365.66082231447126 73.70237245266264) rotate(0 0 52.72607030776123)"><path d="M0 105.45 L-6.34 91.86 L6.34 91.86 L0 105.45" stroke="none" stroke-width="0" fill="#000000" fill-rule="evenodd"></path><path d="M0 105.45 C-1.85 101.49, -3.7 97.52, -6.34 91.86 M0 105.45 C-1.9 101.37, -3.8 97.3, -6.34 91.86 M-6.34 91.86 C-2.07 91.86, 2.19 91.86, 6.34 91.86 M-6.34 91.86 C-1.51 91.86, 3.31 91.86, 6.34 91.86 M6.34 91.86 C4.37 96.07, 2.41 100.28, 0 105.45 M6.34 91.86 C5 94.72, 3.67 97.59, 0 105.45 M0 105.45 C0 105.45, 0 105.45, 0 105.45 M0 105.45 C0 105.45, 0 105.45, 0 105.45" stroke="#000000" stroke-width="1" fill="none"></path></g></g><g stroke-linecap="round"><g transform="translate(364.216404544557 254.27112525499922) rotate(0 0 29.613264438541137)"><path d="M0 0 C0 17.02, 0 34.04, 0 59.23 M0 0 C0 14.38, 0 28.75, 0 59.23" stroke="#000000" stroke-width="1" fill="none"></path></g><g transform="translate(364.216404544557 254.27112525499922) rotate(0 0 29.613264438541137)"><path d="M0 59.23 L-6.34 45.63 L6.34 45.63 L0 59.23" stroke="none" stroke-width="0" fill="#000000" fill-rule="evenodd"></path><path d="M0 59.23 C-1.82 55.32, -3.64 51.41, -6.34 45.63 M0 59.23 C-1.54 55.93, -3.08 52.63, -6.34 45.63 M-6.34 45.63 C-3.22 45.63, -0.11 45.63, 6.34 45.63 M-6.34 45.63 C-1.89 45.63, 2.57 45.63, 6.34 45.63 M6.34 45.63 C4.74 49.07, 3.14 52.5, 0 59.23 M6.34 45.63 C4.59 49.39, 2.83 53.15, 0 59.23 M0 59.23 C0 59.23, 0 59.23, 0 59.23 M0 59.23 C0 59.23, 0 59.23, 0 59.23" stroke="#000000" stroke-width="1" fill="none"></path></g></g><g stroke-linecap="round"><g transform="translate(481.2248241079669 434.8398780573358) rotate(0 104.72987662535525 0)"><path d="M0 0 C46.47 0, 92.95 0, 209.46 0 M0 0 C51.94 0, 103.88 0, 209.46 0" stroke="#000000" stroke-width="1" fill="none"></path></g><g transform="translate(481.2248241079669 434.8398780573358) rotate(0 104.72987662535525 0)"><path d="M209.46 0 L195.87 6.34 L195.87 -6.34 L209.46 0" stroke="none" stroke-width="0" fill="#000000" fill-rule="evenodd"></path><path d="M209.46 0 C206.44 1.41, 203.43 2.81, 195.87 6.34 M209.46 0 C206.09 1.57, 202.72 3.14, 195.87 6.34 M195.87 6.34 C195.87 1.31, 195.87 -3.73, 195.87 -6.34 M195.87 6.34 C195.87 3.13, 195.87 -0.08, 195.87 -6.34 M195.87 -6.34 C200.43 -4.21, 205 -2.08, 209.46 0 M195.87 -6.34 C200.15 -4.34, 204.44 -2.34, 209.46 0 M209.46 0 C209.46 0, 209.46 0, 209.46 0 M209.46 0 C209.46 0, 209.46 0, 209.46 0" stroke="#000000" stroke-width="1" fill="none"></path></g></g><g stroke-linecap="round"><g transform="translate(365.66082231447126 551.8484078311657) rotate(0 0 66.44930654178086)"><path d="M0 0 C0 41.96, 0 83.92, 0 132.9 M0 0 C0 38.8, 0 77.61, 0 132.9" stroke="#000000" stroke-width="1" fill="none"></path></g><g transform="translate(365.66082231447126 551.8484078311657) rotate(0 0 66.44930654178086)"><path d="M0 132.9 L-6.34 119.3 L6.34 119.3 L0 132.9" stroke="none" stroke-width="0" fill="#000000" fill-rule="evenodd"></path><path d="M0 132.9 C-2 128.61, -4 124.31, -6.34 119.3 M0 132.9 C-1.85 128.93, -3.7 124.96, -6.34 119.3 M-6.34 119.3 C-3.05 119.3, 0.24 119.3, 6.34 119.3 M-6.34 119.3 C-2.27 119.3, 1.81 119.3, 6.34 119.3 M6.34 119.3 C4.31 123.66, 2.28 128.01, 0 132.9 M6.34 119.3 C4.99 122.19, 3.64 125.08, 0 132.9 M0 132.9 C0 132.9, 0 132.9, 0 132.9 M0 132.9 C0 132.9, 0 132.9, 0 132.9" stroke="#000000" stroke-width="1" fill="none"></path></g></g><g stroke-linecap="round"><g transform="translate(898.6999128394727 476.7318507495619) rotate(0 -265.07490707174566 80.17257032840553)"><path d="M0 0 C0 39.23, 0 78.45, 0 160.35 M0 0 C0 60.37, 0 120.74, 0 160.35 M0 160.35 C-129.28 160.35, -258.57 160.35, -530.15 160.35 M0 160.35 C-135.97 160.35, -271.94 160.35, -530.15 160.35" stroke="#000000" stroke-width="1" fill="none"></path></g><g transform="translate(898.6999128394727 476.7318507495619) rotate(0 -265.07490707174566 80.17257032840553)"><path d="M-530.15 160.35 L-516.56 154.01 L-516.56 166.68 L-530.15 160.35" stroke="none" stroke-width="0" fill="#000000" fill-rule="evenodd"></path><path d="M-530.15 160.35 C-526.82 158.79, -523.5 157.24, -516.56 154.01 M-530.15 160.35 C-525.03 157.96, -519.91 155.57, -516.56 154.01 M-516.56 154.01 C-516.56 157.1, -516.56 160.19, -516.56 166.68 M-516.56 154.01 C-516.56 157.26, -516.56 160.51, -516.56 166.68 M-516.56 166.68 C-520.6 164.8, -524.65 162.91, -530.15 160.35 M-516.56 166.68 C-519.3 165.4, -522.05 164.12, -530.15 160.35 M-530.15 160.35 C-530.15 160.35, -530.15 160.35, -530.15 160.35 M-530.15 160.35 C-530.15 160.35, -530.15 160.35, -530.15 160.35" stroke="#000000" stroke-width="1" fill="none"></path></g></g><g stroke-linecap="round"><g transform="translate(365.66082231447126 762.3013222854153) rotate(0 0 57.782000896747604)"><path d="M0 0 C0 36.82, 0 73.65, 0 115.56 M0 0 C0 40.92, 0 81.85, 0 115.56" stroke="#000000" stroke-width="1" fill="none"></path></g><g transform="translate(365.66082231447126 762.3013222854153) rotate(0 0 57.782000896747604)"><path d="M0 115.56 L-6.34 101.97 L6.34 101.97 L0 115.56" stroke="none" stroke-width="0" fill="#000000" fill-rule="evenodd"></path><path d="M0 115.56 C-2.02 111.23, -4.04 106.9, -6.34 101.97 M0 115.56 C-2.24 110.75, -4.49 105.94, -6.34 101.97 M-6.34 101.97 C-2.4 101.97, 1.54 101.97, 6.34 101.97 M-6.34 101.97 C-2.38 101.97, 1.58 101.97, 6.34 101.97 M6.34 101.97 C3.86 107.29, 1.37 112.62, 0 115.56 M6.34 101.97 C4 106.98, 1.67 111.98, 0 115.56 M0 115.56 C0 115.56, 0 115.56, 0 115.56 M0 115.56 C0 115.56, 0 115.56, 0 115.56" stroke="#000000" stroke-width="1" fill="none"></path></g></g><g stroke-linecap="round"><g transform="translate(362.42328728668963 954.3785944698908) rotate(0 0 63.60912611818253)"><path d="M0 0 C0 42.03, 0 84.05, 0 127.22 M0 0 C0 33.58, 0 67.16, 0 127.22" stroke="#000000" stroke-width="1" fill="none"></path></g><g transform="translate(362.42328728668963 954.3785944698908) rotate(0 0 63.60912611818253)"><path d="M0 127.22 L-6.34 113.62 L6.34 113.62 L0 127.22" stroke="none" stroke-width="0" fill="#000000" fill-rule="evenodd"></path><path d="M0 127.22 C-2.09 122.73, -4.19 118.24, -6.34 113.62 M0 127.22 C-1.67 123.63, -3.35 120.04, -6.34 113.62 M-6.34 113.62 C-2.01 113.62, 2.31 113.62, 6.34 113.62 M-6.34 113.62 C-1.58 113.62, 3.18 113.62, 6.34 113.62 M6.34 113.62 C3.98 118.68, 1.62 123.74, 0 127.22 M6.34 113.62 C4.32 117.95, 2.3 122.28, 0 127.22 M0 127.22 C0 127.22, 0 127.22, 0 127.22 M0 127.22 C0 127.22, 0 127.22, 0 127.22" stroke="#000000" stroke-width="1" fill="none"></path></g></g><g stroke-linecap="round"><g transform="translate(358.78110173928235 1160.4510904591662) rotate(0 0 59.87077550173194)"><path d="M0 0 C0 37.63, 0 75.27, 0 119.74 M0 0 C0 34.21, 0 68.41, 0 119.74" stroke="#000000" stroke-width="1" fill="none"></path></g><g transform="translate(358.78110173928235 1160.4510904591662) rotate(0 0 59.87077550173194)"><path d="M0 119.74 L-6.34 106.15 L6.34 106.15 L0 119.74" stroke="none" stroke-width="0" fill="#000000" fill-rule="evenodd"></path><path d="M0 119.74 C-1.99 115.47, -3.98 111.2, -6.34 106.15 M0 119.74 C-1.81 115.86, -3.62 111.97, -6.34 106.15 M-6.34 106.15 C-3.26 106.15, -0.19 106.15, 6.34 106.15 M-6.34 106.15 C-1.81 106.15, 2.72 106.15, 6.34 106.15 M6.34 106.15 C4.04 111.07, 1.75 115.99, 0 119.74 M6.34 106.15 C4.46 110.17, 2.59 114.19, 0 119.74 M0 119.74 C0 119.74, 0 119.74, 0 119.74 M0 119.74 C0 119.74, 0 119.74, 0 119.74" stroke="#000000" stroke-width="1" fill="none"></path></g></g><g stroke-linecap="round" transform="translate(82.46311884335 189.56192046431124) rotate(0 27.298259260496934 27.298259260496934)"><path d="M0 0 C18.34 0, 36.67 0, 54.6 0 M54.6 0 C54.6 15.06, 54.6 30.13, 54.6 54.6 M54.6 54.6 C40.65 54.6, 26.71 54.6, 0 54.6 M0 54.6 C0 35.5, 0 16.41, 0 0" stroke="#000000" stroke-width="1.5" fill="none" stroke-dasharray="8 9"></path></g><g transform="translate(102.76137810384716 204.86017972480795) rotate(0 7 12)"><text x="7" y="19" font-family="Cascadia, Segoe UI Emoji" font-size="20px" fill="#000000" text-anchor="middle" style="white-space: pre;" direction="ltr">1</text></g><g stroke-linecap="round" transform="translate(158.36742348556436 407.3816157805819) rotate(0 27.298259260496707 27.298259260496934)"><path d="M0 0 C16.63 0, 33.25 0, 54.6 0 M54.6 0 C54.6 17, 54.6 33.99, 54.6 54.6 M54.6 54.6 C41.99 54.6, 29.37 54.6, 0 54.6 M0 54.6 C0 41.84, 0 29.08, 0 0" stroke="#000000" stroke-width="1.5" fill="none" stroke-dasharray="8 9"></path></g><g transform="translate(178.66568274606107 422.67987504107884) rotate(0 7 12)"><text x="7" y="19" font-family="Cascadia, Segoe UI Emoji" font-size="20px" fill="#000000" text-anchor="middle" style="white-space: pre;" direction="ltr">2</text></g><g stroke-linecap="round" transform="translate(1135.245494151386 411.6844264329685) rotate(0 27.298259260496707 27.298259260496934)"><path d="M0 0 C20.08 0, 40.17 0, 54.6 0 M54.6 0 C54.6 15.04, 54.6 30.07, 54.6 54.6 M54.6 54.6 C38.42 54.6, 22.25 54.6, 0 54.6 M0 54.6 C0 38.01, 0 21.43, 0 0" stroke="#000000" stroke-width="1.5" fill="none" stroke-dasharray="8 9"></path></g><g transform="translate(1155.5437534118828 426.98268569346544) rotate(0 7 12)"><text x="7" y="19" font-family="Cascadia, Segoe UI Emoji" font-size="20px" fill="#000000" text-anchor="middle" style="white-space: pre;" direction="ltr">3</text></g><g stroke-linecap="round" transform="translate(70.22663066593987 696.1422017069214) rotate(0 27.298259260496934 27.298259260496934)"><path d="M0 0 C13.54 0, 27.09 0, 54.6 0 M54.6 0 C54.6 17.29, 54.6 34.58, 54.6 54.6 M54.6 54.6 C42.45 54.6, 30.31 54.6, 0 54.6 M0 54.6 C0 34.34, 0 14.08, 0 0" stroke="#000000" stroke-width="1.5" fill="none" stroke-dasharray="8 9"></path></g><g transform="translate(90.52488992643703 711.4404609674183) rotate(0 7 12)"><text x="7" y="19" font-family="Cascadia, Segoe UI Emoji" font-size="20px" fill="#000000" text-anchor="middle" style="white-space: pre;" direction="ltr">4</text></g><g stroke-linecap="round" transform="translate(70.69722044594118 888.6940966059266) rotate(0 27.298259260496934 27.298259260496934)"><path d="M0 0 C21.59 0, 43.19 0, 54.6 0 M54.6 0 C54.6 19.82, 54.6 39.65, 54.6 54.6 M54.6 54.6 C36.26 54.6, 17.93 54.6, 0 54.6 M0 54.6 C0 39.29, 0 23.99, 0 0" stroke="#000000" stroke-width="1.5" fill="none" stroke-dasharray="8 9"></path></g><g transform="translate(90.99547970643835 903.9923558664235) rotate(0 7 12)"><text x="7" y="19" font-family="Cascadia, Segoe UI Emoji" font-size="20px" fill="#000000" text-anchor="middle" style="white-space: pre;" direction="ltr">5</text></g><g stroke-linecap="round" transform="translate(66.93233806579292 1096.3058493058024) rotate(0 27.298259260496934 27.298259260496934)"><path d="M0 0 C18.02 0, 36.04 0, 54.6 0 M54.6 0 C54.6 11.87, 54.6 23.75, 54.6 54.6 M54.6 54.6 C33.18 54.6, 11.77 54.6, 0 54.6 M0 54.6 C0 41.07, 0 27.55, 0 0" stroke="#000000" stroke-width="1.5" fill="none" stroke-dasharray="8 9"></path></g><g transform="translate(87.23059732629008 1111.6041085662991) rotate(0 7 12)"><text x="7" y="19" font-family="Cascadia, Segoe UI Emoji" font-size="20px" fill="#000000" text-anchor="middle" style="white-space: pre;" direction="ltr">6</text></g><g transform="translate(637.5863447040028 181.17114673789206) rotate(0 129.5 36)"><text x="0" y="19" font-family="Cascadia, Segoe UI Emoji" font-size="20px" fill="#c92a2a" text-anchor="start" style="white-space: pre;" direction="ltr">def = { secondsToday }</text><text x="0" y="43" font-family="Cascadia, Segoe UI Emoji" font-size="20px" fill="#c92a2a" text-anchor="start" style="white-space: pre;" direction="ltr">p-use = { }</text><text x="0" y="67" font-family="Cascadia, Segoe UI Emoji" font-size="20px" fill="#c92a2a" text-anchor="start" style="white-space: pre;" direction="ltr">c-use= { }</text></g><g transform="translate(10 312.2553958339272) rotate(0 141 36.00000000000006)"><text x="0" y="19" font-family="Cascadia, Segoe UI Emoji" font-size="20px" fill="#c92a2a" text-anchor="start" style="white-space: pre;" direction="ltr">def = { }</text><text x="0" y="43" font-family="Cascadia, Segoe UI Emoji" font-size="20px" fill="#c92a2a" text-anchor="start" style="white-space: pre;" direction="ltr">p-use = { secondsToday }</text><text x="0" y="67" font-family="Cascadia, Segoe UI Emoji" font-size="20px" fill="#c92a2a" text-anchor="start" style="white-space: pre;" direction="ltr">c-use= { }</text></g><g transform="translate(1022.4899025405921 302.23624109164143) rotate(0 129.5 35.99999999999994)"><text x="0" y="19" font-family="Cascadia, Segoe UI Emoji" font-size="20px" fill="#c92a2a" text-anchor="start" style="white-space: pre;" direction="ltr">def = { secondsToday }</text><text x="0" y="43" font-family="Cascadia, Segoe UI Emoji" font-size="20px" fill="#c92a2a" text-anchor="start" style="white-space: pre;" direction="ltr">p-use = { }</text><text x="0" y="67" font-family="Cascadia, Segoe UI Emoji" font-size="20px" fill="#c92a2a" text-anchor="start" style="white-space: pre;" direction="ltr">c-use= { }</text></g><g transform="translate(625.0623694260321 684.530573711752) rotate(0 136 36)"><text x="0" y="19" font-family="Cascadia, Segoe UI Emoji" font-size="20px" fill="#c92a2a" text-anchor="start" style="white-space: pre;" direction="ltr">def = { secondsDelta }</text><text x="0" y="43" font-family="Cascadia, Segoe UI Emoji" font-size="20px" fill="#c92a2a" text-anchor="start" style="white-space: pre;" direction="ltr">p-use = { }</text><text x="0" y="67" font-family="Cascadia, Segoe UI Emoji" font-size="20px" fill="#c92a2a" text-anchor="start" style="white-space: pre;" direction="ltr">c-use= { secondsToday }</text></g><g transform="translate(628.4020452066397 881.9919937014216) rotate(0 136 36)"><text x="0" y="19" font-family="Cascadia, Segoe UI Emoji" font-size="20px" fill="#c92a2a" text-anchor="start" style="white-space: pre;" direction="ltr">def = { }</text><text x="0" y="43" font-family="Cascadia, Segoe UI Emoji" font-size="20px" fill="#c92a2a" text-anchor="start" style="white-space: pre;" direction="ltr">p-use = { }</text><text x="0" y="67" font-family="Cascadia, Segoe UI Emoji" font-size="20px" fill="#c92a2a" text-anchor="start" style="white-space: pre;" direction="ltr">c-use= { secondsDelta }</text></g><g transform="translate(631.3243570650175 1091.2465562035404) rotate(0 136 36)"><text x="0" y="19" font-family="Cascadia, Segoe UI Emoji" font-size="20px" fill="#c92a2a" text-anchor="start" style="white-space: pre;" direction="ltr">def = { }</text><text x="0" y="43" font-family="Cascadia, Segoe UI Emoji" font-size="20px" fill="#c92a2a" text-anchor="start" style="white-space: pre;" direction="ltr">p-use = { }</text><text x="0" y="67" font-family="Cascadia, Segoe UI Emoji" font-size="20px" fill="#c92a2a" text-anchor="start" style="white-space: pre;" direction="ltr">c-use= { secondsToday }</text></g><g transform="translate(467.5198259068002 343.51233875215735) rotate(0 94.5 35.99999999999994)"><text x="94.5" y="19" font-family="Cascadia, Segoe UI Emoji" font-size="20px" fill="#000000" text-anchor="middle" style="white-space: pre;" direction="ltr">secondsToday &lt; 0</text><text x="94.5" y="43" font-family="Cascadia, Segoe UI Emoji" font-size="20px" fill="#000000" text-anchor="middle" style="white-space: pre;" direction="ltr"></text><text x="94.5" y="67" font-family="Cascadia, Segoe UI Emoji" font-size="20px" fill="#000000" text-anchor="middle" style="white-space: pre;" direction="ltr">true</text></g><g transform="translate(130.61504327019156 561.8837370180692) rotate(0 100 36)"><text x="100" y="19" font-family="Cascadia, Segoe UI Emoji" font-size="20px" fill="#000000" text-anchor="middle" style="white-space: pre;" direction="ltr">secondsToday &gt;= 0</text><text x="100" y="43" font-family="Cascadia, Segoe UI Emoji" font-size="20px" fill="#000000" text-anchor="middle" style="white-space: pre;" direction="ltr"></text><text x="100" y="67" font-family="Cascadia, Segoe UI Emoji" font-size="20px" fill="#000000" text-anchor="middle" style="white-space: pre;" direction="ltr">false</text></g></svg>