<svg version="1.1" xmlns="http://www.w3.org/2000/svg" viewBox="0 0 583.1244525138786 473.27685549248645" width="1749.3733575416359" height="1419.8305664774593">
  <!-- svg-source:excalidraw -->
  
  <defs>
    <style>
      @font-face {
        font-family: "Virgil";
        src: url("https://excalidraw.com/Virgil.woff2");
      }
      @font-face {
        font-family: "Cascadia";
        src: url("https://excalidraw.com/Cascadia.woff2");
      }
    </style>
  </defs>
  <rect x="0" y="0" width="583.1244525138786" height="473.27685549248645" fill="#ffffff"></rect><g stroke-linecap="round" transform="translate(83.39609890606516 10) rotate(0 76 37)"><path d="M18.5 0 M18.5 0 C55.99 0, 93.48 0, 133.5 0 M18.5 0 C47.25 0, 76.01 0, 133.5 0 M133.5 0 C145.83 0, 152 6.17, 152 18.5 M133.5 0 C145.83 0, 152 6.17, 152 18.5 M152 18.5 C152 32.84, 152 47.19, 152 55.5 M152 18.5 C152 30.33, 152 42.16, 152 55.5 M152 55.5 C152 67.83, 145.83 74, 133.5 74 M152 55.5 C152 67.83, 145.83 74, 133.5 74 M133.5 74 C110.43 74, 87.35 74, 18.5 74 M133.5 74 C98.63 74, 63.76 74, 18.5 74 M18.5 74 C6.17 74, 0 67.83, 0 55.5 M18.5 74 C6.17 74, 0 67.83, 0 55.5 M0 55.5 C0 43.69, 0 31.88, 0 18.5 M0 55.5 C0 44.86, 0 34.21, 0 18.5 M0 18.5 C0 6.17, 6.17 0, 18.5 0 M0 18.5 C0 6.17, 6.17 0, 18.5 0" stroke="#000000" stroke-width="1" fill="none"></path></g><g transform="translate(108.39609890606516 35.5) rotate(0 51 11.5)"><text x="51" y="18" font-family="Helvetica, Segoe UI Emoji" font-size="20px" fill="#000000" text-anchor="middle" style="white-space: pre;" direction="ltr">unsorted_0</text></g><g stroke-linecap="round" transform="translate(65.44935641057168 128.4216943675585) rotate(0 100 39.500000000000014)"><path d="M19.75 0 M19.75 0 C80.76 0, 141.78 0, 180.25 0 M19.75 0 C53.78 0, 87.81 0, 180.25 0 M180.25 0 C193.42 0, 200 6.58, 200 19.75 M180.25 0 C193.42 0, 200 6.58, 200 19.75 M200 19.75 C200 30.82, 200 41.89, 200 59.25 M200 19.75 C200 28.01, 200 36.28, 200 59.25 M200 59.25 C200 72.42, 193.42 79, 180.25 79 M200 59.25 C200 72.42, 193.42 79, 180.25 79 M180.25 79 C133.75 79, 87.25 79, 19.75 79 M180.25 79 C138.81 79, 97.38 79, 19.75 79 M19.75 79 C6.58 79, 0 72.42, 0 59.25 M19.75 79 C6.58 79, 0 72.42, 0 59.25 M0 59.25 C0 50.64, 0 42.02, 0 19.75 M0 59.25 C0 48.88, 0 38.51, 0 19.75 M0 19.75 C0 6.58, 6.58 0, 19.75 0 M0 19.75 C0 6.58, 6.58 0, 19.75 0" stroke="#000000" stroke-width="1" fill="none"></path></g><g transform="translate(74.44935641057168 156.42169436755853) rotate(0 91 11.5)"><text x="91" y="18" font-family="Helvetica, Segoe UI Emoji" font-size="20px" fill="#000000" text-anchor="middle" style="white-space: pre;" direction="ltr">sorted_ascending_0</text></g><g stroke-linecap="round" transform="translate(224.8642105718443 250.14472144580128) rotate(0 102.99999999999989 39.5)"><path d="M19.75 0 M19.75 0 C67.76 0, 115.77 0, 186.25 0 M19.75 0 C78.92 0, 138.09 0, 186.25 0 M186.25 0 C199.42 0, 206 6.58, 206 19.75 M186.25 0 C199.42 0, 206 6.58, 206 19.75 M206 19.75 C206 28.37, 206 37, 206 59.25 M206 19.75 C206 30.03, 206 40.31, 206 59.25 M206 59.25 C206 72.42, 199.42 79, 186.25 79 M206 59.25 C206 72.42, 199.42 79, 186.25 79 M186.25 79 C145.23 79, 104.21 79, 19.75 79 M186.25 79 C127.38 79, 68.51 79, 19.75 79 M19.75 79 C6.58 79, 0 72.42, 0 59.25 M19.75 79 C6.58 79, 0 72.42, 0 59.25 M0 59.25 C0 46.94, 0 34.62, 0 19.75 M0 59.25 C0 44.43, 0 29.62, 0 19.75 M0 19.75 C0 6.58, 6.58 0, 19.75 0 M0 19.75 C0 6.58, 6.58 0, 19.75 0" stroke="#000000" stroke-width="1" fill="none"></path></g><g transform="translate(231.3642105718443 278.1447214458013) rotate(0 96.49999999999989 11.5)"><text x="96.5" y="18" font-family="Helvetica, Segoe UI Emoji" font-size="20px" fill="#000000" text-anchor="middle" style="white-space: pre;" direction="ltr">sorted_descending_0</text></g><g stroke-linecap="round" transform="translate(373.1244525138786 384.27685549248645) rotate(0 100 39.5)"><path d="M19.75 0 M19.75 0 C63.31 0, 106.86 0, 180.25 0 M19.75 0 C83.28 0, 146.81 0, 180.25 0 M180.25 0 C193.42 0, 200 6.58, 200 19.75 M180.25 0 C193.42 0, 200 6.58, 200 19.75 M200 19.75 C200 35.51, 200 51.28, 200 59.25 M200 19.75 C200 31.73, 200 43.71, 200 59.25 M200 59.25 C200 72.42, 193.42 79, 180.25 79 M200 59.25 C200 72.42, 193.42 79, 180.25 79 M180.25 79 C146.25 79, 112.24 79, 19.75 79 M180.25 79 C147.47 79, 114.68 79, 19.75 79 M19.75 79 C6.58 79, 0 72.42, 0 59.25 M19.75 79 C6.58 79, 0 72.42, 0 59.25 M0 59.25 C0 50.2, 0 41.15, 0 19.75 M0 59.25 C0 48.31, 0 37.37, 0 19.75 M0 19.75 C0 6.58, 6.58 0, 19.75 0 M0 19.75 C0 6.58, 6.58 0, 19.75 0" stroke="#000000" stroke-width="1" fill="none"></path></g><g transform="translate(382.1244525138786 412.27685549248656) rotate(0 91 11.5)"><text x="91" y="18" font-family="Helvetica, Segoe UI Emoji" font-size="20px" fill="#000000" text-anchor="middle" style="white-space: pre;" direction="ltr">sorted_ascending_1</text></g><g stroke-linecap="round" transform="translate(10 252.74868486682516) rotate(0 76 37)"><path d="M18.5 0 M18.5 0 C43.03 0, 67.56 0, 133.5 0 M18.5 0 C46.03 0, 73.57 0, 133.5 0 M133.5 0 C145.83 0, 152 6.17, 152 18.5 M133.5 0 C145.83 0, 152 6.17, 152 18.5 M152 18.5 C152 28.35, 152 38.19, 152 55.5 M152 18.5 C152 32.58, 152 46.67, 152 55.5 M152 55.5 C152 67.83, 145.83 74, 133.5 74 M152 55.5 C152 67.83, 145.83 74, 133.5 74 M133.5 74 C93.24 74, 52.97 74, 18.5 74 M133.5 74 C104.5 74, 75.51 74, 18.5 74 M18.5 74 C6.17 74, 0 67.83, 0 55.5 M18.5 74 C6.17 74, 0 67.83, 0 55.5 M0 55.5 C0 47.88, 0 40.26, 0 18.5 M0 55.5 C0 46.7, 0 37.91, 0 18.5 M0 18.5 C0 6.17, 6.17 0, 18.5 0 M0 18.5 C0 6.17, 6.17 0, 18.5 0" stroke="#000000" stroke-width="1" fill="none"></path></g><g transform="translate(35 278.24868486682516) rotate(0 51 11.5)"><text x="51" y="18" font-family="Helvetica, Segoe UI Emoji" font-size="20px" fill="#000000" text-anchor="middle" style="white-space: pre;" direction="ltr">unsorted_1</text></g><g stroke-linecap="round" transform="translate(158.27340061334712 387.7469766214801) rotate(0 76 36.99999999999997)"><path d="M18.5 0 M18.5 0 C58.07 0, 97.65 0, 133.5 0 M18.5 0 C44.94 0, 71.38 0, 133.5 0 M133.5 0 C145.83 0, 152 6.17, 152 18.5 M133.5 0 C145.83 0, 152 6.17, 152 18.5 M152 18.5 C152 30.49, 152 42.47, 152 55.5 M152 18.5 C152 31.14, 152 43.79, 152 55.5 M152 55.5 C152 67.83, 145.83 74, 133.5 74 M152 55.5 C152 67.83, 145.83 74, 133.5 74 M133.5 74 C91.34 74, 49.18 74, 18.5 74 M133.5 74 C107.57 74, 81.64 74, 18.5 74 M18.5 74 C6.17 74, 0 67.83, 0 55.5 M18.5 74 C6.17 74, 0 67.83, 0 55.5 M0 55.5 C0 43.31, 0 31.12, 0 18.5 M0 55.5 C0 46.89, 0 38.27, 0 18.5 M0 18.5 C0 6.17, 6.17 0, 18.5 0 M0 18.5 C0 6.17, 6.17 0, 18.5 0" stroke="#000000" stroke-width="1" fill="none"></path></g><g transform="translate(183.27340061334712 413.24697662148003) rotate(0 51 11.5)"><text x="51" y="18" font-family="Helvetica, Segoe UI Emoji" font-size="20px" fill="#000000" text-anchor="middle" style="white-space: pre;" direction="ltr">unsorted_2</text></g><g stroke-linecap="round"><g transform="translate(163.60875541318592 83.47296356186519) rotate(0 0 23.28260325129753)"><path d="M0 0 C0 7.76, 0 38.8, 0 46.57 M0 0 C0 7.76, 0 38.8, 0 46.57" stroke="#000000" stroke-width="1" fill="none"></path></g><g transform="translate(163.60875541318592 83.47296356186519) rotate(0 0 23.28260325129753)"><path d="M0 46.57 L-6.34 32.97 L6.34 32.97 L0 46.57" stroke="none" stroke-width="0" fill="#000000" fill-rule="evenodd"></path><path d="M0 46.57 C-2.12 42.02, -4.23 37.48, -6.34 32.97 M0 46.57 C-2 42.27, -4 37.98, -6.34 32.97 M-6.34 32.97 C-3.23 32.97, -0.12 32.97, 6.34 32.97 M-6.34 32.97 C-3.03 32.97, 0.27 32.97, 6.34 32.97 M6.34 32.97 C4.53 36.84, 2.73 40.71, 0 46.57 M6.34 32.97 C3.99 38.02, 1.63 43.06, 0 46.57 M0 46.57 C0 46.57, 0 46.57, 0 46.57 M0 46.57 C0 46.57, 0 46.57, 0 46.57" stroke="#000000" stroke-width="1" fill="none"></path></g></g><g stroke-linecap="round"><g transform="translate(170.9611703814969 206.8299420045425) rotate(0 -43.70596690977072 23.69107161519105)"><path d="M0 0 C-14.57 7.9, -72.84 39.49, -87.41 47.38 M0 0 C-14.57 7.9, -72.84 39.49, -87.41 47.38" stroke="#000000" stroke-width="1" fill="none"></path></g><g transform="translate(170.9611703814969 206.8299420045425) rotate(0 -43.70596690977072 23.69107161519105)"><path d="M-87.41 47.38 L-78.48 35.33 L-72.44 46.48 L-87.41 47.38" stroke="none" stroke-width="0" fill="#000000" fill-rule="evenodd"></path><path d="M-87.41 47.38 C-84.12 42.94, -80.83 38.5, -78.48 35.33 M-87.41 47.38 C-84.8 43.86, -82.19 40.34, -78.48 35.33 M-78.48 35.33 C-76.43 39.11, -74.38 42.89, -72.44 46.48 M-78.48 35.33 C-76.73 38.57, -74.97 41.8, -72.44 46.48 M-72.44 46.48 C-76.9 46.75, -81.36 47.02, -87.41 47.38 M-72.44 46.48 C-77.14 46.76, -81.85 47.05, -87.41 47.38 M-87.41 47.38 C-87.41 47.38, -87.41 47.38, -87.41 47.38 M-87.41 47.38 C-87.41 47.38, -87.41 47.38, -87.41 47.38" stroke="#000000" stroke-width="1" fill="none"></path></g></g><g stroke-linecap="round"><g transform="translate(169.3272657623786 207.64686315055746) rotate(0 76.7917719400823 20.831816440594565)"><path d="M0 0 C25.6 6.94, 127.99 34.72, 153.58 41.66 M0 0 C25.6 6.94, 127.99 34.72, 153.58 41.66" stroke="#000000" stroke-width="1" fill="none"></path></g><g transform="translate(169.3272657623786 207.64686315055746) rotate(0 76.7917719400823 20.831816440594565)"><path d="M153.58 41.66 L138.8 44.22 L142.12 31.99 L153.58 41.66" stroke="none" stroke-width="0" fill="#000000" fill-rule="evenodd"></path><path d="M153.58 41.66 C149.93 42.3, 146.28 42.93, 138.8 44.22 M153.58 41.66 C150.39 42.22, 147.2 42.77, 138.8 44.22 M138.8 44.22 C139.73 40.81, 140.65 37.4, 142.12 31.99 M138.8 44.22 C140.03 39.72, 141.25 35.21, 142.12 31.99 M142.12 31.99 C145.75 35.05, 149.38 38.11, 153.58 41.66 M142.12 31.99 C146.45 35.64, 150.77 39.29, 153.58 41.66 M153.58 41.66 C153.58 41.66, 153.58 41.66, 153.58 41.66 M153.58 41.66 C153.58 41.66, 153.58 41.66, 153.58 41.66" stroke="#000000" stroke-width="1" fill="none"></path></g></g><g stroke-linecap="round"><g transform="translate(321.27696735051336 330.18690486544773) rotate(0 -41.663601717645065 29.001136973148505)"><path d="M0 0 C-13.89 9.67, -69.44 48.34, -83.33 58 M0 0 C-13.89 9.67, -69.44 48.34, -83.33 58" stroke="#000000" stroke-width="1" fill="none"></path></g><g transform="translate(321.27696735051336 330.18690486544773) rotate(0 -41.663601717645065 29.001136973148505)"><path d="M-83.33 58 L-75.79 45.03 L-68.55 55.44 L-83.33 58" stroke="none" stroke-width="0" fill="#000000" fill-rule="evenodd"></path><path d="M-83.33 58 C-81.51 54.87, -79.69 51.74, -75.79 45.03 M-83.33 58 C-80.34 52.86, -77.36 47.73, -75.79 45.03 M-75.79 45.03 C-74.28 47.2, -72.77 49.37, -68.55 55.44 M-75.79 45.03 C-73.98 47.63, -72.17 50.23, -68.55 55.44 M-68.55 55.44 C-72.97 56.21, -77.39 56.97, -83.33 58 M-68.55 55.44 C-72.26 56.08, -75.96 56.72, -83.33 58 M-83.33 58 C-83.33 58, -83.33 58, -83.33 58 M-83.33 58 C-83.33 58, -83.33 58, -83.33 58" stroke="#000000" stroke-width="1" fill="none"></path></g></g><g stroke-linecap="round"><g transform="translate(324.54465193457304 328.5530314098737) rotate(0 75.15792964805235 27.775739672354035)"><path d="M0 0 C25.05 9.26, 125.26 46.29, 150.32 55.55 M0 0 C25.05 9.26, 125.26 46.29, 150.32 55.55" stroke="#000000" stroke-width="1" fill="none"></path></g><g transform="translate(324.54465193457304 328.5530314098737) rotate(0 75.15792964805235 27.775739672354035)"><path d="M150.32 55.55 L135.37 56.79 L139.76 44.89 L150.32 55.55" stroke="none" stroke-width="0" fill="#000000" fill-rule="evenodd"></path><path d="M150.32 55.55 C144.46 56.04, 138.6 56.52, 135.37 56.79 M150.32 55.55 C144.93 56, 139.54 56.44, 135.37 56.79 M135.37 56.79 C137.01 52.34, 138.65 47.9, 139.76 44.89 M135.37 56.79 C136.39 54.01, 137.41 51.24, 139.76 44.89 M139.76 44.89 C141.94 47.09, 144.12 49.29, 150.32 55.55 M139.76 44.89 C143.43 48.6, 147.1 52.3, 150.32 55.55 M150.32 55.55 C150.32 55.55, 150.32 55.55, 150.32 55.55 M150.32 55.55 C150.32 55.55, 150.32 55.55, 150.32 55.55" stroke="#000000" stroke-width="1" fill="none"></path></g></g></svg>