<svg version="1.1" xmlns="http://www.w3.org/2000/svg" viewBox="0 0 583.1244525138793 473.27685549248633" width="1166.2489050277586" height="946.5537109849727">
  <!-- svg-source:excalidraw -->
  
  <defs>
    <style>
      @font-face {
        font-family: "Virgil";
        src: url("https://excalidraw.com/Virgil.woff2");
      }
      @font-face {
        font-family: "Cascadia";
        src: url("https://excalidraw.com/Cascadia.woff2");
      }
    </style>
  </defs>
  <rect x="0" y="0" width="583.1244525138793" height="473.27685549248633" fill="#ffffff"></rect><g stroke-linecap="round" transform="translate(83.39609890606516 10) rotate(0 76 37)"><path d="M18.5 0 M18.5 0 C46.75 0, 75.01 0, 133.5 0 M18.5 0 C43.38 0, 68.26 0, 133.5 0 M133.5 0 C145.83 0, 152 6.17, 152 18.5 M133.5 0 C145.83 0, 152 6.17, 152 18.5 M152 18.5 C152 26.71, 152 34.92, 152 55.5 M152 18.5 C152 30.4, 152 42.31, 152 55.5 M152 55.5 C152 67.83, 145.83 74, 133.5 74 M152 55.5 C152 67.83, 145.83 74, 133.5 74 M133.5 74 C91.02 74, 48.53 74, 18.5 74 M133.5 74 C88.44 74, 43.38 74, 18.5 74 M18.5 74 C6.17 74, 0 67.83, 0 55.5 M18.5 74 C6.17 74, 0 67.83, 0 55.5 M0 55.5 C0 45, 0 34.49, 0 18.5 M0 55.5 C0 43.83, 0 32.16, 0 18.5 M0 18.5 C0 6.17, 6.17 0, 18.5 0 M0 18.5 C0 6.17, 6.17 0, 18.5 0" stroke="#000000" stroke-width="1" fill="none"></path></g><g transform="translate(100.39609890606516 35.5) rotate(0 59 11.5)"><text x="59" y="18" font-family="Helvetica, Segoe UI Emoji" font-size="20px" fill="#000000" text-anchor="middle" style="white-space: pre;" direction="ltr">no_project_0</text></g><g stroke-linecap="round" transform="translate(65.44935641057191 128.42169436755853) rotate(0 100 39.5)"><path d="M19.75 0 M19.75 0 C52.05 0, 84.36 0, 180.25 0 M19.75 0 C78.79 0, 137.83 0, 180.25 0 M180.25 0 C193.42 0, 200 6.58, 200 19.75 M180.25 0 C193.42 0, 200 6.58, 200 19.75 M200 19.75 C200 28.2, 200 36.65, 200 59.25 M200 19.75 C200 30.28, 200 40.8, 200 59.25 M200 59.25 C200 72.42, 193.42 79, 180.25 79 M200 59.25 C200 72.42, 193.42 79, 180.25 79 M180.25 79 C136.66 79, 93.08 79, 19.75 79 M180.25 79 C145.75 79, 111.25 79, 19.75 79 M19.75 79 C6.58 79, 0 72.42, 0 59.25 M19.75 79 C6.58 79, 0 72.42, 0 59.25 M0 59.25 C0 45.1, 0 30.96, 0 19.75 M0 59.25 C0 46.56, 0 33.88, 0 19.75 M0 19.75 C0 6.58, 6.58 0, 19.75 0 M0 19.75 C0 6.58, 6.58 0, 19.75 0" stroke="#000000" stroke-width="1" fill="none"></path></g><g transform="translate(137.9493564105719 156.42169436755853) rotate(0 27.5 11.5)"><text x="27.5" y="18" font-family="Helvetica, Segoe UI Emoji" font-size="20px" fill="#000000" text-anchor="middle" style="white-space: pre;" direction="ltr">idle_0</text></g><g stroke-linecap="round" transform="translate(224.86421057184407 250.14472144580122) rotate(0 103 39.49999999999994)"><path d="M19.75 0 M19.75 0 C69.26 0, 118.77 0, 186.25 0 M19.75 0 C70.86 0, 121.98 0, 186.25 0 M186.25 0 C199.42 0, 206 6.58, 206 19.75 M186.25 0 C199.42 0, 206 6.58, 206 19.75 M206 19.75 C206 30.75, 206 41.75, 206 59.25 M206 19.75 C206 30.08, 206 40.42, 206 59.25 M206 59.25 C206 72.42, 199.42 79, 186.25 79 M206 59.25 C206 72.42, 199.42 79, 186.25 79 M186.25 79 C126.93 79, 67.62 79, 19.75 79 M186.25 79 C120.24 79, 54.24 79, 19.75 79 M19.75 79 C6.58 79, 0 72.42, 0 59.25 M19.75 79 C6.58 79, 0 72.42, 0 59.25 M0 59.25 C0 48.62, 0 38, 0 19.75 M0 59.25 C0 50.44, 0 41.64, 0 19.75 M0 19.75 C0 6.58, 6.58 0, 19.75 0 M0 19.75 C0 6.58, 6.58 0, 19.75 0" stroke="#000000" stroke-width="1" fill="none"></path></g><g transform="translate(282.3642105718443 278.1447214458012) rotate(0 45.5 11.5)"><text x="45.5" y="18" font-family="Helvetica, Segoe UI Emoji" font-size="20px" fill="#000000" text-anchor="middle" style="white-space: pre;" direction="ltr">running_0</text></g><g stroke-linecap="round" transform="translate(373.1244525138793 384.27685549248633) rotate(0 100 39.5)"><path d="M19.75 0 M19.75 0 C54.05 0, 88.34 0, 180.25 0 M19.75 0 C66.98 0, 114.22 0, 180.25 0 M180.25 0 C193.42 0, 200 6.58, 200 19.75 M180.25 0 C193.42 0, 200 6.58, 200 19.75 M200 19.75 C200 30.31, 200 40.87, 200 59.25 M200 19.75 C200 30.25, 200 40.75, 200 59.25 M200 59.25 C200 72.42, 193.42 79, 180.25 79 M200 59.25 C200 72.42, 193.42 79, 180.25 79 M180.25 79 C124.96 79, 69.67 79, 19.75 79 M180.25 79 C124.68 79, 69.12 79, 19.75 79 M19.75 79 C6.58 79, 0 72.42, 0 59.25 M19.75 79 C6.58 79, 0 72.42, 0 59.25 M0 59.25 C0 51.22, 0 43.19, 0 19.75 M0 59.25 C0 46.02, 0 32.79, 0 19.75 M0 19.75 C0 6.58, 6.58 0, 19.75 0 M0 19.75 C0 6.58, 6.58 0, 19.75 0" stroke="#000000" stroke-width="1" fill="none"></path></g><g transform="translate(445.6244525138793 412.27685549248633) rotate(0 27.5 11.5)"><text x="27.5" y="18" font-family="Helvetica, Segoe UI Emoji" font-size="20px" fill="#000000" text-anchor="middle" style="white-space: pre;" direction="ltr">idle_1</text></g><g stroke-linecap="round" transform="translate(10 252.74868486682522) rotate(0 76 37.00000000000006)"><path d="M18.5 0 M18.5 0 C48.29 0, 78.08 0, 133.5 0 M18.5 0 C61.31 0, 104.11 0, 133.5 0 M133.5 0 C145.83 0, 152 6.17, 152 18.5 M133.5 0 C145.83 0, 152 6.17, 152 18.5 M152 18.5 C152 31.53, 152 44.55, 152 55.5 M152 18.5 C152 28.83, 152 39.15, 152 55.5 M152 55.5 C152 67.83, 145.83 74, 133.5 74 M152 55.5 C152 67.83, 145.83 74, 133.5 74 M133.5 74 C102.74 74, 71.98 74, 18.5 74 M133.5 74 C101.89 74, 70.27 74, 18.5 74 M18.5 74 C6.17 74, 0 67.83, 0 55.5 M18.5 74 C6.17 74, 0 67.83, 0 55.5 M0 55.5 C0 42.6, 0 29.69, 0 18.5 M0 55.5 C0 46.93, 0 38.36, 0 18.5 M0 18.5 C0 6.17, 6.17 0, 18.5 0 M0 18.5 C0 6.17, 6.17 0, 18.5 0" stroke="#000000" stroke-width="1" fill="none"></path></g><g transform="translate(27 278.2486848668252) rotate(0 59 11.5)"><text x="59" y="18" font-family="Helvetica, Segoe UI Emoji" font-size="20px" fill="#000000" text-anchor="middle" style="white-space: pre;" direction="ltr">no_project_1</text></g><g stroke-linecap="round" transform="translate(158.27340061334735 387.74697662148026) rotate(0 76 37)"><path d="M18.5 0 M18.5 0 C46.45 0, 74.4 0, 133.5 0 M18.5 0 C57.98 0, 97.46 0, 133.5 0 M133.5 0 C145.83 0, 152 6.17, 152 18.5 M133.5 0 C145.83 0, 152 6.17, 152 18.5 M152 18.5 C152 33.14, 152 47.79, 152 55.5 M152 18.5 C152 26.67, 152 34.84, 152 55.5 M152 55.5 C152 67.83, 145.83 74, 133.5 74 M152 55.5 C152 67.83, 145.83 74, 133.5 74 M133.5 74 C94.56 74, 55.63 74, 18.5 74 M133.5 74 C90.72 74, 47.95 74, 18.5 74 M18.5 74 C6.17 74, 0 67.83, 0 55.5 M18.5 74 C6.17 74, 0 67.83, 0 55.5 M0 55.5 C0 45.66, 0 35.82, 0 18.5 M0 55.5 C0 47.16, 0 38.82, 0 18.5 M0 18.5 C0 6.17, 6.17 0, 18.5 0 M0 18.5 C0 6.17, 6.17 0, 18.5 0" stroke="#000000" stroke-width="1" fill="none"></path></g><g transform="translate(175.27340061334758 413.24697662148026) rotate(0 59 11.5)"><text x="59" y="18" font-family="Helvetica, Segoe UI Emoji" font-size="20px" fill="#000000" text-anchor="middle" style="white-space: pre;" direction="ltr">no_project_2</text></g><g stroke-linecap="round"><g transform="translate(163.60875541318615 83.47296356186519) rotate(0 0 23.28260325129753)"><path d="M0 0 C0 7.76, 0 38.8, 0 46.57 M0 0 C0 7.76, 0 38.8, 0 46.57" stroke="#000000" stroke-width="1" fill="none"></path></g><g transform="translate(163.60875541318615 83.47296356186519) rotate(0 0 23.28260325129753)"><path d="M0 46.57 L-6.34 32.97 L6.34 32.97 L0 46.57" stroke="none" stroke-width="0" fill="#000000" fill-rule="evenodd"></path><path d="M0 46.57 C-1.57 43.19, -3.15 39.82, -6.34 32.97 M0 46.57 C-2.42 41.37, -4.84 36.18, -6.34 32.97 M-6.34 32.97 C-3.49 32.97, -0.64 32.97, 6.34 32.97 M-6.34 32.97 C-3.26 32.97, -0.18 32.97, 6.34 32.97 M6.34 32.97 C4.28 37.39, 2.22 41.81, 0 46.57 M6.34 32.97 C3.86 38.28, 1.39 43.58, 0 46.57 M0 46.57 C0 46.57, 0 46.57, 0 46.57 M0 46.57 C0 46.57, 0 46.57, 0 46.57" stroke="#000000" stroke-width="1" fill="none"></path></g></g><g stroke-linecap="round"><g transform="translate(170.9611703814969 206.82994200454254) rotate(0 -43.70596690977072 23.69107161519105)"><path d="M0 0 C-14.57 7.9, -72.84 39.49, -87.41 47.38 M0 0 C-14.57 7.9, -72.84 39.49, -87.41 47.38" stroke="#000000" stroke-width="1" fill="none"></path></g><g transform="translate(170.9611703814969 206.82994200454254) rotate(0 -43.70596690977072 23.69107161519105)"><path d="M-87.41 47.38 L-78.48 35.33 L-72.44 46.48 L-87.41 47.38" stroke="none" stroke-width="0" fill="#000000" fill-rule="evenodd"></path><path d="M-87.41 47.38 C-84.78 43.84, -82.16 40.29, -78.48 35.33 M-87.41 47.38 C-85.5 44.8, -83.59 42.23, -78.48 35.33 M-78.48 35.33 C-76.88 38.29, -75.27 41.26, -72.44 46.48 M-78.48 35.33 C-76.84 38.36, -75.2 41.38, -72.44 46.48 M-72.44 46.48 C-77.62 46.79, -82.81 47.1, -87.41 47.38 M-72.44 46.48 C-77.8 46.8, -83.16 47.13, -87.41 47.38 M-87.41 47.38 C-87.41 47.38, -87.41 47.38, -87.41 47.38 M-87.41 47.38 C-87.41 47.38, -87.41 47.38, -87.41 47.38" stroke="#000000" stroke-width="1" fill="none"></path></g></g><g stroke-linecap="round"><g transform="translate(169.32726576237906 207.64686315055746) rotate(0 76.7917719400823 20.831816440594537)"><path d="M0 0 C25.6 6.94, 127.99 34.72, 153.58 41.66 M0 0 C25.6 6.94, 127.99 34.72, 153.58 41.66" stroke="#000000" stroke-width="1" fill="none"></path></g><g transform="translate(169.32726576237906 207.64686315055746) rotate(0 76.7917719400823 20.831816440594537)"><path d="M153.58 41.66 L138.8 44.22 L142.12 31.99 L153.58 41.66" stroke="none" stroke-width="0" fill="#000000" fill-rule="evenodd"></path><path d="M153.58 41.66 C149.13 42.43, 144.68 43.21, 138.8 44.22 M153.58 41.66 C147.87 42.65, 142.16 43.64, 138.8 44.22 M138.8 44.22 C139.47 41.76, 140.14 39.3, 142.12 31.99 M138.8 44.22 C139.52 41.58, 140.23 38.95, 142.12 31.99 M142.12 31.99 C144.65 34.12, 147.17 36.25, 153.58 41.66 M142.12 31.99 C145.17 34.56, 148.21 37.13, 153.58 41.66 M153.58 41.66 C153.58 41.66, 153.58 41.66, 153.58 41.66 M153.58 41.66 C153.58 41.66, 153.58 41.66, 153.58 41.66" stroke="#000000" stroke-width="1" fill="none"></path></g></g><g stroke-linecap="round"><g transform="translate(321.27696735051336 330.1869048654477) rotate(0 -41.663601717645065 29.001136973148505)"><path d="M0 0 C-13.89 9.67, -69.44 48.34, -83.33 58 M0 0 C-13.89 9.67, -69.44 48.34, -83.33 58" stroke="#000000" stroke-width="1" fill="none"></path></g><g transform="translate(321.27696735051336 330.1869048654477) rotate(0 -41.663601717645065 29.001136973148505)"><path d="M-83.33 58 L-75.79 45.03 L-68.55 55.44 L-83.33 58" stroke="none" stroke-width="0" fill="#000000" fill-rule="evenodd"></path><path d="M-83.33 58 C-80.52 53.17, -77.72 48.35, -75.79 45.03 M-83.33 58 C-81.23 54.39, -79.13 50.78, -75.79 45.03 M-75.79 45.03 C-73.77 47.94, -71.75 50.84, -68.55 55.44 M-75.79 45.03 C-73.21 48.74, -70.63 52.45, -68.55 55.44 M-68.55 55.44 C-72.61 56.14, -76.67 56.85, -83.33 58 M-68.55 55.44 C-72.52 56.13, -76.5 56.82, -83.33 58 M-83.33 58 C-83.33 58, -83.33 58, -83.33 58 M-83.33 58 C-83.33 58, -83.33 58, -83.33 58" stroke="#000000" stroke-width="1" fill="none"></path></g></g><g stroke-linecap="round"><g transform="translate(324.54465193457304 328.5530314098738) rotate(0 75.15792964805223 27.775739672354007)"><path d="M0 0 C25.05 9.26, 125.26 46.29, 150.32 55.55 M0 0 C25.05 9.26, 125.26 46.29, 150.32 55.55" stroke="#000000" stroke-width="1" fill="none"></path></g><g transform="translate(324.54465193457304 328.5530314098738) rotate(0 75.15792964805223 27.775739672354007)"><path d="M150.32 55.55 L135.37 56.79 L139.76 44.89 L150.32 55.55" stroke="none" stroke-width="0" fill="#000000" fill-rule="evenodd"></path><path d="M150.32 55.55 C145.14 55.98, 139.97 56.4, 135.37 56.79 M150.32 55.55 C145.35 55.96, 140.39 56.37, 135.37 56.79 M135.37 56.79 C136.66 53.3, 137.94 49.81, 139.76 44.89 M135.37 56.79 C136.42 53.93, 137.47 51.08, 139.76 44.89 M139.76 44.89 C142.03 47.19, 144.31 49.48, 150.32 55.55 M139.76 44.89 C143.7 48.87, 147.64 52.85, 150.32 55.55 M150.32 55.55 C150.32 55.55, 150.32 55.55, 150.32 55.55 M150.32 55.55 C150.32 55.55, 150.32 55.55, 150.32 55.55" stroke="#000000" stroke-width="1" fill="none"></path></g></g></svg>