<svg version="1.1" xmlns="http://www.w3.org/2000/svg" viewBox="0 0 2626.1388382157975 448.90539453614656" width="2626.1388382157975" height="448.90539453614656">
  <!-- svg-source:excalidraw -->
  
  <defs>
    <style>
      @font-face {
        font-family: "Virgil";
        src: url("https://excalidraw.com/Virgil.woff2");
      }
      @font-face {
        font-family: "Cascadia";
        src: url("https://excalidraw.com/Cascadia.woff2");
      }
    </style>
  </defs>
  <rect x="0" y="0" width="2626.1388382157975" height="448.90539453614656" fill="#ffffff"></rect><g stroke-linecap="round" transform="translate(1271.160823393591 10) rotate(0 106 47)"><path d="M23.5 0 M23.5 0 C80.87 0, 138.24 0, 188.5 0 M23.5 0 C61.39 0, 99.29 0, 188.5 0 M188.5 0 C204.17 0, 212 7.83, 212 23.5 M188.5 0 C204.17 0, 212 7.83, 212 23.5 M212 23.5 C212 34.18, 212 44.85, 212 70.5 M212 23.5 C212 40.66, 212 57.81, 212 70.5 M212 70.5 C212 86.17, 204.17 94, 188.5 94 M212 70.5 C212 86.17, 204.17 94, 188.5 94 M188.5 94 C126.17 94, 63.85 94, 23.5 94 M188.5 94 C129.63 94, 70.76 94, 23.5 94 M23.5 94 C7.83 94, 0 86.17, 0 70.5 M23.5 94 C7.83 94, 0 86.17, 0 70.5 M0 70.5 C0 53.24, 0 35.98, 0 23.5 M0 70.5 C0 54.49, 0 38.49, 0 23.5 M0 23.5 C0 7.83, 7.83 0, 23.5 0 M0 23.5 C0 7.83, 7.83 0, 23.5 0" stroke="#000000" stroke-width="1" fill="none"></path></g><g transform="translate(1327.660823393591 41) rotate(0 49.5 16)"><text x="49.5" y="26" font-family="Helvetica, Segoe UI Emoji" font-size="28px" fill="#000000" text-anchor="middle" style="white-space: pre;" direction="ltr">white_0</text></g><g stroke-linecap="round" transform="translate(707.7030097509662 179.29372000286912) rotate(0 106 47)"><path d="M23.5 0 M23.5 0 C87.78 0, 152.06 0, 188.5 0 M23.5 0 C87.83 0, 152.16 0, 188.5 0 M188.5 0 C204.17 0, 212 7.83, 212 23.5 M188.5 0 C204.17 0, 212 7.83, 212 23.5 M212 23.5 C212 37.08, 212 50.66, 212 70.5 M212 23.5 C212 38.25, 212 53, 212 70.5 M212 70.5 C212 86.17, 204.17 94, 188.5 94 M212 70.5 C212 86.17, 204.17 94, 188.5 94 M188.5 94 C134.55 94, 80.6 94, 23.5 94 M188.5 94 C134.51 94, 80.52 94, 23.5 94 M23.5 94 C7.83 94, 0 86.17, 0 70.5 M23.5 94 C7.83 94, 0 86.17, 0 70.5 M0 70.5 C0 57.89, 0 45.27, 0 23.5 M0 70.5 C0 58.6, 0 46.7, 0 23.5 M0 23.5 C0 7.83, 7.83 0, 23.5 0 M0 23.5 C0 7.83, 7.83 0, 23.5 0" stroke="#000000" stroke-width="1" fill="none"></path></g><g transform="translate(761.2030097509662 210.29372000286912) rotate(0 52.5 16)"><text x="52.5" y="26" font-family="Helvetica, Segoe UI Emoji" font-size="28px" fill="#000000" text-anchor="middle" style="white-space: pre;" direction="ltr">green_0</text></g><g stroke-linecap="round" transform="translate(250.1513595280719 343.5863063583165) rotate(0 106 47)"><path d="M23.5 0 M23.5 0 C60.2 0, 96.9 0, 188.5 0 M23.5 0 C56.5 0, 89.5 0, 188.5 0 M188.5 0 C204.17 0, 212 7.83, 212 23.5 M188.5 0 C204.17 0, 212 7.83, 212 23.5 M212 23.5 C212 33.42, 212 43.34, 212 70.5 M212 23.5 C212 39.17, 212 54.83, 212 70.5 M212 70.5 C212 86.17, 204.17 94, 188.5 94 M212 70.5 C212 86.17, 204.17 94, 188.5 94 M188.5 94 C125.47 94, 62.43 94, 23.5 94 M188.5 94 C139.65 94, 90.81 94, 23.5 94 M23.5 94 C7.83 94, 0 86.17, 0 70.5 M23.5 94 C7.83 94, 0 86.17, 0 70.5 M0 70.5 C0 60.48, 0 50.46, 0 23.5 M0 70.5 C0 59.27, 0 48.05, 0 23.5 M0 23.5 C0 7.83, 7.83 0, 23.5 0 M0 23.5 C0 7.83, 7.83 0, 23.5 0" stroke="#000000" stroke-width="1" fill="none"></path></g><g transform="translate(306.6513595280719 374.5863063583165) rotate(0 49.5 16)"><text x="49.5" y="26" font-family="Helvetica, Segoe UI Emoji" font-size="28px" fill="#000000" text-anchor="middle" style="white-space: pre;" direction="ltr">white_2</text></g><g stroke-linecap="round" transform="translate(936.3374475150606 342.83271007199255) rotate(0 106 47)"><path d="M23.5 0 M23.5 0 C88.55 0, 153.6 0, 188.5 0 M23.5 0 C63.59 0, 103.67 0, 188.5 0 M188.5 0 C204.17 0, 212 7.83, 212 23.5 M188.5 0 C204.17 0, 212 7.83, 212 23.5 M212 23.5 C212 41.33, 212 59.16, 212 70.5 M212 23.5 C212 38.19, 212 52.88, 212 70.5 M212 70.5 C212 86.17, 204.17 94, 188.5 94 M212 70.5 C212 86.17, 204.17 94, 188.5 94 M188.5 94 C129.12 94, 69.74 94, 23.5 94 M188.5 94 C128.18 94, 67.85 94, 23.5 94 M23.5 94 C7.83 94, 0 86.17, 0 70.5 M23.5 94 C7.83 94, 0 86.17, 0 70.5 M0 70.5 C0 54.48, 0 38.46, 0 23.5 M0 70.5 C0 53.89, 0 37.27, 0 23.5 M0 23.5 C0 7.83, 7.83 0, 23.5 0 M0 23.5 C0 7.83, 7.83 0, 23.5 0" stroke="#000000" stroke-width="1" fill="none"></path></g><g transform="translate(1005.3374475150606 373.83271007199255) rotate(0 37 16)"><text x="37" y="26" font-family="Helvetica, Segoe UI Emoji" font-size="28px" fill="#000000" text-anchor="middle" style="white-space: pre;" direction="ltr">red_1</text></g><g stroke-linecap="round" transform="translate(478.88009385567216 344.3400176404516) rotate(0 106 47)"><path d="M23.5 0 M23.5 0 C60.83 0, 98.17 0, 188.5 0 M23.5 0 C75.87 0, 128.25 0, 188.5 0 M188.5 0 C204.17 0, 212 7.83, 212 23.5 M188.5 0 C204.17 0, 212 7.83, 212 23.5 M212 23.5 C212 39.32, 212 55.15, 212 70.5 M212 23.5 C212 39.13, 212 54.76, 212 70.5 M212 70.5 C212 86.17, 204.17 94, 188.5 94 M212 70.5 C212 86.17, 204.17 94, 188.5 94 M188.5 94 C127.17 94, 65.84 94, 23.5 94 M188.5 94 C123.09 94, 57.67 94, 23.5 94 M23.5 94 C7.83 94, 0 86.17, 0 70.5 M23.5 94 C7.83 94, 0 86.17, 0 70.5 M0 70.5 C0 52.12, 0 33.74, 0 23.5 M0 70.5 C0 54.95, 0 39.41, 0 23.5 M0 23.5 C0 7.83, 7.83 0, 23.5 0 M0 23.5 C0 7.83, 7.83 0, 23.5 0" stroke="#000000" stroke-width="1" fill="none"></path></g><g transform="translate(532.3800938556722 375.3400176404516) rotate(0 52.5 16)"><text x="52.5" y="26" font-family="Helvetica, Segoe UI Emoji" font-size="28px" fill="#000000" text-anchor="middle" style="white-space: pre;" direction="ltr">green_1</text></g><g stroke-linecap="round"><g transform="translate(1362.7699791805069 106.46552820988472) rotate(0 -258.5174112094337 35.9140958964922)"><path d="M0 0 C-86.17 11.97, -430.86 59.86, -517.03 71.83 M0 0 C-86.17 11.97, -430.86 59.86, -517.03 71.83" stroke="#000000" stroke-width="1" fill="none"></path></g><g transform="translate(1362.7699791805069 106.46552820988472) rotate(0 -258.5174112094337 35.9140958964922)"><path d="M-517.03 71.83 L-504.44 63.68 L-502.7 76.24 L-517.03 71.83" stroke="none" stroke-width="0" fill="#000000" fill-rule="evenodd"></path><path d="M-517.03 71.83 C-512.98 69.21, -508.93 66.59, -504.44 63.68 M-517.03 71.83 C-513.05 69.25, -509.06 66.67, -504.44 63.68 M-504.44 63.68 C-504 66.89, -503.55 70.1, -502.7 76.24 M-504.44 63.68 C-503.87 67.8, -503.3 71.93, -502.7 76.24 M-502.7 76.24 C-506.47 75.08, -510.23 73.92, -517.03 71.83 M-502.7 76.24 C-507.06 74.89, -511.43 73.55, -517.03 71.83 M-517.03 71.83 C-517.03 71.83, -517.03 71.83, -517.03 71.83 M-517.03 71.83 C-517.03 71.83, -517.03 71.83, -517.03 71.83" stroke="#000000" stroke-width="1" fill="none"></path></g></g><g stroke-linecap="round" transform="translate(1163.1820905055172 343.96340636547893) rotate(0 106 47)"><path d="M23.5 0 M23.5 0 C80.87 0, 138.25 0, 188.5 0 M23.5 0 C84.6 0, 145.71 0, 188.5 0 M188.5 0 C204.17 0, 212 7.83, 212 23.5 M188.5 0 C204.17 0, 212 7.83, 212 23.5 M212 23.5 C212 37.23, 212 50.97, 212 70.5 M212 23.5 C212 35.8, 212 48.1, 212 70.5 M212 70.5 C212 86.17, 204.17 94, 188.5 94 M212 70.5 C212 86.17, 204.17 94, 188.5 94 M188.5 94 C127.77 94, 67.03 94, 23.5 94 M188.5 94 C142.35 94, 96.21 94, 23.5 94 M23.5 94 C7.83 94, 0 86.17, 0 70.5 M23.5 94 C7.83 94, 0 86.17, 0 70.5 M0 70.5 C0 55.66, 0 40.82, 0 23.5 M0 70.5 C0 52.37, 0 34.23, 0 23.5 M0 23.5 C0 7.83, 7.83 0, 23.5 0 M0 23.5 C0 7.83, 7.83 0, 23.5 0" stroke="#000000" stroke-width="1" fill="none"></path></g><g transform="translate(1232.1820905055172 374.96340636547893) rotate(0 37 16)"><text x="37" y="26" font-family="Helvetica, Segoe UI Emoji" font-size="28px" fill="#000000" text-anchor="middle" style="white-space: pre;" direction="ltr">red_2</text></g><g stroke-linecap="round"><g transform="translate(816.2470029137337 275.2800947686119) rotate(0 -202.2624889502872 33.160047782266474)"><path d="M0 0 C-67.42 11.05, -337.1 55.27, -404.52 66.32 M0 0 C-67.42 11.05, -337.1 55.27, -404.52 66.32" stroke="#000000" stroke-width="1" fill="none"></path></g><g transform="translate(816.2470029137337 275.2800947686119) rotate(0 -202.2624889502872 33.160047782266474)"><path d="M-404.52 66.32 L-392.14 57.86 L-390.08 70.38 L-404.52 66.32" stroke="none" stroke-width="0" fill="#000000" fill-rule="evenodd"></path><path d="M-404.52 66.32 C-401.27 64.1, -398.01 61.87, -392.14 57.86 M-404.52 66.32 C-401.23 64.07, -397.93 61.82, -392.14 57.86 M-392.14 57.86 C-391.42 62.23, -390.71 66.59, -390.08 70.38 M-392.14 57.86 C-391.42 62.2, -390.71 66.54, -390.08 70.38 M-390.08 70.38 C-393.27 69.48, -396.46 68.59, -404.52 66.32 M-390.08 70.38 C-395.03 68.99, -399.97 67.6, -404.52 66.32 M-404.52 66.32 C-404.52 66.32, -404.52 66.32, -404.52 66.32 M-404.52 66.32 C-404.52 66.32, -404.52 66.32, -404.52 66.32" stroke="#000000" stroke-width="1" fill="none"></path></g></g><g stroke-linecap="round"><g transform="translate(819.2450176999157 274.2937775007731) rotate(0 -87.45691488995749 34.406802702510504)"><path d="M0 0 C-29.15 11.47, -145.76 57.34, -174.91 68.81 M0 0 C-29.15 11.47, -145.76 57.34, -174.91 68.81" stroke="#000000" stroke-width="1" fill="none"></path></g><g transform="translate(819.2450176999157 274.2937775007731) rotate(0 -87.45691488995749 34.406802702510504)"><path d="M-174.91 68.81 L-164.58 57.94 L-159.94 69.74 L-174.91 68.81" stroke="none" stroke-width="0" fill="#000000" fill-rule="evenodd"></path><path d="M-174.91 68.81 C-171.15 64.86, -167.4 60.9, -164.58 57.94 M-174.91 68.81 C-171.94 65.69, -168.97 62.56, -164.58 57.94 M-164.58 57.94 C-163.06 61.81, -161.53 65.69, -159.94 69.74 M-164.58 57.94 C-163.39 60.97, -162.19 64.01, -159.94 69.74 M-159.94 69.74 C-164.3 69.47, -168.65 69.2, -174.91 68.81 M-159.94 69.74 C-163.82 69.5, -167.71 69.26, -174.91 68.81 M-174.91 68.81 C-174.91 68.81, -174.91 68.81, -174.91 68.81 M-174.91 68.81 C-174.91 68.81, -174.91 68.81, -174.91 68.81" stroke="#000000" stroke-width="1" fill="none"></path></g></g><g stroke-linecap="round"><g transform="translate(833.4741632795401 274.2937200028691) rotate(0 90.34832437434284 32.899552631956794)"><path d="M0 0 C30.12 10.97, 150.58 54.83, 180.7 65.8 M0 0 C30.12 10.97, 150.58 54.83, 180.7 65.8" stroke="#000000" stroke-width="1" fill="none"></path></g><g transform="translate(833.4741632795401 274.2937200028691) rotate(0 90.34832437434284 32.899552631956794)"><path d="M180.7 65.8 L165.75 67.1 L170.09 55.19 L180.7 65.8" stroke="none" stroke-width="0" fill="#000000" fill-rule="evenodd"></path><path d="M180.7 65.8 C177.65 66.06, 174.61 66.33, 165.75 67.1 M180.7 65.8 C176.94 66.13, 173.18 66.46, 165.75 67.1 M165.75 67.1 C167.34 62.74, 168.93 58.38, 170.09 55.19 M165.75 67.1 C166.9 63.96, 168.05 60.81, 170.09 55.19 M170.09 55.19 C172.41 57.51, 174.74 59.84, 180.7 65.8 M170.09 55.19 C172.69 57.79, 175.29 60.39, 180.7 65.8 M180.7 65.8 C180.7 65.8, 180.7 65.8, 180.7 65.8 M180.7 65.8 C180.7 65.8, 180.7 65.8, 180.7 65.8" stroke="#000000" stroke-width="1" fill="none"></path></g></g><g stroke-linecap="round"><g transform="translate(831.8836082637424 274.2937200028691) rotate(0 211.24209681262846 34.334843181304905)"><path d="M0 0 C70.41 11.44, 352.07 57.22, 422.48 68.67 M0 0 C70.41 11.44, 352.07 57.22, 422.48 68.67" stroke="#000000" stroke-width="1" fill="none"></path></g><g transform="translate(831.8836082637424 274.2937200028691) rotate(0 211.24209681262846 34.334843181304905)"><path d="M422.48 68.67 L408.05 72.75 L410.08 60.23 L422.48 68.67" stroke="none" stroke-width="0" fill="#000000" fill-rule="evenodd"></path><path d="M422.48 68.67 C419.06 69.64, 415.64 70.6, 408.05 72.75 M422.48 68.67 C418.37 69.83, 414.26 70.99, 408.05 72.75 M408.05 72.75 C408.68 68.85, 409.32 64.95, 410.08 60.23 M408.05 72.75 C408.52 69.85, 408.99 66.96, 410.08 60.23 M410.08 60.23 C412.78 62.06, 415.47 63.9, 422.48 68.67 M410.08 60.23 C414.83 63.46, 419.58 66.69, 422.48 68.67 M422.48 68.67 C422.48 68.67, 422.48 68.67, 422.48 68.67 M422.48 68.67 C422.48 68.67, 422.48 68.67, 422.48 68.67" stroke="#000000" stroke-width="1" fill="none"></path></g></g><g stroke-linecap="round" transform="translate(709.681282655806 344.90539453614656) rotate(0 106 47)"><path d="M23.5 0 M23.5 0 C67.27 0, 111.03 0, 188.5 0 M23.5 0 C87.15 0, 150.79 0, 188.5 0 M188.5 0 C204.17 0, 212 7.83, 212 23.5 M188.5 0 C204.17 0, 212 7.83, 212 23.5 M212 23.5 C212 37.66, 212 51.81, 212 70.5 M212 23.5 C212 37.68, 212 51.86, 212 70.5 M212 70.5 C212 86.17, 204.17 94, 188.5 94 M212 70.5 C212 86.17, 204.17 94, 188.5 94 M188.5 94 C122.89 94, 57.29 94, 23.5 94 M188.5 94 C132.7 94, 76.9 94, 23.5 94 M23.5 94 C7.83 94, 0 86.17, 0 70.5 M23.5 94 C7.83 94, 0 86.17, 0 70.5 M0 70.5 C0 60.51, 0 50.51, 0 23.5 M0 70.5 C0 57.81, 0 45.11, 0 23.5 M0 23.5 C0 7.83, 7.83 0, 23.5 0 M0 23.5 C0 7.83, 7.83 0, 23.5 0" stroke="#000000" stroke-width="1" fill="none"></path></g><g transform="translate(763.181282655806 375.90539453614656) rotate(0 52.5 16)"><text x="52.5" y="26" font-family="Helvetica, Segoe UI Emoji" font-size="28px" fill="#000000" text-anchor="middle" style="white-space: pre;" direction="ltr">green_2</text></g><g stroke-linecap="round"><g transform="translate(824.3750494945768 274.71489036663024) rotate(0 1.2305493280434803 34.59525208475816)"><path d="M0 0 C0.41 11.53, 2.05 57.66, 2.46 69.19 M0 0 C0.41 11.53, 2.05 57.66, 2.46 69.19" stroke="#000000" stroke-width="1" fill="none"></path></g><g transform="translate(824.3750494945768 274.71489036663024) rotate(0 1.2305493280434803 34.59525208475816)"><path d="M2.46 69.19 L-4.36 55.83 L8.31 55.38 L2.46 69.19" stroke="none" stroke-width="0" fill="#000000" fill-rule="evenodd"></path><path d="M2.46 69.19 C0.89 66.12, -0.68 63.04, -4.36 55.83 M2.46 69.19 C0.69 65.72, -1.08 62.24, -4.36 55.83 M-4.36 55.83 C-1.15 55.72, 2.05 55.6, 8.31 55.38 M-4.36 55.83 C0.17 55.67, 4.69 55.51, 8.31 55.38 M8.31 55.38 C6.45 59.79, 4.58 64.19, 2.46 69.19 M8.31 55.38 C6.25 60.25, 4.18 65.12, 2.46 69.19 M2.46 69.19 C2.46 69.19, 2.46 69.19, 2.46 69.19 M2.46 69.19 C2.46 69.19, 2.46 69.19, 2.46 69.19" stroke="#000000" stroke-width="1" fill="none"></path></g></g><g stroke-linecap="round" transform="translate(1947.152507390692 176.8444817616487) rotate(0 106 47)"><path d="M23.5 0 M23.5 0 C72.85 0, 122.19 0, 188.5 0 M23.5 0 C56.77 0, 90.05 0, 188.5 0 M188.5 0 C204.17 0, 212 7.83, 212 23.5 M188.5 0 C204.17 0, 212 7.83, 212 23.5 M212 23.5 C212 33.93, 212 44.36, 212 70.5 M212 23.5 C212 37.81, 212 52.12, 212 70.5 M212 70.5 C212 86.17, 204.17 94, 188.5 94 M212 70.5 C212 86.17, 204.17 94, 188.5 94 M188.5 94 C146.27 94, 104.03 94, 23.5 94 M188.5 94 C143.12 94, 97.73 94, 23.5 94 M23.5 94 C7.83 94, 0 86.17, 0 70.5 M23.5 94 C7.83 94, 0 86.17, 0 70.5 M0 70.5 C0 59.57, 0 48.64, 0 23.5 M0 70.5 C0 59.8, 0 49.1, 0 23.5 M0 23.5 C0 7.83, 7.83 0, 23.5 0 M0 23.5 C0 7.83, 7.83 0, 23.5 0" stroke="#000000" stroke-width="1" fill="none"></path></g><g transform="translate(2016.152507390692 207.8444817616487) rotate(0 37 16)"><text x="37" y="26" font-family="Helvetica, Segoe UI Emoji" font-size="28px" fill="#000000" text-anchor="middle" style="white-space: pre;" direction="ltr">red_0</text></g><g stroke-linecap="round" transform="translate(1495.629972445821 344.15162575610793) rotate(0 106 47)"><path d="M23.5 0 M23.5 0 C86.71 0, 149.92 0, 188.5 0 M23.5 0 C64.23 0, 104.96 0, 188.5 0 M188.5 0 C204.17 0, 212 7.83, 212 23.5 M188.5 0 C204.17 0, 212 7.83, 212 23.5 M212 23.5 C212 33.66, 212 43.81, 212 70.5 M212 23.5 C212 41.15, 212 58.79, 212 70.5 M212 70.5 C212 86.17, 204.17 94, 188.5 94 M212 70.5 C212 86.17, 204.17 94, 188.5 94 M188.5 94 C129.04 94, 69.57 94, 23.5 94 M188.5 94 C152.97 94, 117.45 94, 23.5 94 M23.5 94 C7.83 94, 0 86.17, 0 70.5 M23.5 94 C7.83 94, 0 86.17, 0 70.5 M0 70.5 C0 52.43, 0 34.36, 0 23.5 M0 70.5 C0 52.8, 0 35.1, 0 23.5 M0 23.5 C0 7.83, 7.83 0, 23.5 0 M0 23.5 C0 7.83, 7.83 0, 23.5 0" stroke="#000000" stroke-width="1" fill="none"></path></g><g transform="translate(1552.129972445821 375.15162575610793) rotate(0 49.5 16)"><text x="49.5" y="26" font-family="Helvetica, Segoe UI Emoji" font-size="28px" fill="#000000" text-anchor="middle" style="white-space: pre;" direction="ltr">white_3</text></g><g stroke-linecap="round" transform="translate(2177.2941952253404 340.383529328677) rotate(0 106 47)"><path d="M23.5 0 M23.5 0 C75.77 0, 128.05 0, 188.5 0 M23.5 0 C60.31 0, 97.13 0, 188.5 0 M188.5 0 C204.17 0, 212 7.83, 212 23.5 M188.5 0 C204.17 0, 212 7.83, 212 23.5 M212 23.5 C212 34.22, 212 44.95, 212 70.5 M212 23.5 C212 40.39, 212 57.27, 212 70.5 M212 70.5 C212 86.17, 204.17 94, 188.5 94 M212 70.5 C212 86.17, 204.17 94, 188.5 94 M188.5 94 C143.18 94, 97.87 94, 23.5 94 M188.5 94 C134.84 94, 81.17 94, 23.5 94 M23.5 94 C7.83 94, 0 86.17, 0 70.5 M23.5 94 C7.83 94, 0 86.17, 0 70.5 M0 70.5 C0 52.77, 0 35.03, 0 23.5 M0 70.5 C0 53.52, 0 36.54, 0 23.5 M0 23.5 C0 7.83, 7.83 0, 23.5 0 M0 23.5 C0 7.83, 7.83 0, 23.5 0" stroke="#000000" stroke-width="1" fill="none"></path></g><g transform="translate(2246.2941952253404 371.383529328677) rotate(0 37 16)"><text x="37" y="26" font-family="Helvetica, Segoe UI Emoji" font-size="28px" fill="#000000" text-anchor="middle" style="white-space: pre;" direction="ltr">red_3</text></g><g stroke-linecap="round" transform="translate(1721.344091636505 343.3980869676893) rotate(0 106 47)"><path d="M23.5 0 M23.5 0 C66.04 0, 108.59 0, 188.5 0 M23.5 0 C69.61 0, 115.73 0, 188.5 0 M188.5 0 C204.17 0, 212 7.83, 212 23.5 M188.5 0 C204.17 0, 212 7.83, 212 23.5 M212 23.5 C212 38.73, 212 53.96, 212 70.5 M212 23.5 C212 41.94, 212 60.38, 212 70.5 M212 70.5 C212 86.17, 204.17 94, 188.5 94 M212 70.5 C212 86.17, 204.17 94, 188.5 94 M188.5 94 C152.29 94, 116.09 94, 23.5 94 M188.5 94 C133.82 94, 79.14 94, 23.5 94 M23.5 94 C7.83 94, 0 86.17, 0 70.5 M23.5 94 C7.83 94, 0 86.17, 0 70.5 M0 70.5 C0 54.82, 0 39.15, 0 23.5 M0 70.5 C0 61.02, 0 51.55, 0 23.5 M0 23.5 C0 7.83, 7.83 0, 23.5 0 M0 23.5 C0 7.83, 7.83 0, 23.5 0" stroke="#000000" stroke-width="1" fill="none"></path></g><g transform="translate(1774.844091636505 374.3980869676893) rotate(0 52.5 16)"><text x="52.5" y="26" font-family="Helvetica, Segoe UI Emoji" font-size="28px" fill="#000000" text-anchor="middle" style="white-space: pre;" direction="ltr">green_3</text></g><g stroke-linecap="round" transform="translate(2404.1388382157975 338.49961048524665) rotate(0 106 47)"><path d="M23.5 0 M23.5 0 C56.61 0, 89.72 0, 188.5 0 M23.5 0 C58.83 0, 94.17 0, 188.5 0 M188.5 0 C204.17 0, 212 7.83, 212 23.5 M188.5 0 C204.17 0, 212 7.83, 212 23.5 M212 23.5 C212 39.8, 212 56.09, 212 70.5 M212 23.5 C212 36.16, 212 48.81, 212 70.5 M212 70.5 C212 86.17, 204.17 94, 188.5 94 M212 70.5 C212 86.17, 204.17 94, 188.5 94 M188.5 94 C149.96 94, 111.42 94, 23.5 94 M188.5 94 C134.33 94, 80.17 94, 23.5 94 M23.5 94 C7.83 94, 0 86.17, 0 70.5 M23.5 94 C7.83 94, 0 86.17, 0 70.5 M0 70.5 C0 54.78, 0 39.06, 0 23.5 M0 70.5 C0 56.64, 0 42.77, 0 23.5 M0 23.5 C0 7.83, 7.83 0, 23.5 0 M0 23.5 C0 7.83, 7.83 0, 23.5 0" stroke="#000000" stroke-width="1" fill="none"></path></g><g transform="translate(2473.1388382157975 369.49961048524665) rotate(0 37 16)"><text x="37" y="26" font-family="Helvetica, Segoe UI Emoji" font-size="28px" fill="#000000" text-anchor="middle" style="white-space: pre;" direction="ltr">red_4</text></g><g stroke-linecap="round"><g transform="translate(2058.788992493882 272.83085652739146) rotate(0 -203.16953980364383 34.667326601772174)"><path d="M0 0 C-67.72 11.56, -338.62 57.78, -406.34 69.33 M0 0 C-67.72 11.56, -338.62 57.78, -406.34 69.33" stroke="#000000" stroke-width="1" fill="none"></path></g><g transform="translate(2058.788992493882 272.83085652739146) rotate(0 -203.16953980364383 34.667326601772174)"><path d="M-406.34 69.33 L-394 60.8 L-391.87 73.3 L-406.34 69.33" stroke="none" stroke-width="0" fill="#000000" fill-rule="evenodd"></path><path d="M-406.34 69.33 C-401.43 65.93, -396.51 62.53, -394 60.8 M-406.34 69.33 C-402.68 66.8, -399.01 64.26, -394 60.8 M-394 60.8 C-393.5 63.78, -392.99 66.77, -391.87 73.3 M-394 60.8 C-393.2 65.54, -392.39 70.28, -391.87 73.3 M-391.87 73.3 C-397.6 71.73, -403.32 70.16, -406.34 69.33 M-391.87 73.3 C-395 72.44, -398.14 71.58, -406.34 69.33 M-406.34 69.33 C-406.34 69.33, -406.34 69.33, -406.34 69.33 M-406.34 69.33 C-406.34 69.33, -406.34 69.33, -406.34 69.33" stroke="#000000" stroke-width="1" fill="none"></path></g></g><g stroke-linecap="round"><g transform="translate(2060.4160192284007 271.8445392595527) rotate(0 -87.66298921671432 35.16045648673935)"><path d="M0 0 C-29.22 11.72, -146.1 58.6, -175.33 70.32 M0 0 C-29.22 11.72, -146.1 58.6, -175.33 70.32" stroke="#000000" stroke-width="1" fill="none"></path></g><g transform="translate(2060.4160192284007 271.8445392595527) rotate(0 -87.66298921671432 35.16045648673935)"><path d="M-175.33 70.32 L-165.07 59.38 L-160.35 71.14 L-175.33 70.32" stroke="none" stroke-width="0" fill="#000000" fill-rule="evenodd"></path><path d="M-175.33 70.32 C-173.04 67.88, -170.75 65.44, -165.07 59.38 M-175.33 70.32 C-173.05 67.89, -170.77 65.46, -165.07 59.38 M-165.07 59.38 C-163.37 63.6, -161.68 67.83, -160.35 71.14 M-165.07 59.38 C-163.86 62.39, -162.65 65.4, -160.35 71.14 M-160.35 71.14 C-165.22 70.88, -170.09 70.61, -175.33 70.32 M-160.35 71.14 C-163.83 70.95, -167.31 70.76, -175.33 70.32 M-175.33 70.32 C-175.33 70.32, -175.33 70.32, -175.33 70.32 M-175.33 70.32 C-175.33 70.32, -175.33 70.32, -175.33 70.32" stroke="#000000" stroke-width="1" fill="none"></path></g></g><g stroke-linecap="round"><g transform="translate(2073.1470983870095 271.8444817616487) rotate(0 90.79834736200155 32.89958138090901)"><path d="M0 0 C30.27 10.97, 151.33 54.83, 181.6 65.8 M0 0 C30.27 10.97, 151.33 54.83, 181.6 65.8" stroke="#000000" stroke-width="1" fill="none"></path></g><g transform="translate(2073.1470983870095 271.8444817616487) rotate(0 90.79834736200155 32.89958138090901)"><path d="M181.6 65.8 L166.66 67.13 L170.97 55.21 L181.6 65.8" stroke="none" stroke-width="0" fill="#000000" fill-rule="evenodd"></path><path d="M181.6 65.8 C177.34 66.18, 173.09 66.56, 166.66 67.13 M181.6 65.8 C175.72 66.32, 169.84 66.84, 166.66 67.13 M166.66 67.13 C167.8 63.98, 168.94 60.83, 170.97 55.21 M166.66 67.13 C168.1 63.15, 169.54 59.17, 170.97 55.21 M170.97 55.21 C174.66 58.88, 178.34 62.55, 181.6 65.8 M170.97 55.21 C174.83 59.05, 178.68 62.89, 181.6 65.8 M181.6 65.8 C181.6 65.8, 181.6 65.8, 181.6 65.8 M181.6 65.8 C181.6 65.8, 181.6 65.8, 181.6 65.8" stroke="#000000" stroke-width="1" fill="none"></path></g></g><g stroke-linecap="round"><g transform="translate(2072.709904950376 271.8444817616487) rotate(0 209.60485664406428 32.82756436179898)"><path d="M0 0 C69.87 10.94, 349.34 54.71, 419.21 65.66 M0 0 C69.87 10.94, 349.34 54.71, 419.21 65.66" stroke="#000000" stroke-width="1" fill="none"></path></g><g transform="translate(2072.709904950376 271.8444817616487) rotate(0 209.60485664406428 32.82756436179898)"><path d="M419.21 65.66 L404.8 69.81 L406.76 57.29 L419.21 65.66" stroke="none" stroke-width="0" fill="#000000" fill-rule="evenodd"></path><path d="M419.21 65.66 C415.18 66.82, 411.15 67.98, 404.8 69.81 M419.21 65.66 C416.1 66.55, 412.98 67.45, 404.8 69.81 M404.8 69.81 C405.57 64.9, 406.34 59.99, 406.76 57.29 M404.8 69.81 C405.5 65.3, 406.21 60.79, 406.76 57.29 M406.76 57.29 C410.89 60.06, 415.01 62.83, 419.21 65.66 M406.76 57.29 C411.55 60.51, 416.33 63.72, 419.21 65.66 M419.21 65.66 C419.21 65.66, 419.21 65.66, 419.21 65.66 M419.21 65.66 C419.21 65.66, 419.21 65.66, 419.21 65.66" stroke="#000000" stroke-width="1" fill="none"></path></g></g><g stroke-linecap="round" transform="translate(1949.1307802955323 342.45615629492613) rotate(0 106 47)"><path d="M23.5 0 M23.5 0 C72.33 0, 121.15 0, 188.5 0 M23.5 0 C72.51 0, 121.52 0, 188.5 0 M188.5 0 C204.17 0, 212 7.83, 212 23.5 M188.5 0 C204.17 0, 212 7.83, 212 23.5 M212 23.5 C212 38.98, 212 54.45, 212 70.5 M212 23.5 C212 41.33, 212 59.15, 212 70.5 M212 70.5 C212 86.17, 204.17 94, 188.5 94 M212 70.5 C212 86.17, 204.17 94, 188.5 94 M188.5 94 C137.31 94, 86.12 94, 23.5 94 M188.5 94 C152.78 94, 117.06 94, 23.5 94 M23.5 94 C7.83 94, 0 86.17, 0 70.5 M23.5 94 C7.83 94, 0 86.17, 0 70.5 M0 70.5 C0 58.39, 0 46.29, 0 23.5 M0 70.5 C0 55.67, 0 40.85, 0 23.5 M0 23.5 C0 7.83, 7.83 0, 23.5 0 M0 23.5 C0 7.83, 7.83 0, 23.5 0" stroke="#000000" stroke-width="1" fill="none"></path></g><g transform="translate(2002.6307802955323 373.45615629492613) rotate(0 52.5 16)"><text x="52.5" y="26" font-family="Helvetica, Segoe UI Emoji" font-size="28px" fill="#000000" text-anchor="middle" style="white-space: pre;" direction="ltr">green_4</text></g><g stroke-linecap="round"><g transform="translate(2063.8245471343034 272.2656521254098) rotate(0 1.2305493280434803 34.59525208475816)"><path d="M0 0 C0.41 11.53, 2.05 57.66, 2.46 69.19 M0 0 C0.41 11.53, 2.05 57.66, 2.46 69.19" stroke="#000000" stroke-width="1" fill="none"></path></g><g transform="translate(2063.8245471343034 272.2656521254098) rotate(0 1.2305493280434803 34.59525208475816)"><path d="M2.46 69.19 L-4.36 55.83 L8.31 55.38 L2.46 69.19" stroke="none" stroke-width="0" fill="#000000" fill-rule="evenodd"></path><path d="M2.46 69.19 C-0.21 63.95, -2.89 58.71, -4.36 55.83 M2.46 69.19 C0.82 65.98, -0.82 62.76, -4.36 55.83 M-4.36 55.83 C-1.75 55.74, 0.86 55.64, 8.31 55.38 M-4.36 55.83 C-1.6 55.73, 1.16 55.63, 8.31 55.38 M8.31 55.38 C7.05 58.37, 5.78 61.36, 2.46 69.19 M8.31 55.38 C6.89 58.74, 5.46 62.11, 2.46 69.19 M2.46 69.19 C2.46 69.19, 2.46 69.19, 2.46 69.19 M2.46 69.19 C2.46 69.19, 2.46 69.19, 2.46 69.19" stroke="#000000" stroke-width="1" fill="none"></path></g></g><g stroke-linecap="round"><g transform="translate(1363.009701100312 102.88582366679702) rotate(0 347.42643106976334 36.174533548897216)"><path d="M0 0 C115.81 12.06, 579.04 60.29, 694.85 72.35 M0 0 C115.81 12.06, 579.04 60.29, 694.85 72.35" stroke="#000000" stroke-width="1" fill="none"></path></g><g transform="translate(1363.009701100312 102.88582366679702) rotate(0 347.42643106976334 36.174533548897216)"><path d="M694.85 72.35 L680.67 77.25 L681.99 64.64 L694.85 72.35" stroke="none" stroke-width="0" fill="#000000" fill-rule="evenodd"></path><path d="M694.85 72.35 C689.72 74.12, 684.58 75.9, 680.67 77.25 M694.85 72.35 C689.9 74.06, 684.94 75.77, 680.67 77.25 M680.67 77.25 C680.97 74.45, 681.26 71.65, 681.99 64.64 M680.67 77.25 C681.12 72.96, 681.57 68.67, 681.99 64.64 M681.99 64.64 C685.79 66.91, 689.58 69.19, 694.85 72.35 M681.99 64.64 C684.79 66.32, 687.59 68, 694.85 72.35 M694.85 72.35 C694.85 72.35, 694.85 72.35, 694.85 72.35 M694.85 72.35 C694.85 72.35, 694.85 72.35, 694.85 72.35" stroke="#000000" stroke-width="1" fill="none"></path></g></g><g stroke-linecap="round" transform="translate(10 186.42530338623465) rotate(0 106 47)"><path d="M23.5 0 M23.5 0 C63.79 0, 104.08 0, 188.5 0 M23.5 0 C60.71 0, 97.93 0, 188.5 0 M188.5 0 C204.17 0, 212 7.83, 212 23.5 M188.5 0 C204.17 0, 212 7.83, 212 23.5 M212 23.5 C212 36.32, 212 49.13, 212 70.5 M212 23.5 C212 40.1, 212 56.71, 212 70.5 M212 70.5 C212 86.17, 204.17 94, 188.5 94 M212 70.5 C212 86.17, 204.17 94, 188.5 94 M188.5 94 C136.6 94, 84.69 94, 23.5 94 M188.5 94 C137.03 94, 85.56 94, 23.5 94 M23.5 94 C7.83 94, 0 86.17, 0 70.5 M23.5 94 C7.83 94, 0 86.17, 0 70.5 M0 70.5 C0 53.12, 0 35.75, 0 23.5 M0 70.5 C0 56.75, 0 43, 0 23.5 M0 23.5 C0 7.83, 7.83 0, 23.5 0 M0 23.5 C0 7.83, 7.83 0, 23.5 0" stroke="#000000" stroke-width="1" fill="none"></path></g><g transform="translate(66.5 217.42530338623465) rotate(0 49.5 16)"><text x="49.5" y="26" font-family="Helvetica, Segoe UI Emoji" font-size="28px" fill="#000000" text-anchor="middle" style="white-space: pre;" direction="ltr">white_1</text></g><g stroke-linecap="round"><g transform="translate(1369.8273868905087 104.83596513322345) rotate(0 -623.1887340057888 40.16393232039536)"><path d="M0 0 C-439.42 28.32, -878.85 56.64, -1246.38 80.33 M0 0 C-440.43 28.39, -880.86 56.77, -1246.38 80.33" stroke="#000000" stroke-width="1" fill="none"></path></g><g transform="translate(1369.8273868905087 104.83596513322345) rotate(0 -623.1887340057888 40.16393232039536)"><path d="M-1246.38 80.33 L-1233.22 73.13 L-1232.4 85.78 L-1246.38 80.33" stroke="none" stroke-width="0" fill="#000000" fill-rule="evenodd"></path><path d="M-1246.38 80.33 C-1241.74 77.79, -1237.1 75.25, -1233.22 73.13 M-1246.38 80.33 C-1241.73 77.78, -1237.08 75.24, -1233.22 73.13 M-1233.22 73.13 C-1232.89 78.16, -1232.57 83.2, -1232.4 85.78 M-1233.22 73.13 C-1233.02 76.17, -1232.83 79.2, -1232.4 85.78 M-1232.4 85.78 C-1236.6 84.14, -1240.8 82.5, -1246.38 80.33 M-1232.4 85.78 C-1235.64 84.52, -1238.87 83.26, -1246.38 80.33 M-1246.38 80.33 C-1246.38 80.33, -1246.38 80.33, -1246.38 80.33 M-1246.38 80.33 C-1246.38 80.33, -1246.38 80.33, -1246.38 80.33" stroke="#000000" stroke-width="1" fill="none"></path></g></g></svg>