<svg version="1.1" xmlns="http://www.w3.org/2000/svg" viewBox="0 0 848.6123114425221 451.9371287117589" width="848.6123114425221" height="451.9371287117589">
  <!-- svg-source:excalidraw -->
  
  <defs>
    <style>
      @font-face {
        font-family: "Virgil";
        src: url("https://excalidraw.com/Virgil.woff2");
      }
      @font-face {
        font-family: "Cascadia";
        src: url("https://excalidraw.com/Cascadia.woff2");
      }
    </style>
  </defs>
  <rect x="0" y="0" width="848.6123114425221" height="451.9371287117589" fill="#ffffff"></rect><g stroke-linecap="round" transform="translate(553.9411533634212 122.08716838461042) rotate(0 103.74187693399631 43.275466118477766)"><path d="M21.64 0 M21.64 0 C68.66 0, 115.67 0, 185.85 0 M21.64 0 C71.28 0, 120.92 0, 185.85 0 M185.85 0 C200.27 0, 207.48 7.21, 207.48 21.64 M185.85 0 C200.27 0, 207.48 7.21, 207.48 21.64 M207.48 21.64 C207.48 33.03, 207.48 44.43, 207.48 64.91 M207.48 21.64 C207.48 37.34, 207.48 53.04, 207.48 64.91 M207.48 64.91 C207.48 79.34, 200.27 86.55, 185.85 86.55 M207.48 64.91 C207.48 79.34, 200.27 86.55, 185.85 86.55 M185.85 86.55 C127.6 86.55, 69.34 86.55, 21.64 86.55 M185.85 86.55 C129.8 86.55, 73.76 86.55, 21.64 86.55 M21.64 86.55 C7.21 86.55, 0 79.34, 0 64.91 M21.64 86.55 C7.21 86.55, 0 79.34, 0 64.91 M0 64.91 C0 54.41, 0 43.9, 0 21.64 M0 64.91 C0 49.9, 0 34.89, 0 21.64 M0 21.64 C0 7.21, 7.21 0, 21.64 0 M0 21.64 C0 7.21, 7.21 0, 21.64 0" stroke="#000000" stroke-width="1" fill="none"></path></g><g transform="translate(617.8738324755303 142.2595237490802) rotate(0 48 23)"><text x="0" y="19" font-family="Helvetica, Segoe UI Emoji" font-size="20.687986446524793px" fill="#000000" text-anchor="start" style="white-space: pre;" direction="ltr">sorted</text><text x="0" y="42" font-family="Helvetica, Segoe UI Emoji" font-size="20.687986446524793px" fill="#000000" text-anchor="start" style="white-space: pre;" direction="ltr">ascending</text></g><g stroke-linecap="round" transform="translate(134.44170846695204 127.42235160969132) rotate(0 104.33012618201849 38.113785750805434)"><path d="M19.06 0 M19.06 0 C60.45 0, 101.85 0, 189.6 0 M19.06 0 C78.22 0, 137.38 0, 189.6 0 M189.6 0 C202.31 0, 208.66 6.35, 208.66 19.06 M189.6 0 C202.31 0, 208.66 6.35, 208.66 19.06 M208.66 19.06 C208.66 28.38, 208.66 37.7, 208.66 57.17 M208.66 19.06 C208.66 32.19, 208.66 45.32, 208.66 57.17 M208.66 57.17 C208.66 69.88, 202.31 76.23, 189.6 76.23 M208.66 57.17 C208.66 69.88, 202.31 76.23, 189.6 76.23 M189.6 76.23 C154.44 76.23, 119.27 76.23, 19.06 76.23 M189.6 76.23 C128.05 76.23, 66.49 76.23, 19.06 76.23 M19.06 76.23 C6.35 76.23, 0 69.88, 0 57.17 M19.06 76.23 C6.35 76.23, 0 69.88, 0 57.17 M0 57.17 C0 42.08, 0 26.98, 0 19.06 M0 57.17 C0 46.07, 0 34.97, 0 19.06 M0 19.06 C0 6.35, 6.35 0, 19.06 0 M0 19.06 C0 6.35, 6.35 0, 19.06 0" stroke="#000000" stroke-width="1" fill="none"></path></g><g transform="translate(186.34260888891038 150.75924363651512) rotate(0 44.5 13)"><text x="0" y="20" font-family="Helvetica, Segoe UI Emoji" font-size="22.397560273446352px" fill="#000000" text-anchor="start" style="white-space: pre;" direction="ltr">unsorted</text></g><g stroke-linecap="round" transform="translate(558.8569552221057 352.98609576679553) rotate(0 113.74181589884017 44.47551647248167)"><path d="M22.24 0 M22.24 0 C69.91 0, 117.57 0, 205.25 0 M22.24 0 C76.66 0, 131.08 0, 205.25 0 M205.25 0 C220.07 0, 227.48 7.41, 227.48 22.24 M205.25 0 C220.07 0, 227.48 7.41, 227.48 22.24 M227.48 22.24 C227.48 38.17, 227.48 54.11, 227.48 66.71 M227.48 22.24 C227.48 38.66, 227.48 55.08, 227.48 66.71 M227.48 66.71 C227.48 81.54, 220.07 88.95, 205.25 88.95 M227.48 66.71 C227.48 81.54, 220.07 88.95, 205.25 88.95 M205.25 88.95 C151.02 88.95, 96.79 88.95, 22.24 88.95 M205.25 88.95 C145.7 88.95, 86.15 88.95, 22.24 88.95 M22.24 88.95 C7.41 88.95, 0 81.54, 0 66.71 M22.24 88.95 C7.41 88.95, 0 81.54, 0 66.71 M0 66.71 C0 57.8, 0 48.9, 0 22.24 M0 66.71 C0 51.42, 0 36.13, 0 22.24 M0 22.24 C0 7.41, 7.41 0, 22.24 0 M0 22.24 C0 7.41, 7.41 0, 22.24 0" stroke="#000000" stroke-width="1" fill="none"></path></g><g transform="translate(620.8568177670469 367.07601737746546) rotate(0 57 25.50000000000003)"><text x="0" y="20.5" font-family="Helvetica, Segoe UI Emoji" font-size="21.980355980531943px" fill="#000000" text-anchor="start" style="white-space: pre;" direction="ltr">sorted</text><text x="0" y="46" font-family="Helvetica, Segoe UI Emoji" font-size="21.980355980531943px" fill="#000000" text-anchor="start" style="white-space: pre;" direction="ltr">descending</text></g><g stroke-linecap="round" transform="translate(10 146.83549107783983) rotate(0 14.767305821084108 14.388662509383153)"><path d="M29.53 14.39 C29.53 15.22, 29.46 16.07, 29.31 16.89 C29.16 17.71, 28.94 18.53, 28.64 19.31 C28.35 20.09, 27.98 20.86, 27.56 21.58 C27.13 22.3, 26.63 23, 26.08 23.64 C25.53 24.28, 24.91 24.88, 24.26 25.41 C23.6 25.95, 22.89 26.43, 22.15 26.85 C21.41 27.27, 20.62 27.62, 19.82 27.91 C19.01 28.19, 18.17 28.41, 17.33 28.56 C16.49 28.7, 15.62 28.78, 14.77 28.78 C13.91 28.78, 13.04 28.7, 12.2 28.56 C11.36 28.41, 10.52 28.19, 9.72 27.91 C8.91 27.62, 8.12 27.27, 7.38 26.85 C6.64 26.43, 5.93 25.95, 5.28 25.41 C4.62 24.88, 4 24.28, 3.45 23.64 C2.91 23, 2.41 22.3, 1.98 21.58 C1.55 20.86, 1.18 20.09, 0.89 19.31 C0.6 18.53, 0.37 17.71, 0.22 16.89 C0.08 16.07, 0 15.22, 0 14.39 C0 13.56, 0.08 12.71, 0.22 11.89 C0.37 11.07, 0.6 10.25, 0.89 9.47 C1.18 8.68, 1.55 7.92, 1.98 7.19 C2.41 6.47, 2.91 5.78, 3.45 5.14 C4 4.5, 4.62 3.9, 5.28 3.37 C5.93 2.83, 6.64 2.34, 7.38 1.93 C8.12 1.51, 8.91 1.15, 9.72 0.87 C10.52 0.58, 11.36 0.36, 12.2 0.22 C13.04 0.07, 13.91 0, 14.77 0 C15.62 0, 16.49 0.07, 17.33 0.22 C18.17 0.36, 19.01 0.58, 19.82 0.87 C20.62 1.15, 21.41 1.51, 22.15 1.93 C22.89 2.34, 23.6 2.83, 24.26 3.37 C24.91 3.9, 25.53 4.5, 26.08 5.14 C26.63 5.78, 27.13 6.47, 27.56 7.19 C27.98 7.92, 28.35 8.68, 28.64 9.47 C28.94 10.25, 29.16 11.07, 29.31 11.89 C29.46 12.71, 29.5 13.97, 29.53 14.39 C29.57 14.81, 29.57 13.97, 29.53 14.39" stroke="none" stroke-width="0" fill="#000000"></path><path d="M29.53 14.39 C29.53 15.22, 29.46 16.07, 29.31 16.89 C29.16 17.71, 28.94 18.53, 28.64 19.31 C28.35 20.09, 27.98 20.86, 27.56 21.58 C27.13 22.3, 26.63 23, 26.08 23.64 C25.53 24.28, 24.91 24.88, 24.26 25.41 C23.6 25.95, 22.89 26.43, 22.15 26.85 C21.41 27.27, 20.62 27.62, 19.82 27.91 C19.01 28.19, 18.17 28.41, 17.33 28.56 C16.49 28.7, 15.62 28.78, 14.77 28.78 C13.91 28.78, 13.04 28.7, 12.2 28.56 C11.36 28.41, 10.52 28.19, 9.72 27.91 C8.91 27.62, 8.12 27.27, 7.38 26.85 C6.64 26.43, 5.93 25.95, 5.28 25.41 C4.62 24.88, 4 24.28, 3.45 23.64 C2.91 23, 2.41 22.3, 1.98 21.58 C1.55 20.86, 1.18 20.09, 0.89 19.31 C0.6 18.53, 0.37 17.71, 0.22 16.89 C0.08 16.07, 0 15.22, 0 14.39 C0 13.56, 0.08 12.71, 0.22 11.89 C0.37 11.07, 0.6 10.25, 0.89 9.47 C1.18 8.68, 1.55 7.92, 1.98 7.19 C2.41 6.47, 2.91 5.78, 3.45 5.14 C4 4.5, 4.62 3.9, 5.28 3.37 C5.93 2.83, 6.64 2.34, 7.38 1.93 C8.12 1.51, 8.91 1.15, 9.72 0.87 C10.52 0.58, 11.36 0.36, 12.2 0.22 C13.04 0.07, 13.91 0, 14.77 0 C15.62 0, 16.49 0.07, 17.33 0.22 C18.17 0.36, 19.01 0.58, 19.82 0.87 C20.62 1.15, 21.41 1.51, 22.15 1.93 C22.89 2.34, 23.6 2.83, 24.26 3.37 C24.91 3.9, 25.53 4.5, 26.08 5.14 C26.63 5.78, 27.13 6.47, 27.56 7.19 C27.98 7.92, 28.35 8.68, 28.64 9.47 C28.94 10.25, 29.16 11.07, 29.31 11.89 C29.46 12.71, 29.5 13.97, 29.53 14.39 C29.57 14.81, 29.57 13.97, 29.53 14.39" stroke="#000000" stroke-width="1" fill="none"></path></g><g stroke-linecap="round"><g transform="translate(40.79078992286736 162.19010286024167) rotate(0 46.2078263404743 0.054318462637041875)"><path d="M0 0 C15.4 0.02, 77.01 0.09, 92.42 0.11 M0 0 C15.4 0.02, 77.01 0.09, 92.42 0.11" stroke="#000000" stroke-width="1" fill="none"></path></g><g transform="translate(40.79078992286736 162.19010286024167) rotate(0 46.2078263404743 0.054318462637041875)"><path d="M92.42 0.11 L78.81 6.43 L78.83 -6.25 L92.42 0.11" stroke="none" stroke-width="0" fill="#000000" fill-rule="evenodd"></path><path d="M92.42 0.11 C87.24 2.52, 82.06 4.92, 78.81 6.43 M92.42 0.11 C87.1 2.58, 81.79 5.05, 78.81 6.43 M78.81 6.43 C78.82 1.91, 78.82 -2.62, 78.83 -6.25 M78.81 6.43 C78.82 2.74, 78.82 -0.96, 78.83 -6.25 M78.83 -6.25 C82.16 -4.69, 85.5 -3.13, 92.42 0.11 M78.83 -6.25 C81.57 -4.96, 84.31 -3.68, 92.42 0.11 M92.42 0.11 C92.42 0.11, 92.42 0.11, 92.42 0.11 M92.42 0.11 C92.42 0.11, 92.42 0.11, 92.42 0.11" stroke="#000000" stroke-width="1" fill="none"></path></g></g><g stroke-linecap="round"><g transform="translate(344.38690470601557 164.11081958437643) rotate(0 104.13465239118955 0.06508675225961724)"><path d="M0 0 C34.71 0.02, 173.56 0.11, 208.27 0.13 M0 0 C34.71 0.02, 173.56 0.11, 208.27 0.13" stroke="#000000" stroke-width="1" fill="none"></path></g><g transform="translate(344.38690470601557 164.11081958437643) rotate(0 104.13465239118955 0.06508675225961724)"><path d="M208.27 0.13 L194.67 6.46 L194.68 -6.22 L208.27 0.13" stroke="none" stroke-width="0" fill="#000000" fill-rule="evenodd"></path><path d="M208.27 0.13 C203.4 2.4, 198.53 4.67, 194.67 6.46 M208.27 0.13 C203.94 2.15, 199.6 4.16, 194.67 6.46 M194.67 6.46 C194.67 3.4, 194.67 0.33, 194.68 -6.22 M194.67 6.46 C194.67 1.42, 194.68 -3.63, 194.68 -6.22 M194.68 -6.22 C199.53 -3.95, 204.39 -1.68, 208.27 0.13 M194.68 -6.22 C199.27 -4.07, 203.86 -1.93, 208.27 0.13 M208.27 0.13 C208.27 0.13, 208.27 0.13, 208.27 0.13 M208.27 0.13 C208.27 0.13, 208.27 0.13, 208.27 0.13" stroke="#000000" stroke-width="1" fill="none"></path></g></g><g stroke-linecap="round"><g transform="translate(624.843207992025 209.87401004121) rotate(0 0.9459067025840113 70.93808815297078)"><path d="M0 0 C0.32 23.65, 1.58 118.23, 1.89 141.88 M0 0 C0.32 23.65, 1.58 118.23, 1.89 141.88" stroke="#000000" stroke-width="1" fill="none"></path></g><g transform="translate(624.843207992025 209.87401004121) rotate(0 0.9459067025840113 70.93808815297078)"><path d="M1.89 141.88 L-4.63 128.37 L8.05 128.2 L1.89 141.88" stroke="none" stroke-width="0" fill="#000000" fill-rule="evenodd"></path><path d="M1.89 141.88 C0.28 138.53, -1.33 135.19, -4.63 128.37 M1.89 141.88 C-0.01 137.94, -1.91 134, -4.63 128.37 M-4.63 128.37 C0.27 128.3, 5.16 128.24, 8.05 128.2 M-4.63 128.37 C-0.72 128.32, 3.19 128.26, 8.05 128.2 M8.05 128.2 C6.27 132.16, 4.48 136.12, 1.89 141.88 M8.05 128.2 C5.61 133.61, 3.18 139.02, 1.89 141.88 M1.89 141.88 C1.89 141.88, 1.89 141.88, 1.89 141.88 M1.89 141.88 C1.89 141.88, 1.89 141.88, 1.89 141.88" stroke="#000000" stroke-width="1" fill="none"></path></g></g><g stroke-linecap="round"><g transform="translate(703.3276018508537 350.3733989377057) rotate(0 -0.42871529747276327 -69.7571355010285)"><path d="M0 0 C-0.14 -23.25, -0.71 -116.26, -0.86 -139.51 M0 0 C-0.14 -23.25, -0.71 -116.26, -0.86 -139.51" stroke="#000000" stroke-width="1" fill="none"></path></g><g transform="translate(703.3276018508537 350.3733989377057) rotate(0 -0.42871529747276327 -69.7571355010285)"><path d="M-0.86 -139.51 L5.57 -125.96 L-7.11 -125.88 L-0.86 -139.51" stroke="none" stroke-width="0" fill="#000000" fill-rule="evenodd"></path><path d="M-0.86 -139.51 C1.62 -134.28, 4.1 -129.04, 5.57 -125.96 M-0.86 -139.51 C0.79 -136.04, 2.44 -132.56, 5.57 -125.96 M5.57 -125.96 C1.89 -125.94, -1.79 -125.91, -7.11 -125.88 M5.57 -125.96 C1.9 -125.94, -1.77 -125.91, -7.11 -125.88 M-7.11 -125.88 C-5.31 -129.8, -3.52 -133.72, -0.86 -139.51 M-7.11 -125.88 C-5.17 -130.12, -3.22 -134.36, -0.86 -139.51 M-0.86 -139.51 C-0.86 -139.51, -0.86 -139.51, -0.86 -139.51 M-0.86 -139.51 C-0.86 -139.51, -0.86 -139.51, -0.86 -139.51" stroke="#000000" stroke-width="1" fill="none"></path></g></g><g transform="translate(386.3299229189822 126.54353957619843) rotate(0 58 10.5)"><text x="0" y="16" font-family="Helvetica, Segoe UI Emoji" font-size="17.58585488042078px" fill="#000000" text-anchor="start" style="white-space: pre;" direction="ltr">sort ascending</text></g><g transform="translate(482.4336925617431 257.4784510733566) rotate(0 63.00000000000006 10.5)"><text x="0" y="16" font-family="Helvetica, Segoe UI Emoji" font-size="17.58585488042078px" fill="#000000" text-anchor="start" style="white-space: pre;" direction="ltr">sort descending</text></g><g transform="translate(722.6123114425221 254.6192582258485) rotate(0 58 10.5)"><text x="0" y="16" font-family="Helvetica, Segoe UI Emoji" font-size="17.58585488042078px" fill="#000000" text-anchor="start" style="white-space: pre;" direction="ltr">sort ascending</text></g><g stroke-linecap="round"><g transform="translate(658.1880419107964 121.11668584730317) rotate(0 -207.50114976929848 -36.96995405189912)"><path d="M0 0 C-35.13 -13.14, -141.6 -79.65, -210.77 -78.83 C-279.94 -78.02, -380.96 -9.05, -415 4.9 M0 0 C-35.13 -13.14, -141.6 -79.65, -210.77 -78.83 C-279.94 -78.02, -380.96 -9.05, -415 4.9" stroke="#000000" stroke-width="1" fill="none"></path></g><g transform="translate(658.1880419107964 121.11668584730317) rotate(0 -207.50114976929848 -36.96995405189912)"><path d="M-415 4.9 L-405.89 -7.02 L-400.02 4.22 L-415 4.9" stroke="none" stroke-width="0" fill="#000000" fill-rule="evenodd"></path><path d="M-415 4.9 C-412.85 2.08, -410.69 -0.74, -405.89 -7.02 M-415 4.9 C-411.56 0.4, -408.12 -4.1, -405.89 -7.02 M-405.89 -7.02 C-404.3 -3.96, -402.7 -0.91, -400.02 4.22 M-405.89 -7.02 C-403.82 -3.04, -401.74 0.93, -400.02 4.22 M-400.02 4.22 C-404.82 4.44, -409.62 4.66, -415 4.9 M-400.02 4.22 C-404.23 4.41, -408.45 4.6, -415 4.9 M-415 4.9 C-415 4.9, -415 4.9, -415 4.9 M-415 4.9 C-415 4.9, -415 4.9, -415 4.9" stroke="#000000" stroke-width="1" fill="none"></path></g></g><g stroke-linecap="round"><g transform="translate(556.4798322182729 403.7757185193379) rotate(0 -158.07667251033496 -100.48282797350123)"><path d="M0 0 C-52.69 -33.49, -263.46 -167.47, -316.15 -200.97 M0 0 C-52.69 -33.49, -263.46 -167.47, -316.15 -200.97" stroke="#000000" stroke-width="1" fill="none"></path></g><g transform="translate(556.4798322182729 403.7757185193379) rotate(0 -158.07667251033496 -100.48282797350123)"><path d="M-316.15 -200.97 L-301.28 -199.02 L-308.08 -188.32 L-316.15 -200.97" stroke="none" stroke-width="0" fill="#000000" fill-rule="evenodd"></path><path d="M-316.15 -200.97 C-312.35 -200.47, -308.55 -199.97, -301.28 -199.02 M-316.15 -200.97 C-312.43 -200.48, -308.71 -199.99, -301.28 -199.02 M-301.28 -199.02 C-302.83 -196.59, -304.38 -194.15, -308.08 -188.32 M-301.28 -199.02 C-303.41 -195.66, -305.55 -192.31, -308.08 -188.32 M-308.08 -188.32 C-310.52 -192.14, -312.96 -195.96, -316.15 -200.97 M-308.08 -188.32 C-311.02 -192.92, -313.96 -197.52, -316.15 -200.97 M-316.15 -200.97 C-316.15 -200.97, -316.15 -200.97, -316.15 -200.97 M-316.15 -200.97 C-316.15 -200.97, -316.15 -200.97, -316.15 -200.97" stroke="#000000" stroke-width="1" fill="none"></path></g></g><g transform="translate(424.9534709159534 10) rotate(0 29 11.499999999999993)"><text x="0" y="18" font-family="Helvetica, Segoe UI Emoji" font-size="20px" fill="#000000" text-anchor="start" style="white-space: pre;" direction="ltr">unsort</text></g><g transform="translate(351.83910576026346 322.632146842835) rotate(0 29 11.5)"><text x="0" y="18" font-family="Helvetica, Segoe UI Emoji" font-size="20px" fill="#000000" text-anchor="start" style="white-space: pre;" direction="ltr">unsort</text></g></svg>