<svg version="1.1" xmlns="http://www.w3.org/2000/svg" viewBox="0 0 796.3405870197859 453.60018751083305" width="1592.6811740395717" height="907.2003750216661">
  <!-- svg-source:excalidraw -->
  
  <defs>
    <style>
      @font-face {
        font-family: "Virgil";
        src: url("https://excalidraw.com/Virgil.woff2");
      }
      @font-face {
        font-family: "Cascadia";
        src: url("https://excalidraw.com/Cascadia.woff2");
      }
    </style>
  </defs>
  <rect x="0" y="0" width="796.3405870197859" height="453.60018751083305" fill="#ffffff"></rect><g stroke-linecap="round" transform="translate(553.9411533634211 123.75022718368473) rotate(0 103.74187693399637 43.275466118477766)"><path d="M21.64 0 M21.64 0 C79.21 0, 136.78 0, 185.85 0 M21.64 0 C62.11 0, 102.59 0, 185.85 0 M185.85 0 C200.27 0, 207.48 7.21, 207.48 21.64 M185.85 0 C200.27 0, 207.48 7.21, 207.48 21.64 M207.48 21.64 C207.48 37.65, 207.48 53.66, 207.48 64.91 M207.48 21.64 C207.48 38.85, 207.48 56.07, 207.48 64.91 M207.48 64.91 C207.48 79.34, 200.27 86.55, 185.85 86.55 M207.48 64.91 C207.48 79.34, 200.27 86.55, 185.85 86.55 M185.85 86.55 C144.84 86.55, 103.84 86.55, 21.64 86.55 M185.85 86.55 C127.7 86.55, 69.55 86.55, 21.64 86.55 M21.64 86.55 C7.21 86.55, 0 79.34, 0 64.91 M21.64 86.55 C7.21 86.55, 0 79.34, 0 64.91 M0 64.91 C0 48.96, 0 33.01, 0 21.64 M0 64.91 C0 55.84, 0 46.76, 0 21.64 M0 21.64 C0 7.21, 7.21 0, 21.64 0 M0 21.64 C0 7.21, 7.21 0, 21.64 0" stroke="#000000" stroke-width="1" fill="none"></path></g><g transform="translate(641.5723614041266 152.801950719832) rotate(0 19.575923639588723 13.242536579721786)"><text x="0" y="21.48507315944357" font-family="Helvetica, Segoe UI Emoji" font-size="23.82273193729505px" fill="#000000" text-anchor="start" style="white-space: pre;" direction="ltr">idle</text></g><g stroke-linecap="round" transform="translate(134.44170846695192 129.0854104087656) rotate(0 104.33012618201849 38.11378575080539)"><path d="M19.06 0 M19.06 0 C74.98 0, 130.9 0, 189.6 0 M19.06 0 C77.79 0, 136.52 0, 189.6 0 M189.6 0 C202.31 0, 208.66 6.35, 208.66 19.06 M189.6 0 C202.31 0, 208.66 6.35, 208.66 19.06 M208.66 19.06 C208.66 32.19, 208.66 45.32, 208.66 57.17 M208.66 19.06 C208.66 30.85, 208.66 42.64, 208.66 57.17 M208.66 57.17 C208.66 69.88, 202.31 76.23, 189.6 76.23 M208.66 57.17 C208.66 69.88, 202.31 76.23, 189.6 76.23 M189.6 76.23 C137.09 76.23, 84.57 76.23, 19.06 76.23 M189.6 76.23 C135.23 76.23, 80.86 76.23, 19.06 76.23 M19.06 76.23 C6.35 76.23, 0 69.88, 0 57.17 M19.06 76.23 C6.35 76.23, 0 69.88, 0 57.17 M0 57.17 C0 45.21, 0 33.25, 0 19.06 M0 57.17 C0 45.44, 0 33.7, 0 19.06 M0 19.06 C0 6.35, 6.35 0, 19.06 0 M0 19.06 C0 6.35, 6.35 0, 19.06 0" stroke="#000000" stroke-width="1" fill="none"></path></g><g transform="translate(186.34260888891026 152.42230243558947) rotate(0 50 13)"><text x="0" y="20" font-family="Helvetica, Segoe UI Emoji" font-size="22.397560273446352px" fill="#000000" text-anchor="start" style="white-space: pre;" direction="ltr">no project</text></g><g stroke-linecap="round" transform="translate(558.8569552221056 354.6491545658697) rotate(0 113.74181589884012 44.47551647248167)"><path d="M22.24 0 M22.24 0 C88.16 0, 154.08 0, 205.25 0 M22.24 0 C66.2 0, 110.16 0, 205.25 0 M205.25 0 C220.07 0, 227.48 7.41, 227.48 22.24 M205.25 0 C220.07 0, 227.48 7.41, 227.48 22.24 M227.48 22.24 C227.48 37.02, 227.48 51.81, 227.48 66.71 M227.48 22.24 C227.48 38.11, 227.48 53.98, 227.48 66.71 M227.48 66.71 C227.48 81.54, 220.07 88.95, 205.25 88.95 M227.48 66.71 C227.48 81.54, 220.07 88.95, 205.25 88.95 M205.25 88.95 C150.25 88.95, 95.25 88.95, 22.24 88.95 M205.25 88.95 C156.2 88.95, 107.15 88.95, 22.24 88.95 M22.24 88.95 C7.41 88.95, 0 81.54, 0 66.71 M22.24 88.95 C7.41 88.95, 0 81.54, 0 66.71 M0 66.71 C0 51.48, 0 36.25, 0 22.24 M0 66.71 C0 56.28, 0 45.85, 0 22.24 M0 22.24 C0 7.41, 7.41 0, 22.24 0 M0 22.24 C0 7.41, 7.41 0, 22.24 0" stroke="#000000" stroke-width="1" fill="none"></path></g><g transform="translate(633.2211411817417 381.10347820218556) rotate(0 40.47223092225863 14.030373386382962)"><text x="0" y="23.06074677276596" font-family="Helvetica, Segoe UI Emoji" font-size="23.72250781326764px" fill="#000000" text-anchor="start" style="white-space: pre;" direction="ltr">running</text></g><g stroke-linecap="round" transform="translate(10 148.49854987691413) rotate(0 14.767305821084108 14.388662509383153)"><path d="M29.53 14.39 C29.53 15.22, 29.46 16.07, 29.31 16.89 C29.16 17.71, 28.94 18.53, 28.64 19.31 C28.35 20.09, 27.98 20.86, 27.56 21.58 C27.13 22.3, 26.63 23, 26.08 23.64 C25.53 24.28, 24.91 24.88, 24.26 25.41 C23.6 25.95, 22.89 26.43, 22.15 26.85 C21.41 27.27, 20.62 27.62, 19.82 27.91 C19.01 28.19, 18.17 28.41, 17.33 28.56 C16.49 28.7, 15.62 28.78, 14.77 28.78 C13.91 28.78, 13.04 28.7, 12.2 28.56 C11.36 28.41, 10.52 28.19, 9.72 27.91 C8.91 27.62, 8.12 27.27, 7.38 26.85 C6.64 26.43, 5.93 25.95, 5.28 25.41 C4.62 24.88, 4 24.28, 3.45 23.64 C2.91 23, 2.41 22.3, 1.98 21.58 C1.55 20.86, 1.18 20.09, 0.89 19.31 C0.6 18.53, 0.37 17.71, 0.22 16.89 C0.08 16.07, 0 15.22, 0 14.39 C0 13.56, 0.08 12.71, 0.22 11.89 C0.37 11.07, 0.6 10.25, 0.89 9.47 C1.18 8.68, 1.55 7.92, 1.98 7.19 C2.41 6.47, 2.91 5.78, 3.45 5.14 C4 4.5, 4.62 3.9, 5.28 3.37 C5.93 2.83, 6.64 2.34, 7.38 1.93 C8.12 1.51, 8.91 1.15, 9.72 0.87 C10.52 0.58, 11.36 0.36, 12.2 0.22 C13.04 0.07, 13.91 0, 14.77 0 C15.62 0, 16.49 0.07, 17.33 0.22 C18.17 0.36, 19.01 0.58, 19.82 0.87 C20.62 1.15, 21.41 1.51, 22.15 1.93 C22.89 2.34, 23.6 2.83, 24.26 3.37 C24.91 3.9, 25.53 4.5, 26.08 5.14 C26.63 5.78, 27.13 6.47, 27.56 7.19 C27.98 7.92, 28.35 8.68, 28.64 9.47 C28.94 10.25, 29.16 11.07, 29.31 11.89 C29.46 12.71, 29.5 13.97, 29.53 14.39 C29.57 14.81, 29.57 13.97, 29.53 14.39" stroke="none" stroke-width="0" fill="#000000"></path><path d="M29.53 14.39 C29.53 15.22, 29.46 16.07, 29.31 16.89 C29.16 17.71, 28.94 18.53, 28.64 19.31 C28.35 20.09, 27.98 20.86, 27.56 21.58 C27.13 22.3, 26.63 23, 26.08 23.64 C25.53 24.28, 24.91 24.88, 24.26 25.41 C23.6 25.95, 22.89 26.43, 22.15 26.85 C21.41 27.27, 20.62 27.62, 19.82 27.91 C19.01 28.19, 18.17 28.41, 17.33 28.56 C16.49 28.7, 15.62 28.78, 14.77 28.78 C13.91 28.78, 13.04 28.7, 12.2 28.56 C11.36 28.41, 10.52 28.19, 9.72 27.91 C8.91 27.62, 8.12 27.27, 7.38 26.85 C6.64 26.43, 5.93 25.95, 5.28 25.41 C4.62 24.88, 4 24.28, 3.45 23.64 C2.91 23, 2.41 22.3, 1.98 21.58 C1.55 20.86, 1.18 20.09, 0.89 19.31 C0.6 18.53, 0.37 17.71, 0.22 16.89 C0.08 16.07, 0 15.22, 0 14.39 C0 13.56, 0.08 12.71, 0.22 11.89 C0.37 11.07, 0.6 10.25, 0.89 9.47 C1.18 8.68, 1.55 7.92, 1.98 7.19 C2.41 6.47, 2.91 5.78, 3.45 5.14 C4 4.5, 4.62 3.9, 5.28 3.37 C5.93 2.83, 6.64 2.34, 7.38 1.93 C8.12 1.51, 8.91 1.15, 9.72 0.87 C10.52 0.58, 11.36 0.36, 12.2 0.22 C13.04 0.07, 13.91 0, 14.77 0 C15.62 0, 16.49 0.07, 17.33 0.22 C18.17 0.36, 19.01 0.58, 19.82 0.87 C20.62 1.15, 21.41 1.51, 22.15 1.93 C22.89 2.34, 23.6 2.83, 24.26 3.37 C24.91 3.9, 25.53 4.5, 26.08 5.14 C26.63 5.78, 27.13 6.47, 27.56 7.19 C27.98 7.92, 28.35 8.68, 28.64 9.47 C28.94 10.25, 29.16 11.07, 29.31 11.89 C29.46 12.71, 29.5 13.97, 29.53 14.39 C29.57 14.81, 29.57 13.97, 29.53 14.39" stroke="#000000" stroke-width="1" fill="none"></path></g><g stroke-linecap="round"><g transform="translate(40.79078992286736 163.8531616593159) rotate(0 46.2078263404743 0.054318462637013454)"><path d="M0 0 C15.4 0.02, 77.01 0.09, 92.42 0.11 M0 0 C15.4 0.02, 77.01 0.09, 92.42 0.11" stroke="#000000" stroke-width="1" fill="none"></path></g><g transform="translate(40.79078992286736 163.8531616593159) rotate(0 46.2078263404743 0.054318462637013454)"><path d="M92.42 0.11 L78.81 6.43 L78.83 -6.25 L92.42 0.11" stroke="none" stroke-width="0" fill="#000000" fill-rule="evenodd"></path><path d="M92.42 0.11 C89.06 1.67, 85.71 3.23, 78.81 6.43 M92.42 0.11 C87.83 2.24, 83.24 4.37, 78.81 6.43 M78.81 6.43 C78.82 1.39, 78.83 -3.65, 78.83 -6.25 M78.81 6.43 C78.82 1.65, 78.82 -3.12, 78.83 -6.25 M78.83 -6.25 C83.64 -4, 88.45 -1.75, 92.42 0.11 M78.83 -6.25 C82.18 -4.68, 85.53 -3.11, 92.42 0.11 M92.42 0.11 C92.42 0.11, 92.42 0.11, 92.42 0.11 M92.42 0.11 C92.42 0.11, 92.42 0.11, 92.42 0.11" stroke="#000000" stroke-width="1" fill="none"></path></g></g><g stroke-linecap="round"><g transform="translate(344.38690470601546 165.77387838345066) rotate(0 104.13465239118955 0.06508675225961724)"><path d="M0 0 C34.71 0.02, 173.56 0.11, 208.27 0.13 M0 0 C34.71 0.02, 173.56 0.11, 208.27 0.13" stroke="#000000" stroke-width="1" fill="none"></path></g><g transform="translate(344.38690470601546 165.77387838345066) rotate(0 104.13465239118955 0.06508675225961724)"><path d="M208.27 0.13 L194.67 6.46 L194.68 -6.22 L208.27 0.13" stroke="none" stroke-width="0" fill="#000000" fill-rule="evenodd"></path><path d="M208.27 0.13 C203.31 2.44, 198.35 4.75, 194.67 6.46 M208.27 0.13 C205.18 1.57, 202.1 3, 194.67 6.46 M194.67 6.46 C194.67 3.73, 194.67 1.01, 194.68 -6.22 M194.67 6.46 C194.67 3.68, 194.67 0.89, 194.68 -6.22 M194.68 -6.22 C199.23 -4.09, 203.78 -1.97, 208.27 0.13 M194.68 -6.22 C198.46 -4.45, 202.24 -2.69, 208.27 0.13 M208.27 0.13 C208.27 0.13, 208.27 0.13, 208.27 0.13 M208.27 0.13 C208.27 0.13, 208.27 0.13, 208.27 0.13" stroke="#000000" stroke-width="1" fill="none"></path></g></g><g stroke-linecap="round"><g transform="translate(623.6689639871876 211.5370688402844) rotate(0 1.031223209802306 70.93808815297075)"><path d="M0 0 C0.34 23.65, 1.72 118.23, 2.06 141.88 M0 0 C0.34 23.65, 1.72 118.23, 2.06 141.88" stroke="#000000" stroke-width="1" fill="none"></path></g><g transform="translate(623.6689639871876 211.5370688402844) rotate(0 1.031223209802306 70.93808815297075)"><path d="M2.06 141.88 L-4.47 128.38 L8.2 128.19 L2.06 141.88" stroke="none" stroke-width="0" fill="#000000" fill-rule="evenodd"></path><path d="M2.06 141.88 C-0.19 137.23, -2.44 132.58, -4.47 128.38 M2.06 141.88 C0.3 138.24, -1.46 134.61, -4.47 128.38 M-4.47 128.38 C-0.55 128.32, 3.37 128.26, 8.2 128.19 M-4.47 128.38 C-1.25 128.33, 1.98 128.28, 8.2 128.19 M8.2 128.19 C6.25 132.55, 4.29 136.92, 2.06 141.88 M8.2 128.19 C6.32 132.4, 4.43 136.6, 2.06 141.88 M2.06 141.88 C2.06 141.88, 2.06 141.88, 2.06 141.88 M2.06 141.88 C2.06 141.88, 2.06 141.88, 2.06 141.88" stroke="#000000" stroke-width="1" fill="none"></path></g></g><g stroke-linecap="round"><g transform="translate(703.3276018508537 352.0364577367799) rotate(0 -0.42871529747276327 -69.75713550102853)"><path d="M0 0 C-0.14 -23.25, -0.71 -116.26, -0.86 -139.51 M0 0 C-0.14 -23.25, -0.71 -116.26, -0.86 -139.51" stroke="#000000" stroke-width="1" fill="none"></path></g><g transform="translate(703.3276018508537 352.0364577367799) rotate(0 -0.42871529747276327 -69.75713550102853)"><path d="M-0.86 -139.51 L5.57 -125.96 L-7.11 -125.88 L-0.86 -139.51" stroke="none" stroke-width="0" fill="#000000" fill-rule="evenodd"></path><path d="M-0.86 -139.51 C0.54 -136.57, 1.94 -133.62, 5.57 -125.96 M-0.86 -139.51 C1.62 -134.29, 4.1 -129.06, 5.57 -125.96 M5.57 -125.96 C1.6 -125.93, -2.37 -125.91, -7.11 -125.88 M5.57 -125.96 C1.36 -125.93, -2.85 -125.91, -7.11 -125.88 M-7.11 -125.88 C-4.64 -131.28, -2.16 -136.67, -0.86 -139.51 M-7.11 -125.88 C-5.58 -129.22, -4.04 -132.57, -0.86 -139.51 M-0.86 -139.51 C-0.86 -139.51, -0.86 -139.51, -0.86 -139.51 M-0.86 -139.51 C-0.86 -139.51, -0.86 -139.51, -0.86 -139.51" stroke="#000000" stroke-width="1" fill="none"></path></g></g><g transform="translate(386.3299229189822 122.02439736244992) rotate(0 31.755814553286882 13.075923639588723)"><text x="0" y="20.15184727917744" font-family="Helvetica, Segoe UI Emoji" font-size="21.900123386025786px" fill="#000000" text-anchor="start" style="white-space: pre;" direction="ltr">create</text></g><g transform="translate(543.2255847891786 253.13098207458154) rotate(0 23.15184727917739 13.505244246186862)"><text x="0" y="22.010488492373682" font-family="Helvetica, Segoe UI Emoji" font-size="22.619168136959953px" fill="#000000" text-anchor="start" style="white-space: pre;" direction="ltr">start</text></g><g transform="translate(722.6123114425219 251.13046974574536) rotate(0 31.133151522830303 13.075923639588723)"><text x="0" y="20.151847279177453" font-family="Helvetica, Segoe UI Emoji" font-size="21.90012338602579px" fill="#000000" text-anchor="start" style="white-space: pre;" direction="ltr">pause</text></g><g stroke-linecap="round"><g transform="translate(658.1880419107962 122.77974464637748) rotate(0 -207.50114976929848 -36.96995405189915)"><path d="M0 0 C-35.13 -13.14, -141.6 -79.65, -210.77 -78.83 C-279.94 -78.02, -380.96 -9.05, -415 4.9 M0 0 C-35.13 -13.14, -141.6 -79.65, -210.77 -78.83 C-279.94 -78.02, -380.96 -9.05, -415 4.9" stroke="#000000" stroke-width="1" fill="none"></path></g><g transform="translate(658.1880419107962 122.77974464637748) rotate(0 -207.50114976929848 -36.96995405189915)"><path d="M-415 4.9 L-405.89 -7.02 L-400.02 4.22 L-415 4.9" stroke="none" stroke-width="0" fill="#000000" fill-rule="evenodd"></path><path d="M-415 4.9 C-413.11 2.43, -411.23 -0.04, -405.89 -7.02 M-415 4.9 C-411.36 0.14, -407.72 -4.62, -405.89 -7.02 M-405.89 -7.02 C-404.19 -3.75, -402.48 -0.49, -400.02 4.22 M-405.89 -7.02 C-404.13 -3.64, -402.37 -0.27, -400.02 4.22 M-400.02 4.22 C-403.68 4.39, -407.35 4.55, -415 4.9 M-400.02 4.22 C-403.2 4.36, -406.38 4.51, -415 4.9 M-415 4.9 C-415 4.9, -415 4.9, -415 4.9 M-415 4.9 C-415 4.9, -415 4.9, -415 4.9" stroke="#000000" stroke-width="1" fill="none"></path></g></g><g stroke-linecap="round"><g transform="translate(556.4798322182728 405.438777318412) rotate(0 -158.07667251033496 -100.48282797350123)"><path d="M0 0 C-52.69 -33.49, -263.46 -167.47, -316.15 -200.97 M0 0 C-52.69 -33.49, -263.46 -167.47, -316.15 -200.97" stroke="#000000" stroke-width="1" fill="none"></path></g><g transform="translate(556.4798322182728 405.438777318412) rotate(0 -158.07667251033496 -100.48282797350123)"><path d="M-316.15 -200.97 L-301.28 -199.02 L-308.08 -188.32 L-316.15 -200.97" stroke="none" stroke-width="0" fill="#000000" fill-rule="evenodd"></path><path d="M-316.15 -200.97 C-311.81 -200.4, -307.48 -199.83, -301.28 -199.02 M-316.15 -200.97 C-311.21 -200.32, -306.26 -199.67, -301.28 -199.02 M-301.28 -199.02 C-303.08 -196.19, -304.88 -193.36, -308.08 -188.32 M-301.28 -199.02 C-303.32 -195.81, -305.37 -192.59, -308.08 -188.32 M-308.08 -188.32 C-311.13 -193.09, -314.17 -197.86, -316.15 -200.97 M-308.08 -188.32 C-310.85 -192.65, -313.61 -196.98, -316.15 -200.97 M-316.15 -200.97 C-316.15 -200.97, -316.15 -200.97, -316.15 -200.97 M-316.15 -200.97 C-316.15 -200.97, -316.15 -200.97, -316.15 -200.97" stroke="#000000" stroke-width="1" fill="none"></path></g></g><g transform="translate(424.9534709159534 10) rotate(0 30.560746772766038 12.331529399537146)"><text x="0" y="18.66305879907434" font-family="Helvetica, Segoe UI Emoji" font-size="21.446138086151603px" fill="#000000" text-anchor="start" style="white-space: pre;" direction="ltr">delete</text></g><g transform="translate(347.80726800425 322.66832374035994) rotate(0 30.515918878006687 12.313440950774691)"><text x="0" y="18.626881901549268" font-family="Helvetica, Segoe UI Emoji" font-size="21.414679914390657px" fill="#000000" text-anchor="start" style="white-space: pre;" direction="ltr">delete</text></g></svg>