<svg version="1.1" xmlns="http://www.w3.org/2000/svg" viewBox="0 0 1547.7165218320386 797.965170471597" width="1547.7165218320386" height="797.965170471597">
  <!-- svg-source:excalidraw -->
  
  <defs>
    <style>
      @font-face {
        font-family: "Virgil";
        src: url("https://excalidraw.com/Virgil.woff2");
      }
      @font-face {
        font-family: "Cascadia";
        src: url("https://excalidraw.com/Cascadia.woff2");
      }
    </style>
  </defs>
  <rect x="0" y="0" width="1547.7165218320386" height="797.965170471597" fill="#ffffff"></rect><g stroke-linecap="round" transform="translate(171.15000879810952 160.65067608670552) rotate(0 106 55)"><path d="M27.5 0 M27.5 0 C76.42 0, 125.35 0, 184.5 0 M27.5 0 C74.3 0, 121.1 0, 184.5 0 M184.5 0 C202.83 0, 212 9.17, 212 27.5 M184.5 0 C202.83 0, 212 9.17, 212 27.5 M212 27.5 C212 41.04, 212 54.59, 212 82.5 M212 27.5 C212 44.09, 212 60.68, 212 82.5 M212 82.5 C212 100.83, 202.83 110, 184.5 110 M212 82.5 C212 100.83, 202.83 110, 184.5 110 M184.5 110 C124.63 110, 64.77 110, 27.5 110 M184.5 110 C137.38 110, 90.25 110, 27.5 110 M27.5 110 C9.17 110, 0 100.83, 0 82.5 M27.5 110 C9.17 110, 0 100.83, 0 82.5 M0 82.5 C0 71.23, 0 59.95, 0 27.5 M0 82.5 C0 61.38, 0 40.26, 0 27.5 M0 27.5 C0 9.17, 9.17 0, 27.5 0 M0 27.5 C0 9.17, 9.17 0, 27.5 0" stroke="#000000" stroke-width="1" fill="none"></path></g><g stroke-linecap="round" transform="translate(778.2548625445106 159.6502292446935) rotate(0 179.5 57.5)"><path d="M28.75 0 M28.75 0 C143.72 0, 258.68 0, 330.25 0 M28.75 0 C119.25 0, 209.74 0, 330.25 0 M330.25 0 C349.42 0, 359 9.58, 359 28.75 M330.25 0 C349.42 0, 359 9.58, 359 28.75 M359 28.75 C359 40.54, 359 52.32, 359 86.25 M359 28.75 C359 50.83, 359 72.91, 359 86.25 M359 86.25 C359 105.42, 349.42 115, 330.25 115 M359 86.25 C359 105.42, 349.42 115, 330.25 115 M330.25 115 C240.83 115, 151.4 115, 28.75 115 M330.25 115 C265.09 115, 199.93 115, 28.75 115 M28.75 115 C9.58 115, 0 105.42, 0 86.25 M28.75 115 C9.58 115, 0 105.42, 0 86.25 M0 86.25 C0 69.79, 0 53.32, 0 28.75 M0 86.25 C0 67.68, 0 49.11, 0 28.75 M0 28.75 C0 9.58, 9.58 0, 28.75 0 M0 28.75 C0 9.58, 9.58 0, 28.75 0" stroke="#000000" stroke-width="1" fill="none"></path></g><g stroke-linecap="round" transform="translate(766.670828549536 515.2022187155812) rotate(0 194.5 60.5)"><path d="M30.25 0 M30.25 0 C109.05 0, 187.86 0, 358.75 0 M30.25 0 C137.48 0, 244.72 0, 358.75 0 M358.75 0 C378.92 0, 389 10.08, 389 30.25 M358.75 0 C378.92 0, 389 10.08, 389 30.25 M389 30.25 C389 52.66, 389 75.08, 389 90.75 M389 30.25 C389 44.7, 389 59.15, 389 90.75 M389 90.75 C389 110.92, 378.92 121, 358.75 121 M389 90.75 C389 110.92, 378.92 121, 358.75 121 M358.75 121 C247.52 121, 136.28 121, 30.25 121 M358.75 121 C268.9 121, 179.06 121, 30.25 121 M30.25 121 C10.08 121, 0 110.92, 0 90.75 M30.25 121 C10.08 121, 0 110.92, 0 90.75 M0 90.75 C0 77.84, 0 64.93, 0 30.25 M0 90.75 C0 77.47, 0 64.19, 0 30.25 M0 30.25 C0 10.08, 10.08 0, 30.25 0 M0 30.25 C0 10.08, 10.08 0, 30.25 0" stroke="#000000" stroke-width="1" fill="none"></path></g><g stroke-linecap="round" transform="translate(10 200.29028323864623) rotate(0 14.767305821084108 14.388662509383266)"><path d="M29.53 14.39 C29.53 15.22, 29.46 16.07, 29.31 16.89 C29.16 17.71, 28.94 18.53, 28.64 19.31 C28.35 20.09, 27.98 20.86, 27.56 21.58 C27.13 22.3, 26.63 23, 26.08 23.64 C25.53 24.28, 24.91 24.88, 24.26 25.41 C23.6 25.95, 22.89 26.43, 22.15 26.85 C21.41 27.27, 20.62 27.62, 19.82 27.91 C19.01 28.19, 18.17 28.41, 17.33 28.56 C16.49 28.7, 15.62 28.78, 14.77 28.78 C13.91 28.78, 13.04 28.7, 12.2 28.56 C11.36 28.41, 10.52 28.19, 9.72 27.91 C8.91 27.62, 8.12 27.27, 7.38 26.85 C6.64 26.43, 5.93 25.95, 5.28 25.41 C4.62 24.88, 4 24.28, 3.45 23.64 C2.91 23, 2.41 22.3, 1.98 21.58 C1.55 20.86, 1.18 20.09, 0.89 19.31 C0.6 18.53, 0.37 17.71, 0.22 16.89 C0.08 16.07, 0 15.22, 0 14.39 C0 13.56, 0.08 12.71, 0.22 11.89 C0.37 11.07, 0.6 10.25, 0.89 9.47 C1.18 8.68, 1.55 7.92, 1.98 7.19 C2.41 6.47, 2.91 5.78, 3.45 5.14 C4 4.5, 4.62 3.9, 5.28 3.37 C5.93 2.83, 6.64 2.34, 7.38 1.93 C8.12 1.51, 8.91 1.15, 9.72 0.87 C10.52 0.58, 11.36 0.36, 12.2 0.22 C13.04 0.07, 13.91 0, 14.77 0 C15.62 0, 16.49 0.07, 17.33 0.22 C18.17 0.36, 19.01 0.58, 19.82 0.87 C20.62 1.15, 21.41 1.51, 22.15 1.93 C22.89 2.34, 23.6 2.83, 24.26 3.37 C24.91 3.9, 25.53 4.5, 26.08 5.14 C26.63 5.78, 27.13 6.47, 27.56 7.19 C27.98 7.92, 28.35 8.68, 28.64 9.47 C28.94 10.25, 29.16 11.07, 29.31 11.89 C29.46 12.71, 29.5 13.97, 29.53 14.39 C29.57 14.81, 29.57 13.97, 29.53 14.39" stroke="none" stroke-width="0" fill="#000000"></path><path d="M29.53 14.39 C29.53 15.22, 29.46 16.07, 29.31 16.89 C29.16 17.71, 28.94 18.53, 28.64 19.31 C28.35 20.09, 27.98 20.86, 27.56 21.58 C27.13 22.3, 26.63 23, 26.08 23.64 C25.53 24.28, 24.91 24.88, 24.26 25.41 C23.6 25.95, 22.89 26.43, 22.15 26.85 C21.41 27.27, 20.62 27.62, 19.82 27.91 C19.01 28.19, 18.17 28.41, 17.33 28.56 C16.49 28.7, 15.62 28.78, 14.77 28.78 C13.91 28.78, 13.04 28.7, 12.2 28.56 C11.36 28.41, 10.52 28.19, 9.72 27.91 C8.91 27.62, 8.12 27.27, 7.38 26.85 C6.64 26.43, 5.93 25.95, 5.28 25.41 C4.62 24.88, 4 24.28, 3.45 23.64 C2.91 23, 2.41 22.3, 1.98 21.58 C1.55 20.86, 1.18 20.09, 0.89 19.31 C0.6 18.53, 0.37 17.71, 0.22 16.89 C0.08 16.07, 0 15.22, 0 14.39 C0 13.56, 0.08 12.71, 0.22 11.89 C0.37 11.07, 0.6 10.25, 0.89 9.47 C1.18 8.68, 1.55 7.92, 1.98 7.19 C2.41 6.47, 2.91 5.78, 3.45 5.14 C4 4.5, 4.62 3.9, 5.28 3.37 C5.93 2.83, 6.64 2.34, 7.38 1.93 C8.12 1.51, 8.91 1.15, 9.72 0.87 C10.52 0.58, 11.36 0.36, 12.2 0.22 C13.04 0.07, 13.91 0, 14.77 0 C15.62 0, 16.49 0.07, 17.33 0.22 C18.17 0.36, 19.01 0.58, 19.82 0.87 C20.62 1.15, 21.41 1.51, 22.15 1.93 C22.89 2.34, 23.6 2.83, 24.26 3.37 C24.91 3.9, 25.53 4.5, 26.08 5.14 C26.63 5.78, 27.13 6.47, 27.56 7.19 C27.98 7.92, 28.35 8.68, 28.64 9.47 C28.94 10.25, 29.16 11.07, 29.31 11.89 C29.46 12.71, 29.5 13.97, 29.53 14.39 C29.57 14.81, 29.57 13.97, 29.53 14.39" stroke="#000000" stroke-width="1" fill="none"></path></g><g stroke-linecap="round"><g transform="translate(42.617844911763925 215.21369942298816) rotate(0 63.619023119643394 0.0901251118852997)"><path d="M0 0 C21.21 0.03, 106.03 0.15, 127.24 0.18 M0 0 C21.21 0.03, 106.03 0.15, 127.24 0.18" stroke="#000000" stroke-width="1" fill="none"></path></g><g transform="translate(42.617844911763925 215.21369942298816) rotate(0 63.619023119643394 0.0901251118852997)"><path d="M127.24 0.18 L113.63 6.5 L113.65 -6.18 L127.24 0.18" stroke="none" stroke-width="0" fill="#000000" fill-rule="evenodd"></path><path d="M127.24 0.18 C122.36 2.45, 117.48 4.71, 113.63 6.5 M127.24 0.18 C124.15 1.62, 121.06 3.05, 113.63 6.5 M113.63 6.5 C113.64 3.2, 113.64 -0.11, 113.65 -6.18 M113.63 6.5 C113.64 3.03, 113.64 -0.44, 113.65 -6.18 M113.65 -6.18 C118.34 -3.98, 123.03 -1.79, 127.24 0.18 M113.65 -6.18 C117.99 -4.15, 122.32 -2.12, 127.24 0.18 M127.24 0.18 C127.24 0.18, 127.24 0.18, 127.24 0.18 M127.24 0.18 C127.24 0.18, 127.24 0.18, 127.24 0.18" stroke="#000000" stroke-width="1" fill="none"></path></g></g><g transform="translate(80.63949817584921 393.83804572994404) rotate(0 73 35)"><text x="146" y="18.333333333333332" font-family="Helvetica, Segoe UI Emoji" font-size="20px" fill="#000000" text-anchor="end" style="white-space: pre;" direction="ltr">update quota</text><text x="146" y="41.666666666666664" font-family="Helvetica, Segoe UI Emoji" font-size="20px" fill="#000000" text-anchor="end" style="white-space: pre;" direction="ltr">[ time &gt;= quota  </text><text x="146" y="65" font-family="Helvetica, Segoe UI Emoji" font-size="20px" fill="#000000" text-anchor="end" style="white-space: pre;" direction="ltr">&amp;&amp; quota &gt; 0 ]</text></g><g transform="translate(527.1321010012781 122.90796040015812) rotate(0 64.5 35)"><text x="64.5" y="18.333333333333332" font-family="Helvetica, Segoe UI Emoji" font-size="20px" fill="#000000" text-anchor="middle" style="white-space: pre;" direction="ltr">update quota</text><text x="64.5" y="41.666666666666664" font-family="Helvetica, Segoe UI Emoji" font-size="20px" fill="#000000" text-anchor="middle" style="white-space: pre;" direction="ltr">[ time &lt; quota </text><text x="64.5" y="65" font-family="Helvetica, Segoe UI Emoji" font-size="20px" fill="#000000" text-anchor="middle" style="white-space: pre;" direction="ltr">&amp;&amp; quota &gt; 0 ]</text></g><g stroke-linecap="round"><g transform="translate(833.4537880882367 274.84809200978725) rotate(0 0 119.19101288665615)"><path d="M0 0 C0 39.73, 0 198.65, 0 238.38 M0 0 C0 39.73, 0 198.65, 0 238.38" stroke="#000000" stroke-width="1" fill="none"></path></g><g transform="translate(833.4537880882367 274.84809200978725) rotate(0 0 119.19101288665615)"><path d="M0 238.38 L-6.34 224.79 L6.34 224.79 L0 238.38" stroke="none" stroke-width="0" fill="#000000" fill-rule="evenodd"></path><path d="M0 238.38 C-1.52 235.12, -3.04 231.87, -6.34 224.79 M0 238.38 C-2.44 233.16, -4.87 227.93, -6.34 224.79 M-6.34 224.79 C-2.1 224.79, 2.15 224.79, 6.34 224.79 M-6.34 224.79 C-1.57 224.79, 3.19 224.79, 6.34 224.79 M6.34 224.79 C3.89 230.04, 1.44 235.29, 0 238.38 M6.34 224.79 C4 229.81, 1.66 234.82, 0 238.38 M0 238.38 C0 238.38, 0 238.38, 0 238.38 M0 238.38 C0 238.38, 0 238.38, 0 238.38" stroke="#000000" stroke-width="1" fill="none"></path></g></g><g transform="translate(675.0401368637607 351.3994073128447) rotate(0 73.5 23)"><text x="147" y="19" font-family="Helvetica, Segoe UI Emoji" font-size="20px" fill="#000000" text-anchor="end" style="white-space: pre;" direction="ltr">update time</text><text x="147" y="42" font-family="Helvetica, Segoe UI Emoji" font-size="20px" fill="#000000" text-anchor="end" style="white-space: pre;" direction="ltr">[ time &gt;= quota ]</text></g><g transform="translate(1100.1335831657007 10) rotate(0 64.5 35)"><text x="64.5" y="18.333333333333332" font-family="Helvetica, Segoe UI Emoji" font-size="20px" fill="#000000" text-anchor="middle" style="white-space: pre;" direction="ltr">update quota</text><text x="64.5" y="41.666666666666664" font-family="Helvetica, Segoe UI Emoji" font-size="20px" fill="#000000" text-anchor="middle" style="white-space: pre;" direction="ltr">[ time &lt; quota </text><text x="64.5" y="65" font-family="Helvetica, Segoe UI Emoji" font-size="20px" fill="#000000" text-anchor="middle" style="white-space: pre;" direction="ltr">&amp;&amp; quota &gt; 0 ]</text></g><g transform="translate(1102.9293939251838 717.965170471597) rotate(0 67 35)"><text x="67" y="18.333333333333332" font-family="Helvetica, Segoe UI Emoji" font-size="20px" fill="#000000" text-anchor="middle" style="white-space: pre;" direction="ltr">update quota</text><text x="67" y="41.666666666666664" font-family="Helvetica, Segoe UI Emoji" font-size="20px" fill="#000000" text-anchor="middle" style="white-space: pre;" direction="ltr">[ time&gt;= quota </text><text x="67" y="65" font-family="Helvetica, Segoe UI Emoji" font-size="20px" fill="#000000" text-anchor="middle" style="white-space: pre;" direction="ltr">&amp;&amp; quota &gt; 0 ]</text></g><g stroke-linecap="round"><g transform="translate(892.03516649669 277.2508159609706) rotate(0 0 117.73303824057962)"><path d="M0 0 C0 39.24, 0 196.22, 0 235.47 M0 0 C0 39.24, 0 196.22, 0 235.47" stroke="#000000" stroke-width="1" fill="none"></path></g><g transform="translate(892.03516649669 277.2508159609706) rotate(0 0 117.73303824057962)"><path d="M0 235.47 L-6.34 221.87 L6.34 221.87 L0 235.47" stroke="none" stroke-width="0" fill="#000000" fill-rule="evenodd"></path><path d="M0 235.47 C-2.26 230.63, -4.51 225.79, -6.34 221.87 M0 235.47 C-1.55 232.15, -3.1 228.83, -6.34 221.87 M-6.34 221.87 C-1.32 221.87, 3.69 221.87, 6.34 221.87 M-6.34 221.87 C-3.27 221.87, -0.21 221.87, 6.34 221.87 M6.34 221.87 C4.88 224.99, 3.43 228.11, 0 235.47 M6.34 221.87 C4.69 225.4, 3.04 228.94, 0 235.47 M0 235.47 C0 235.47, 0 235.47, 0 235.47 M0 235.47 C0 235.47, 0 235.47, 0 235.47" stroke="#000000" stroke-width="1" fill="none"></path></g></g><g transform="translate(902.6872034066366 351.08925975156944) rotate(0 70 35)"><text x="0" y="18.333333333333332" font-family="Helvetica, Segoe UI Emoji" font-size="20px" fill="#000000" text-anchor="start" style="white-space: pre;" direction="ltr">update quota</text><text x="0" y="41.666666666666664" font-family="Helvetica, Segoe UI Emoji" font-size="20px" fill="#000000" text-anchor="start" style="white-space: pre;" direction="ltr">[ time &gt;= quota </text><text x="0" y="65" font-family="Helvetica, Segoe UI Emoji" font-size="20px" fill="#000000" text-anchor="start" style="white-space: pre;" direction="ltr">  &amp;&amp; quota &gt; 0 ]</text></g><g transform="translate(1173.6877264787158 443.16112178195726) rotate(0 67.5 23)"><text x="135" y="19" font-family="Helvetica, Segoe UI Emoji" font-size="20px" fill="#000000" text-anchor="end" style="white-space: pre;" direction="ltr">update time</text><text x="135" y="42" font-family="Helvetica, Segoe UI Emoji" font-size="20px" fill="#000000" text-anchor="end" style="white-space: pre;" direction="ltr">[ time &lt; quota ]</text></g><g transform="translate(1397.7165218320386 444.2985510391136) rotate(0 70 35)"><text x="0" y="18.333333333333332" font-family="Helvetica, Segoe UI Emoji" font-size="20px" fill="#000000" text-anchor="start" style="white-space: pre;" direction="ltr">update quota</text><text x="0" y="41.666666666666664" font-family="Helvetica, Segoe UI Emoji" font-size="20px" fill="#000000" text-anchor="start" style="white-space: pre;" direction="ltr">[ time &lt; quota </text><text x="0" y="65" font-family="Helvetica, Segoe UI Emoji" font-size="20px" fill="#000000" text-anchor="start" style="white-space: pre;" direction="ltr">  &amp;&amp; quota &gt; 0 ]</text></g><g transform="translate(713.2122399975424 32.056223326621875) rotate(0 67.5 23)"><text x="67.5" y="19" font-family="Helvetica, Segoe UI Emoji" font-size="20px" fill="#000000" text-anchor="middle" style="white-space: pre;" direction="ltr">update time</text><text x="67.5" y="42" font-family="Helvetica, Segoe UI Emoji" font-size="20px" fill="#000000" text-anchor="middle" style="white-space: pre;" direction="ltr">[ time &lt; quota ]</text></g><g transform="translate(707.3937476985452 714.9670543825514) rotate(0 73.5 23)"><text x="73.5" y="19" font-family="Helvetica, Segoe UI Emoji" font-size="20px" fill="#000000" text-anchor="middle" style="white-space: pre;" direction="ltr">update time</text><text x="73.5" y="42" font-family="Helvetica, Segoe UI Emoji" font-size="20px" fill="#000000" text-anchor="middle" style="white-space: pre;" direction="ltr">[ time &gt;= quota ]</text></g><g transform="translate(342.2755723414988 39.21471525167544) rotate(0 54 23)"><text x="54" y="19" font-family="Helvetica, Segoe UI Emoji" font-size="20px" fill="#000000" text-anchor="middle" style="white-space: pre;" direction="ltr">update time</text><text x="54" y="42" font-family="Helvetica, Segoe UI Emoji" font-size="20px" fill="#000000" text-anchor="middle" style="white-space: pre;" direction="ltr">[ quota = 0 ]</text></g><g transform="translate(230.65000879810952 192.65067608670552) rotate(0 46.5 23)"><text x="46.5" y="18" font-family="Helvetica, Segoe UI Emoji" font-size="20px" fill="#000000" text-anchor="middle" style="white-space: pre;" direction="ltr">white</text><text x="46.5" y="41" font-family="Helvetica, Segoe UI Emoji" font-size="20px" fill="#000000" text-anchor="middle" style="white-space: pre;" direction="ltr">(no quota)</text></g><g transform="translate(884.7548625445106 194.1502292446935) rotate(0 73 23)"><text x="73" y="18" font-family="Helvetica, Segoe UI Emoji" font-size="20px" fill="#000000" text-anchor="middle" style="white-space: pre;" direction="ltr">green</text><text x="73" y="41" font-family="Helvetica, Segoe UI Emoji" font-size="20px" fill="#000000" text-anchor="middle" style="white-space: pre;" direction="ltr">(time remaining)</text></g><g transform="translate(882.170828549536 552.7022187155812) rotate(0 79 23)"><text x="79" y="18" font-family="Helvetica, Segoe UI Emoji" font-size="20px" fill="#000000" text-anchor="middle" style="white-space: pre;" direction="ltr">red</text><text x="79" y="41" font-family="Helvetica, Segoe UI Emoji" font-size="20px" fill="#000000" text-anchor="middle" style="white-space: pre;" direction="ltr">(quota exceeded)</text></g><g stroke-linecap="round"><g transform="translate(1157.501041498075 548.2062515355756) rotate(0 74.31131988936636 -149.8939927521808)"><path d="M0 0 C51.13 0, 102.25 0, 166.82 0 M0 0 C51.1 0, 102.21 0, 166.82 0 M166.82 0 C166.82 -65.26, 166.82 -130.53, 166.82 -299.79 M166.82 0 C166.82 -75.75, 166.82 -151.49, 166.82 -299.79 M166.82 -299.79 C100.78 -299.79, 34.74 -299.79, -18.19 -299.79 M166.82 -299.79 C103.91 -299.79, 41 -299.79, -18.19 -299.79" stroke="#000000" stroke-width="1" fill="none"></path></g><g transform="translate(1157.501041498075 548.2062515355756) rotate(0 74.31131988936636 -149.8939927521808)"><path d="M-18.19 -299.79 L-4.6 -306.13 L-4.6 -293.45 L-18.19 -299.79" stroke="none" stroke-width="0" fill="#000000" fill-rule="evenodd"></path><path d="M-18.19 -299.79 C-14.03 -301.73, -9.86 -303.67, -4.6 -306.13 M-18.19 -299.79 C-14.03 -301.73, -9.86 -303.67, -4.6 -306.13 M-4.6 -306.13 C-4.6 -303.37, -4.6 -300.61, -4.6 -293.45 M-4.6 -306.13 C-4.6 -302.92, -4.6 -299.72, -4.6 -293.45 M-4.6 -293.45 C-9.45 -295.71, -14.3 -297.97, -18.19 -299.79 M-4.6 -293.45 C-9.22 -295.6, -13.84 -297.76, -18.19 -299.79 M-18.19 -299.79 C-18.19 -299.79, -18.19 -299.79, -18.19 -299.79 M-18.19 -299.79 C-18.19 -299.79, -18.19 -299.79, -18.19 -299.79" stroke="#000000" stroke-width="1" fill="none"></path></g></g><g stroke-linecap="round"><g transform="translate(1157.328239697792 585.999629242116) rotate(0 98.51126954518713 -185.60970343558643)"><path d="M0 0 C76.71 0, 153.41 0, 216.24 0 M0 0 C80.83 0, 161.67 0, 216.24 0 M216.24 0 C216.24 -101.77, 216.24 -203.53, 216.24 -371.22 M216.24 0 C216.24 -84.98, 216.24 -169.96, 216.24 -371.22 M216.24 -371.22 C133.66 -371.22, 51.07 -371.22, -19.22 -371.22 M216.24 -371.22 C142.96 -371.22, 69.68 -371.22, -19.22 -371.22" stroke="#000000" stroke-width="1" fill="none"></path></g><g transform="translate(1157.328239697792 585.999629242116) rotate(0 98.51126954518713 -185.60970343558643)"><path d="M-19.22 -371.22 L-5.63 -377.56 L-5.63 -364.88 L-19.22 -371.22" stroke="none" stroke-width="0" fill="#000000" fill-rule="evenodd"></path><path d="M-19.22 -371.22 C-14.4 -373.47, -9.58 -375.72, -5.63 -377.56 M-19.22 -371.22 C-14.14 -373.59, -9.06 -375.96, -5.63 -377.56 M-5.63 -377.56 C-5.63 -374.08, -5.63 -370.61, -5.63 -364.88 M-5.63 -377.56 C-5.63 -374.66, -5.63 -371.75, -5.63 -364.88 M-5.63 -364.88 C-10.4 -367.1, -15.16 -369.33, -19.22 -371.22 M-5.63 -364.88 C-9.86 -366.85, -14.09 -368.83, -19.22 -371.22 M-19.22 -371.22 C-19.22 -371.22, -19.22 -371.22, -19.22 -371.22 M-19.22 -371.22 C-19.22 -371.22, -19.22 -371.22, -19.22 -371.22" stroke="#000000" stroke-width="1" fill="none"></path></g></g><g stroke-linecap="round"><g transform="translate(1139.7318768479206 190.04023295495062) rotate(0 16.995647490964984 -48.89920253532978)"><path d="M0 0 C24.25 0, 48.5 0, 70.46 0 M0 0 C24.27 0, 48.53 0, 70.46 0 M70.46 0 C70.46 -30.38, 70.46 -60.75, 70.46 -97.8 M70.46 0 C70.46 -22.96, 70.46 -45.92, 70.46 -97.8 M70.46 -97.8 C39.42 -97.8, 8.39 -97.8, -36.46 -97.8 M70.46 -97.8 C29.19 -97.8, -12.08 -97.8, -36.46 -97.8 M-36.46 -97.8 C-36.46 -75.62, -36.46 -53.44, -36.46 -32.93 M-36.46 -97.8 C-36.46 -76.81, -36.46 -55.83, -36.46 -32.93" stroke="#000000" stroke-width="1" fill="none"></path></g><g transform="translate(1139.7318768479206 190.04023295495062) rotate(0 16.995647490964984 -48.89920253532978)"><path d="M-36.46 -32.93 L-42.8 -46.52 L-30.13 -46.52 L-36.46 -32.93" stroke="none" stroke-width="0" fill="#000000" fill-rule="evenodd"></path><path d="M-36.46 -32.93 C-38.65 -37.6, -40.83 -42.28, -42.8 -46.52 M-36.46 -32.93 C-38.65 -37.61, -40.83 -42.29, -42.8 -46.52 M-42.8 -46.52 C-38.87 -46.52, -34.93 -46.52, -30.13 -46.52 M-42.8 -46.52 C-39.83 -46.52, -36.85 -46.52, -30.13 -46.52 M-30.13 -46.52 C-31.97 -42.57, -33.81 -38.63, -36.46 -32.93 M-30.13 -46.52 C-32.57 -41.27, -35.02 -36.03, -36.46 -32.93 M-36.46 -32.93 C-36.46 -32.93, -36.46 -32.93, -36.46 -32.93 M-36.46 -32.93 C-36.46 -32.93, -36.46 -32.93, -36.46 -32.93" stroke="#000000" stroke-width="1" fill="none"></path></g></g><g stroke-linecap="round"><g transform="translate(776.4978911937399 188.80088708340327) rotate(0 -3.0033934819423393 -46.85294519252102)"><path d="M0 0 C-12.74 0, -25.48 0, -56.46 0 M0 0 C-13.94 0, -27.89 0, -56.46 0 M-56.46 0 C-56.78 -24.45, -57.09 -48.9, -57.67 -93.71 M-56.46 0 C-56.73 -20.58, -56.99 -41.16, -57.67 -93.71 M-57.67 -93.71 C-18.92 -93.71, 19.83 -93.71, 50.46 -93.71 M-57.67 -93.71 C-21.17 -93.71, 15.32 -93.71, 50.46 -93.71 M50.46 -93.71 C50.89 -70.59, 51.33 -47.47, 51.66 -30.03 M50.46 -93.71 C50.92 -69.28, 51.38 -44.85, 51.66 -30.03" stroke="#000000" stroke-width="1" fill="none"></path></g><g transform="translate(776.4978911937399 188.80088708340327) rotate(0 -3.0033934819423393 -46.85294519252102)"><path d="M51.66 -30.03 L45.06 -43.51 L57.74 -43.75 L51.66 -30.03" stroke="none" stroke-width="0" fill="#000000" fill-rule="evenodd"></path><path d="M51.66 -30.03 C50.17 -33.07, 48.68 -36.11, 45.06 -43.51 M51.66 -30.03 C50.03 -33.36, 48.4 -36.69, 45.06 -43.51 M45.06 -43.51 C48.37 -43.57, 51.68 -43.63, 57.74 -43.75 M45.06 -43.51 C47.85 -43.56, 50.63 -43.61, 57.74 -43.75 M57.74 -43.75 C55.56 -38.83, 53.38 -33.92, 51.66 -30.03 M57.74 -43.75 C55.69 -39.12, 53.63 -34.49, 51.66 -30.03 M51.66 -30.03 C51.66 -30.03, 51.66 -30.03, 51.66 -30.03 M51.66 -30.03 C51.66 -30.03, 51.66 -30.03, 51.66 -30.03" stroke="#000000" stroke-width="1" fill="none"></path></g></g><g stroke-linecap="round"><g transform="translate(1176.7945237005506 704.9007633550573) rotate(180.18609266373858 -10.410386429065625 -47.108007593760476)"><path d="M0 0 C-15.48 0.05, -30.97 0.1, -66.07 0.21 M0 0 C-19.41 0.06, -38.83 0.13, -66.07 0.21 M-66.07 0.21 C-66.17 -29.01, -66.26 -58.23, -66.38 -94.07 M-66.07 0.21 C-66.18 -32.27, -66.29 -64.76, -66.38 -94.07 M-66.38 -94.07 C-35.18 -94.17, -3.98 -94.27, 45.35 -94.43 M-66.38 -94.07 C-22.43 -94.21, 21.52 -94.35, 45.35 -94.43 M45.35 -94.43 C45.43 -68.72, 45.51 -43.02, 45.56 -28.36 M45.35 -94.43 C45.4 -77.53, 45.45 -60.62, 45.56 -28.36" stroke="#000000" stroke-width="1" fill="none"></path></g><g transform="translate(1176.7945237005506 704.9007633550573) rotate(180.18609266373858 -10.410386429065625 -47.108007593760476)"><path d="M45.56 -28.36 L39.18 -41.93 L51.85 -41.97 L45.56 -28.36" stroke="none" stroke-width="0" fill="#000000" fill-rule="evenodd"></path><path d="M45.56 -28.36 C44.06 -31.54, 42.57 -34.72, 39.18 -41.93 M45.56 -28.36 C43.68 -32.34, 41.81 -36.33, 39.18 -41.93 M39.18 -41.93 C43.11 -41.94, 47.04 -41.96, 51.85 -41.97 M39.18 -41.93 C43.55 -41.94, 47.91 -41.96, 51.85 -41.97 M51.85 -41.97 C50.1 -38.17, 48.34 -34.37, 45.56 -28.36 M51.85 -41.97 C49.38 -36.62, 46.9 -31.26, 45.56 -28.36 M45.56 -28.36 C45.56 -28.36, 45.56 -28.36, 45.56 -28.36 M45.56 -28.36 C45.56 -28.36, 45.56 -28.36, 45.56 -28.36" stroke="#000000" stroke-width="1" fill="none"></path></g></g><g stroke-linecap="round"><g transform="translate(385.2793975215134 190.2937432221088) rotate(0 16.995693319112775 -47.824618607390676)"><path d="M0 0 C22.86 0, 45.72 0, 70.46 0 M0 0 C15.49 0, 30.98 0, 70.46 0 M70.46 0 C70.46 -29.37, 70.46 -58.73, 70.46 -95.65 M70.46 0 C70.46 -23.53, 70.46 -47.06, 70.46 -95.65 M70.46 -95.65 C46.34 -95.65, 22.22 -95.65, -36.46 -95.65 M70.46 -95.65 C47.38 -95.65, 24.3 -95.65, -36.46 -95.65 M-36.46 -95.65 C-36.46 -82.33, -36.46 -69.01, -36.46 -29.57 M-36.46 -95.65 C-36.46 -71.43, -36.46 -47.2, -36.46 -29.57" stroke="#000000" stroke-width="1" fill="none"></path></g><g transform="translate(385.2793975215134 190.2937432221088) rotate(0 16.995693319112775 -47.824618607390676)"><path d="M-36.46 -29.57 L-42.8 -43.17 L-30.13 -43.17 L-36.46 -29.57" stroke="none" stroke-width="0" fill="#000000" fill-rule="evenodd"></path><path d="M-36.46 -29.57 C-38.52 -33.99, -40.58 -38.4, -42.8 -43.17 M-36.46 -29.57 C-37.86 -32.56, -39.25 -35.55, -42.8 -43.17 M-42.8 -43.17 C-38.91 -43.17, -35.02 -43.17, -30.13 -43.17 M-42.8 -43.17 C-39.69 -43.17, -36.57 -43.17, -30.13 -43.17 M-30.13 -43.17 C-31.56 -40.1, -32.99 -37.04, -36.46 -29.57 M-30.13 -43.17 C-31.49 -40.23, -32.86 -37.3, -36.46 -29.57 M-36.46 -29.57 C-36.46 -29.57, -36.46 -29.57, -36.46 -29.57 M-36.46 -29.57 C-36.46 -29.57, -36.46 -29.57, -36.46 -29.57" stroke="#000000" stroke-width="1" fill="none"></path></g></g><g transform="translate(530.3864222749618 255.15184317118428) rotate(0 59 23)"><text x="59" y="19" font-family="Helvetica, Segoe UI Emoji" font-size="20px" fill="#000000" text-anchor="middle" style="white-space: pre;" direction="ltr">update quota</text><text x="59" y="42" font-family="Helvetica, Segoe UI Emoji" font-size="20px" fill="#000000" text-anchor="middle" style="white-space: pre;" direction="ltr">[ quota = 0 ]</text></g><g transform="translate(305.43226880874744 391.2056228969441) rotate(0 59 23)"><text x="0" y="19" font-family="Helvetica, Segoe UI Emoji" font-size="20px" fill="#000000" text-anchor="start" style="white-space: pre;" direction="ltr">update quota</text><text x="0" y="42" font-family="Helvetica, Segoe UI Emoji" font-size="20px" fill="#000000" text-anchor="start" style="white-space: pre;" direction="ltr">[ quota = 0 ]</text></g><g stroke-linecap="round"><g transform="translate(766.8869953890066 545.1535512127366) rotate(0 -237.26808507343642 -136.95476110782488)"><path d="M0 0 C-180.55 0, -361.11 0, -474.54 0 M0 0 C-171.82 0, -343.64 0, -474.54 0 M-474.54 0 C-474.54 -100.34, -474.54 -200.68, -474.54 -273.91 M-474.54 0 C-474.54 -73.19, -474.54 -146.39, -474.54 -273.91" stroke="#000000" stroke-width="1" fill="none"></path></g><g transform="translate(766.8869953890066 545.1535512127366) rotate(0 -237.26808507343642 -136.95476110782488)"><path d="M-474.54 -273.91 L-468.2 -260.31 L-480.88 -260.31 L-474.54 -273.91" stroke="none" stroke-width="0" fill="#000000" fill-rule="evenodd"></path><path d="M-474.54 -273.91 C-472.12 -268.74, -469.71 -263.56, -468.2 -260.31 M-474.54 -273.91 C-472.24 -268.99, -469.95 -264.06, -468.2 -260.31 M-468.2 -260.31 C-472.84 -260.31, -477.49 -260.31, -480.88 -260.31 M-468.2 -260.31 C-471.58 -260.31, -474.97 -260.31, -480.88 -260.31 M-480.88 -260.31 C-479.51 -263.24, -478.15 -266.16, -474.54 -273.91 M-480.88 -260.31 C-479.29 -263.71, -477.71 -267.11, -474.54 -273.91 M-474.54 -273.91 C-474.54 -273.91, -474.54 -273.91, -474.54 -273.91 M-474.54 -273.91 C-474.54 -273.91, -474.54 -273.91, -474.54 -273.91" stroke="#000000" stroke-width="1" fill="none"></path></g></g><g stroke-linecap="round"><g transform="translate(237.08840350565566 271.24402899708684) rotate(0 264.29862641091654 156.77713059175517)"><path d="M0 0 C0 65.67, 0 131.34, 0 313.55 M0 0 C0 88.12, 0 176.25, 0 313.55 M0 313.55 C122.72 313.55, 245.44 313.55, 528.6 313.55 M0 313.55 C207.01 313.55, 414.01 313.55, 528.6 313.55" stroke="#000000" stroke-width="1" fill="none"></path></g><g transform="translate(237.08840350565566 271.24402899708684) rotate(0 264.29862641091654 156.77713059175517)"><path d="M528.6 313.55 L515 319.89 L515 307.21 L528.6 313.55" stroke="none" stroke-width="0" fill="#000000" fill-rule="evenodd"></path><path d="M528.6 313.55 C525.75 314.88, 522.9 316.21, 515 319.89 M528.6 313.55 C524.78 315.34, 520.96 317.12, 515 319.89 M515 319.89 C515 316.95, 515 314.01, 515 307.21 M515 319.89 C515 314.93, 515 309.96, 515 307.21 M515 307.21 C519.8 309.45, 524.59 311.69, 528.6 313.55 M515 307.21 C519.39 309.26, 523.77 311.31, 528.6 313.55 M528.6 313.55 C528.6 313.55, 528.6 313.55, 528.6 313.55 M528.6 313.55 C528.6 313.55, 528.6 313.55, 528.6 313.55" stroke="#000000" stroke-width="1" fill="none"></path></g></g><g stroke-linecap="round"><g transform="translate(766.7368623774275 615.5981110492435) rotate(0 3.6040630127012037 42.715771772517655)"><path d="M0 0 C-11.64 0, -23.28 0, -52.86 0 M0 0 C-21.05 0, -42.11 0, -52.86 0 M-52.86 0 C-52.81 29.53, -52.76 59.06, -52.71 85.43 M-52.86 0 C-52.82 22.86, -52.78 45.71, -52.71 85.43 M-52.71 85.43 C-22.44 85.43, 7.82 85.43, 60.07 85.43 M-52.71 85.43 C-13.68 85.43, 25.34 85.43, 60.07 85.43 M60.07 85.43 C60.07 69.84, 60.07 54.24, 60.07 23.26 M60.07 85.43 C60.07 68.13, 60.07 50.83, 60.07 23.26" stroke="#000000" stroke-width="1" fill="none"></path></g><g transform="translate(766.7368623774275 615.5981110492435) rotate(0 3.6040630127012037 42.715771772517655)"><path d="M60.07 23.26 L66.41 36.86 L53.73 36.86 L60.07 23.26" stroke="none" stroke-width="0" fill="#000000" fill-rule="evenodd"></path><path d="M60.07 23.26 C61.46 26.25, 62.86 29.25, 66.41 36.86 M60.07 23.26 C62.59 28.68, 65.12 34.09, 66.41 36.86 M66.41 36.86 C62.02 36.86, 57.64 36.86, 53.73 36.86 M66.41 36.86 C63.02 36.86, 59.62 36.86, 53.73 36.86 M53.73 36.86 C55.43 33.21, 57.13 29.56, 60.07 23.26 M53.73 36.86 C55.92 32.15, 58.12 27.45, 60.07 23.26 M60.07 23.26 C60.07 23.26, 60.07 23.26, 60.07 23.26 M60.07 23.26 C60.07 23.26, 60.07 23.26, 60.07 23.26" stroke="#000000" stroke-width="1" fill="none"></path></g></g><g stroke-linecap="round"><g transform="translate(382.4526297004007 212.37754424790728) rotate(0 197.62330027742846 0)"><path d="M0 0 C97.52 0, 195.04 0, 395.25 0 M0 0 C93.88 0, 187.75 0, 395.25 0" stroke="#000000" stroke-width="1" fill="none"></path></g><g transform="translate(382.4526297004007 212.37754424790728) rotate(0 197.62330027742846 0)"><path d="M395.25 0 L381.65 6.34 L381.65 -6.34 L395.25 0" stroke="none" stroke-width="0" fill="#000000" fill-rule="evenodd"></path><path d="M395.25 0 C391.89 1.56, 388.54 3.13, 381.65 6.34 M395.25 0 C392.02 1.51, 388.79 3.01, 381.65 6.34 M381.65 6.34 C381.65 3.78, 381.65 1.21, 381.65 -6.34 M381.65 6.34 C381.65 1.9, 381.65 -2.53, 381.65 -6.34 M381.65 -6.34 C385.02 -4.77, 388.39 -3.2, 395.25 0 M381.65 -6.34 C385.89 -4.36, 390.13 -2.39, 395.25 0 M395.25 0 C395.25 0, 395.25 0, 395.25 0 M395.25 0 C395.25 0, 395.25 0, 395.25 0" stroke="#000000" stroke-width="1" fill="none"></path></g></g><g stroke-linecap="round"><g transform="translate(777.6992302552576 242.41147906732976) rotate(0 -197.02258491852191 0)"><path d="M0 0 C-94.92 0, -189.84 0, -394.05 0 M0 0 C-101.29 0, -202.58 0, -394.05 0" stroke="#000000" stroke-width="1" fill="none"></path></g><g transform="translate(777.6992302552576 242.41147906732976) rotate(0 -197.02258491852191 0)"><path d="M-394.05 0 L-380.45 -6.34 L-380.45 6.34 L-394.05 0" stroke="none" stroke-width="0" fill="#000000" fill-rule="evenodd"></path><path d="M-394.05 0 C-390.77 -1.53, -387.5 -3.05, -380.45 -6.34 M-394.05 0 C-390.55 -1.63, -387.06 -3.26, -380.45 -6.34 M-380.45 -6.34 C-380.45 -3.56, -380.45 -0.79, -380.45 6.34 M-380.45 -6.34 C-380.45 -3.45, -380.45 -0.57, -380.45 6.34 M-380.45 6.34 C-385.15 4.15, -389.86 1.95, -394.05 0 M-380.45 6.34 C-384.06 4.66, -387.66 2.98, -394.05 0 M-394.05 0 C-394.05 0, -394.05 0, -394.05 0 M-394.05 0 C-394.05 0, -394.05 0, -394.05 0" stroke="#000000" stroke-width="1" fill="none"></path></g></g></svg>